<?xml version="1.0" encoding="UTF-8"?>
<svg xmlns="http://www.w3.org/2000/svg" xmlns:xlink="http://www.w3.org/1999/xlink" version="1.1" width="152.4mm" height="152.4mm" viewBox="0 0 152.4 152.4" style="stroke:black;fill:black" stroke-width="0.5">
<g stroke="#F2F2F2" fill="#F5F5F5">
  <path d="M 22.26 5 L 147.4 5 147.4 134.4 22.26 134.4 z" />
  <g stroke="#FFFFFF" stroke-width="0.3">
    <path d="M143.86,5 L 143.86 134.4" />
    <path d="M84.83,5 L 84.83 134.4" />
    <path d="M25.8,5 L 25.8 134.4" />
    <path d="M55.32,5 L 55.32 134.4" />
    <path d="M114.34,5 L 114.34 134.4" />
  </g>
  <g stroke="#FFFFFF" stroke-width="0.3">
    <path d="M22.26,110.4 L 147.4 110.4" />
    <path d="M22.26,90.05 L 147.4 90.05" />
    <path d="M22.26,49.36 L 147.4 49.36" />
    <path d="M22.26,130.74 L 147.4 130.74" />
    <path d="M22.26,69.7 L 147.4 69.7" />
    <path d="M22.26,29.01 L 147.4 29.01" />
    <path d="M22.26,8.66 L 147.4 8.66" />
  </g>
</g>
<g stroke="none" stroke-width="0.3">
  <g fill="#4682B4" stroke="#0F5D8C" class="color_group_RGB(0.27450980392156865,0.5098039215686274,0.7058823529411765)">
    <circle cx="25.85" cy="129.84" r="0.5" />
    <circle cx="25.81" cy="130.43" r="0.5" />
    <circle cx="25.82" cy="130.58" r="0.5" />
    <circle cx="32.66" cy="122.14" r="0.5" />
    <circle cx="26.34" cy="128.31" r="0.5" />
    <circle cx="26.21" cy="128.4" r="0.5" />
    <circle cx="26.02" cy="128.74" r="0.5" />
    <circle cx="25.82" cy="130.63" r="0.5" />
    <circle cx="25.86" cy="129.56" r="0.5" />
    <circle cx="25.81" cy="130.61" r="0.5" />
    <circle cx="25.8" cy="130.66" r="0.5" />
    <circle cx="25.81" cy="130.63" r="0.5" />
    <circle cx="25.82" cy="130.61" r="0.5" />
    <circle cx="25.8" cy="130.74" r="0.5" />
    <circle cx="25.8" cy="130.72" r="0.5" />
    <circle cx="25.85" cy="130.52" r="0.5" />
    <circle cx="25.83" cy="130.49" r="0.5" />
    <circle cx="25.83" cy="130.61" r="0.5" />
    <circle cx="63.39" cy="37.09" r="0.5" />
    <circle cx="25.8" cy="130.74" r="0.5" />
    <circle cx="28.56" cy="122.22" r="0.5" />
    <circle cx="33.49" cy="117.41" r="0.5" />
    <circle cx="25.81" cy="130.67" r="0.5" />
    <circle cx="25.95" cy="128.4" r="0.5" />
    <circle cx="25.85" cy="130.22" r="0.5" />
    <circle cx="25.8" cy="130.64" r="0.5" />
    <circle cx="25.82" cy="130.39" r="0.5" />
    <circle cx="33.61" cy="116.91" r="0.5" />
    <circle cx="28.86" cy="122.48" r="0.5" />
    <circle cx="27.06" cy="124.13" r="0.5" />
    <circle cx="25.81" cy="130.49" r="0.5" />
    <circle cx="26.72" cy="103.88" r="0.5" />
    <circle cx="124" cy="14.52" r="0.5" />
    <circle cx="25.85" cy="130.66" r="0.5" />
    <circle cx="25.9" cy="127.1" r="0.5" />
    <circle cx="26.32" cy="129.6" r="0.5" />
    <circle cx="25.86" cy="130.4" r="0.5" />
    <circle cx="25.8" cy="130.72" r="0.5" />
    <circle cx="25.8" cy="130.73" r="0.5" />
    <circle cx="25.8" cy="130.74" r="0.5" />
    <circle cx="25.82" cy="130.49" r="0.5" />
    <circle cx="29.49" cy="120.77" r="0.5" />
    <circle cx="25.84" cy="130.5" r="0.5" />
    <circle cx="26.62" cy="127.18" r="0.5" />
    <circle cx="27.28" cy="127.55" r="0.5" />
    <circle cx="26.57" cy="121.79" r="0.5" />
    <circle cx="25.96" cy="127.09" r="0.5" />
    <circle cx="25.81" cy="130.69" r="0.5" />
    <circle cx="26.69" cy="129.09" r="0.5" />
    <circle cx="25.85" cy="130.31" r="0.5" />
    <circle cx="25.86" cy="129.94" r="0.5" />
    <circle cx="25.81" cy="130.7" r="0.5" />
    <circle cx="25.8" cy="130.72" r="0.5" />
    <circle cx="25.8" cy="130.68" r="0.5" />
    <circle cx="25.8" cy="130.74" r="0.5" />
    <circle cx="28.63" cy="127.08" r="0.5" />
    <circle cx="25.85" cy="130.23" r="0.5" />
    <circle cx="28.16" cy="127.3" r="0.5" />
    <circle cx="25.81" cy="130.69" r="0.5" />
    <circle cx="25.82" cy="130.51" r="0.5" />
    <circle cx="25.8" cy="130.69" r="0.5" />
    <circle cx="25.86" cy="129.72" r="0.5" />
  </g>
</g>
<g stroke="none" fill="#4C404B" font-family="Source Sans Pro" font-size="3.18">
  <text x="143.86" y="138.45" text-anchor="middle">8000</text>
  <text x="84.83" y="138.45" text-anchor="middle">4000</text>
  <text x="25.8" y="138.45" text-anchor="middle">0</text>
  <text x="55.32" y="138.45" text-anchor="middle">2000</text>
  <text x="114.34" y="138.45" text-anchor="middle">6000</text>
</g>
<g stroke="none" fill="#362A35" font-family="Source Sans Pro" font-size="3.88">
  <text x="84.83" y="145.4" text-anchor="middle">body</text>
</g>
<g stroke="none" fill="#362A35" font-family="Source Sans Pro" font-size="3.88">
  <text x="9.47" y="69.7" text-anchor="middle" style="dominant-baseline:central" transform="rotate(-90, 9.47, 69.7)">brain</text>
</g>
<g stroke="none" fill="#4C404B" font-family="Source Sans Pro" font-size="3.18">
  <text x="21.26" y="110.4" text-anchor="end" style="dominant-baseline:central">1000</text>
  <text x="21.26" y="90.05" text-anchor="end" style="dominant-baseline:central">2000</text>
  <text x="21.26" y="49.36" text-anchor="end" style="dominant-baseline:central">4000</text>
  <text x="21.26" y="130.74" text-anchor="end" style="dominant-baseline:central">0</text>
  <text x="21.26" y="69.7" text-anchor="end" style="dominant-baseline:central">3000</text>
  <text x="21.26" y="29.01" text-anchor="end" style="dominant-baseline:central">5000</text>
  <text x="21.26" y="8.66" text-anchor="end" style="dominant-baseline:central">6000</text>
</g>
</svg>
