<?xml version="1.0" encoding="UTF-8"?>
<svg xmlns="http://www.w3.org/2000/svg" xmlns:xlink="http://www.w3.org/1999/xlink" version="1.1" width="101.6mm" height="76.2mm" viewBox="0 0 101.6 76.2" style="stroke:black;fill:black" stroke-width="0.5">
<g stroke="#F2F2F2" fill="#F5F5F5">
  <path d="M 11.73 5 L 96.6 5 96.6 56.2 11.73 56.2 z" />
  <g stroke="#FFFFFF" stroke-width="0.3">
    <path d="M94.2,5 L 94.2 56.2" />
    <path d="M74.18,5 L 74.18 56.2" />
    <path d="M54.17,5 L 54.17 56.2" />
    <path d="M34.15,5 L 34.15 56.2" />
    <path d="M14.14,5 L 14.14 56.2" />
  </g>
  <g stroke="#FFFFFF" stroke-width="0.3">
    <path d="M11.73,22.55 L 96.6 22.55" />
    <path d="M11.73,54.75 L 96.6 54.75" />
    <path d="M11.73,38.65 L 96.6 38.65" />
    <path d="M11.73,6.45 L 96.6 6.45" />
  </g>
</g>
<g stroke="none" fill="#4682B4">
  <path d="M 22.29 54.75 L 24.74 54.75 24.74 53.79 22.29 53.79 z" />
  <path d="M 24.54 54.75 L 26.99 54.75 26.99 48.96 24.54 48.96 z" />
  <path d="M 26.79 54.75 L 29.25 54.75 29.25 40.91 26.79 40.91 z" />
  <path d="M 29.05 54.75 L 31.5 54.75 31.5 31.57 29.05 31.57 z" />
  <path d="M 31.3 54.75 L 33.75 54.75 33.75 19.65 31.3 19.65 z" />
  <path d="M 33.55 54.75 L 36.01 54.75 36.01 21.26 33.55 21.26 z" />
  <path d="M 35.81 54.75 L 38.26 54.75 38.26 28.99 35.81 28.99 z" />
  <path d="M 38.06 54.75 L 40.51 54.75 40.51 39.3 38.06 39.3 z" />
  <path d="M 40.31 54.75 L 42.77 54.75 42.77 48.64 40.31 48.64 z" />
  <path d="M 42.57 54.75 L 45.02 54.75 45.02 54.11 42.57 54.11 z" />
  <path d="M 44.82 54.75 L 47.27 54.75 47.27 54.43 44.82 54.43 z" />
  <path d="M 47.07 54.75 L 49.53 54.75 49.53 54.43 47.07 54.43 z" />
  <path d="M 49.33 54.75 L 51.78 54.75 51.78 54.75 49.33 54.75 z" />
  <path d="M 51.58 54.75 L 54.03 54.75 54.03 54.75 51.58 54.75 z" />
  <path d="M 53.83 54.75 L 56.29 54.75 56.29 54.75 53.83 54.75 z" />
  <path d="M 56.09 54.75 L 58.54 54.75 58.54 54.75 56.09 54.75 z" />
  <path d="M 58.34 54.75 L 60.79 54.75 60.79 54.75 58.34 54.75 z" />
  <path d="M 60.59 54.75 L 63.05 54.75 63.05 54.75 60.59 54.75 z" />
  <path d="M 62.85 54.75 L 65.3 54.75 65.3 53.79 62.85 53.79 z" />
  <path d="M 65.1 54.75 L 67.55 54.75 67.55 51.53 65.1 51.53 z" />
  <path d="M 67.35 54.75 L 69.81 54.75 69.81 38.65 67.35 38.65 z" />
  <path d="M 69.61 54.75 L 72.06 54.75 72.06 34.14 69.61 34.14 z" />
  <path d="M 71.86 54.75 L 74.31 54.75 74.31 14.82 71.86 14.82 z" />
  <path d="M 74.11 54.75 L 76.57 54.75 76.57 17.4 74.11 17.4 z" />
  <path d="M 76.37 54.75 L 78.82 54.75 78.82 32.53 76.37 32.53 z" />
  <path d="M 78.62 54.75 L 81.07 54.75 81.07 40.26 78.62 40.26 z" />
  <path d="M 80.87 54.75 L 83.33 54.75 83.33 49.92 80.87 49.92 z" />
  <path d="M 83.13 54.75 L 85.58 54.75 85.58 53.47 83.13 53.47 z" />
</g>
<g stroke="none" font-family="Source Sans Pro" fill="#4C404B" font-size="3.18">
  <text x="94.2" y="61.25" text-anchor="middle">10</text>
  <text x="74.18" y="61.25" text-anchor="middle">5</text>
  <text x="54.17" y="61.25" text-anchor="middle">0</text>
  <text x="34.15" y="61.25" text-anchor="middle">-5</text>
  <text x="14.14" y="61.25" text-anchor="middle">-10</text>
</g>
<g stroke="none" font-family="Source Sans Pro" fill="#362A35" font-size="3.88">
  <text x="54.17" y="69.2" text-anchor="middle">x</text>
</g>
<g stroke="none" font-family="Source Sans Pro" fill="#4C404B" font-size="3.18">
  <text x="10.73" y="22.55" text-anchor="end" style="dominant-baseline:central">100</text>
  <text x="10.73" y="54.75" text-anchor="end" style="dominant-baseline:central">0</text>
  <text x="10.73" y="38.65" text-anchor="end" style="dominant-baseline:central">50</text>
  <text x="10.73" y="6.45" text-anchor="end" style="dominant-baseline:central">150</text>
</g>
</svg>
