<?xml version="1.0" encoding="UTF-8"?>
<svg xmlns="http://www.w3.org/2000/svg" xmlns:xlink="http://www.w3.org/1999/xlink" version="1.1" width="152.4mm" height="76.2mm" viewBox="0 0 152.4 76.2" style="stroke:black;fill:black" stroke-width="0.5">
<g fill="#F5F5F5" stroke="#F2F2F2">
  <path d="M 19.89 5 L 71.2 5 71.2 56.2 19.89 56.2 z" />
  <g stroke="#FFFFFF" stroke-width="0.3">
    <path d="M57.65,5 L 57.65 56.2" />
    <path d="M21.35,5 L 21.35 56.2" />
    <path d="M33.45,5 L 33.45 56.2" />
    <path d="M45.55,5 L 45.55 56.2" />
    <path d="M69.75,5 L 69.75 56.2" />
  </g>
  <g stroke="#FFFFFF" stroke-width="0.3">
    <path d="M19.89,35.43 L 71.2 35.43" />
    <path d="M19.89,25.77 L 71.2 25.77" />
    <path d="M19.89,16.11 L 71.2 16.11" />
    <path d="M19.89,54.75 L 71.2 54.75" />
    <path d="M19.89,45.09 L 71.2 45.09" />
    <path d="M19.89,6.45 L 71.2 6.45" />
  </g>
</g>
<g stroke="none" stroke-width="0.3">
  <g fill="#4682B4" stroke="#0F5D8C" class="color_group_RGB(0.27450980392156865,0.5098039215686274,0.7058823529411765)">
    <circle cx="34.66" cy="25.77" r="0.5" />
    <circle cx="32.24" cy="35.43" r="0.5" />
    <circle cx="29.82" cy="31.57" r="0.5" />
    <circle cx="28.61" cy="33.5" r="0.5" />
    <circle cx="33.45" cy="23.84" r="0.5" />
    <circle cx="38.29" cy="18.04" r="0.5" />
    <circle cx="28.61" cy="27.7" r="0.5" />
    <circle cx="33.45" cy="27.7" r="0.5" />
    <circle cx="26.19" cy="37.36" r="0.5" />
    <circle cx="32.24" cy="33.5" r="0.5" />
    <circle cx="38.29" cy="21.91" r="0.5" />
    <circle cx="31.03" cy="27.7" r="0.5" />
    <circle cx="31.03" cy="35.43" r="0.5" />
    <circle cx="24.98" cy="35.43" r="0.5" />
    <circle cx="43.13" cy="16.11" r="0.5" />
    <circle cx="41.92" cy="8.38" r="0.5" />
    <circle cx="38.29" cy="18.04" r="0.5" />
    <circle cx="34.66" cy="25.77" r="0.5" />
    <circle cx="41.92" cy="19.97" r="0.5" />
    <circle cx="34.66" cy="19.97" r="0.5" />
    <circle cx="38.29" cy="27.7" r="0.5" />
    <circle cx="34.66" cy="21.91" r="0.5" />
    <circle cx="28.61" cy="23.84" r="0.5" />
    <circle cx="34.66" cy="29.64" r="0.5" />
    <circle cx="31.03" cy="27.7" r="0.5" />
    <circle cx="33.45" cy="35.43" r="0.5" />
    <circle cx="33.45" cy="27.7" r="0.5" />
    <circle cx="35.87" cy="25.77" r="0.5" />
    <circle cx="35.87" cy="27.7" r="0.5" />
    <circle cx="29.82" cy="31.57" r="0.5" />
    <circle cx="31.03" cy="33.5" r="0.5" />
    <circle cx="38.29" cy="27.7" r="0.5" />
    <circle cx="35.87" cy="14.18" r="0.5" />
    <circle cx="39.5" cy="12.25" r="0.5" />
    <circle cx="32.24" cy="33.5" r="0.5" />
    <circle cx="33.45" cy="31.57" r="0.5" />
    <circle cx="39.5" cy="25.77" r="0.5" />
    <circle cx="32.24" cy="23.84" r="0.5" />
    <circle cx="26.19" cy="35.43" r="0.5" />
    <circle cx="34.66" cy="27.7" r="0.5" />
    <circle cx="33.45" cy="25.77" r="0.5" />
    <circle cx="27.4" cy="48.96" r="0.5" />
    <circle cx="26.19" cy="31.57" r="0.5" />
    <circle cx="33.45" cy="25.77" r="0.5" />
    <circle cx="34.66" cy="19.97" r="0.5" />
    <circle cx="31.03" cy="35.43" r="0.5" />
    <circle cx="34.66" cy="19.97" r="0.5" />
    <circle cx="28.61" cy="31.57" r="0.5" />
    <circle cx="37.08" cy="21.91" r="0.5" />
    <circle cx="33.45" cy="29.64" r="0.5" />
    <circle cx="57.65" cy="31.57" r="0.5" />
    <circle cx="50.39" cy="31.57" r="0.5" />
    <circle cx="56.44" cy="33.5" r="0.5" />
    <circle cx="39.5" cy="48.96" r="0.5" />
    <circle cx="51.6" cy="39.3" r="0.5" />
    <circle cx="41.92" cy="39.3" r="0.5" />
    <circle cx="49.18" cy="29.64" r="0.5" />
    <circle cx="32.24" cy="47.03" r="0.5" />
    <circle cx="52.81" cy="37.36" r="0.5" />
    <circle cx="35.87" cy="41.23" r="0.5" />
    <circle cx="33.45" cy="54.75" r="0.5" />
    <circle cx="44.34" cy="35.43" r="0.5" />
    <circle cx="45.55" cy="50.89" r="0.5" />
    <circle cx="46.76" cy="37.36" r="0.5" />
    <circle cx="40.71" cy="37.36" r="0.5" />
    <circle cx="54.02" cy="33.5" r="0.5" />
    <circle cx="40.71" cy="35.43" r="0.5" />
    <circle cx="43.13" cy="41.23" r="0.5" />
    <circle cx="47.97" cy="50.89" r="0.5" />
    <circle cx="40.71" cy="45.09" r="0.5" />
    <circle cx="44.34" cy="31.57" r="0.5" />
    <circle cx="46.76" cy="39.3" r="0.5" />
    <circle cx="49.18" cy="45.09" r="0.5" />
    <circle cx="46.76" cy="39.3" r="0.5" />
    <circle cx="50.39" cy="37.36" r="0.5" />
    <circle cx="52.81" cy="35.43" r="0.5" />
    <circle cx="55.23" cy="39.3" r="0.5" />
    <circle cx="54.02" cy="35.43" r="0.5" />
    <circle cx="45.55" cy="37.36" r="0.5" />
    <circle cx="41.92" cy="43.16" r="0.5" />
    <circle cx="39.5" cy="47.03" r="0.5" />
    <circle cx="39.5" cy="47.03" r="0.5" />
    <circle cx="43.13" cy="41.23" r="0.5" />
    <circle cx="45.55" cy="41.23" r="0.5" />
    <circle cx="38.29" cy="35.43" r="0.5" />
    <circle cx="45.55" cy="27.7" r="0.5" />
    <circle cx="54.02" cy="33.5" r="0.5" />
    <circle cx="49.18" cy="48.96" r="0.5" />
    <circle cx="40.71" cy="35.43" r="0.5" />
    <circle cx="39.5" cy="45.09" r="0.5" />
    <circle cx="39.5" cy="43.16" r="0.5" />
    <circle cx="46.76" cy="35.43" r="0.5" />
    <circle cx="43.13" cy="43.16" r="0.5" />
    <circle cx="33.45" cy="48.96" r="0.5" />
    <circle cx="40.71" cy="41.23" r="0.5" />
    <circle cx="41.92" cy="35.43" r="0.5" />
    <circle cx="41.92" cy="37.36" r="0.5" />
    <circle cx="47.97" cy="37.36" r="0.5" />
    <circle cx="34.66" cy="45.09" r="0.5" />
    <circle cx="41.92" cy="39.3" r="0.5" />
    <circle cx="49.18" cy="29.64" r="0.5" />
    <circle cx="43.13" cy="41.23" r="0.5" />
    <circle cx="58.86" cy="35.43" r="0.5" />
    <circle cx="49.18" cy="37.36" r="0.5" />
    <circle cx="51.6" cy="35.43" r="0.5" />
    <circle cx="64.91" cy="35.43" r="0.5" />
    <circle cx="32.24" cy="45.09" r="0.5" />
    <circle cx="61.28" cy="37.36" r="0.5" />
    <circle cx="54.02" cy="45.09" r="0.5" />
    <circle cx="60.07" cy="23.84" r="0.5" />
    <circle cx="51.6" cy="31.57" r="0.5" />
    <circle cx="50.39" cy="41.23" r="0.5" />
    <circle cx="55.23" cy="35.43" r="0.5" />
    <circle cx="41.92" cy="45.09" r="0.5" />
    <circle cx="43.13" cy="39.3" r="0.5" />
    <circle cx="50.39" cy="31.57" r="0.5" />
    <circle cx="51.6" cy="35.43" r="0.5" />
    <circle cx="66.12" cy="19.97" r="0.5" />
    <circle cx="66.12" cy="43.16" r="0.5" />
    <circle cx="45.55" cy="50.89" r="0.5" />
    <circle cx="56.44" cy="31.57" r="0.5" />
    <circle cx="40.71" cy="39.3" r="0.5" />
    <circle cx="66.12" cy="39.3" r="0.5" />
    <circle cx="49.18" cy="41.23" r="0.5" />
    <circle cx="54.02" cy="29.64" r="0.5" />
    <circle cx="60.07" cy="31.57" r="0.5" />
    <circle cx="47.97" cy="39.3" r="0.5" />
    <circle cx="46.76" cy="35.43" r="0.5" />
    <circle cx="50.39" cy="39.3" r="0.5" />
    <circle cx="60.07" cy="35.43" r="0.5" />
    <circle cx="62.49" cy="39.3" r="0.5" />
    <circle cx="68.54" cy="19.97" r="0.5" />
    <circle cx="50.39" cy="39.3" r="0.5" />
    <circle cx="49.18" cy="39.3" r="0.5" />
    <circle cx="46.76" cy="43.16" r="0.5" />
    <circle cx="66.12" cy="35.43" r="0.5" />
    <circle cx="49.18" cy="27.7" r="0.5" />
    <circle cx="50.39" cy="33.5" r="0.5" />
    <circle cx="45.55" cy="35.43" r="0.5" />
    <circle cx="56.44" cy="33.5" r="0.5" />
    <circle cx="54.02" cy="33.5" r="0.5" />
    <circle cx="56.44" cy="33.5" r="0.5" />
    <circle cx="43.13" cy="41.23" r="0.5" />
    <circle cx="55.23" cy="31.57" r="0.5" />
    <circle cx="54.02" cy="29.64" r="0.5" />
    <circle cx="54.02" cy="35.43" r="0.5" />
    <circle cx="49.18" cy="45.09" r="0.5" />
    <circle cx="51.6" cy="35.43" r="0.5" />
    <circle cx="47.97" cy="27.7" r="0.5" />
    <circle cx="44.34" cy="35.43" r="0.5" />
  </g>
</g>
<g fill="#4C404B" stroke="none" font-size="3.18" font-family="Source Sans Pro">
  <text x="57.65" y="61.25" text-anchor="middle">7</text>
  <text x="21.35" y="61.25" text-anchor="middle">4</text>
  <text x="33.45" y="61.25" text-anchor="middle">5</text>
  <text x="45.55" y="61.25" text-anchor="middle">6</text>
  <text x="69.75" y="61.25" text-anchor="middle">8</text>
</g>
<g fill="#362A35" stroke="none" font-size="3.88" font-family="Source Sans Pro">
  <text x="45.55" y="69.2" text-anchor="middle">Sepal.Length</text>
</g>
<g fill="#362A35" stroke="none" font-size="3.88" font-family="Source Sans Pro">
  <text x="9.47" y="30.6" text-anchor="middle" style="dominant-baseline:central" transform="rotate(-90, 9.47, 30.6)">Sepal.Width</text>
</g>
<g fill="#4C404B" stroke="none" font-size="3.18" font-family="Source Sans Pro">
  <text x="18.89" y="35.43" text-anchor="end" style="dominant-baseline:central">3</text>
  <text x="18.89" y="25.77" text-anchor="end" style="dominant-baseline:central">3.5</text>
  <text x="18.89" y="16.11" text-anchor="end" style="dominant-baseline:central">4</text>
  <text x="18.89" y="54.75" text-anchor="end" style="dominant-baseline:central">2</text>
  <text x="18.89" y="45.09" text-anchor="end" style="dominant-baseline:central">2.5</text>
  <text x="18.89" y="6.45" text-anchor="end" style="dominant-baseline:central">4.5</text>
</g>
<g fill="#F5F5F5" stroke="#F2F2F2">
  <path d="M 86.36 5 L 147.4 5 147.4 56.2 86.36 56.2 z" />
  <g stroke="#FFFFFF" stroke-width="0.3">
    <path d="M111.12,5 L 111.12 56.2" />
    <path d="M122.64,5 L 122.64 56.2" />
    <path d="M134.15,5 L 134.15 56.2" />
    <path d="M88.08,5 L 88.08 56.2" />
    <path d="M99.6,5 L 99.6 56.2" />
    <path d="M145.67,5 L 145.67 56.2" />
  </g>
  <g stroke="#FFFFFF" stroke-width="0.3">
    <path d="M86.36,38.65 L 147.4 38.65" />
    <path d="M86.36,54.75 L 147.4 54.75" />
    <path d="M86.36,22.55 L 147.4 22.55" />
    <path d="M86.36,6.45 L 147.4 6.45" />
  </g>
</g>
<g fill="#4682B4" stroke="none">
  <path d="M 88.03 54.75 L 89.98 54.75 89.98 53.14 88.03 53.14 z" />
  <path d="M 89.88 54.75 L 91.82 54.75 91.82 54.75 89.88 54.75 z" />
  <path d="M 91.72 54.75 L 93.66 54.75 93.66 49.92 91.72 49.92 z" />
  <path d="M 93.56 54.75 L 95.5 54.75 95.5 48.31 93.56 48.31 z" />
  <path d="M 95.4 54.75 L 97.35 54.75 97.35 49.92 95.4 49.92 z" />
  <path d="M 97.25 54.75 L 99.19 54.75 99.19 54.75 97.25 54.75 z" />
  <path d="M 99.09 54.75 L 101.03 54.75 101.03 41.87 99.09 41.87 z" />
  <path d="M 100.93 54.75 L 102.88 54.75 102.88 46.7 100.93 46.7 z" />
  <path d="M 102.78 54.75 L 104.72 54.75 104.72 40.26 102.78 40.26 z" />
  <path d="M 104.62 54.75 L 106.56 54.75 106.56 32.21 104.62 32.21 z" />
  <path d="M 106.46 54.75 L 108.4 54.75 108.4 54.75 106.46 54.75 z" />
  <path d="M 108.3 54.75 L 110.25 54.75 110.25 38.65 108.3 38.65 z" />
  <path d="M 110.15 54.75 L 112.09 54.75 112.09 12.89 110.15 12.89 z" />
  <path d="M 111.99 54.75 L 113.93 54.75 113.93 37.04 111.99 37.04 z" />
  <path d="M 113.83 54.75 L 115.78 54.75 115.78 33.82 113.83 33.82 z" />
  <path d="M 115.68 54.75 L 117.62 54.75 117.62 54.75 115.68 54.75 z" />
  <path d="M 117.52 54.75 L 119.46 54.75 119.46 45.09 117.52 45.09 z" />
  <path d="M 119.36 54.75 L 121.3 54.75 121.3 35.43 119.36 35.43 z" />
  <path d="M 121.2 54.75 L 123.15 54.75 123.15 45.09 121.2 45.09 z" />
  <path d="M 123.05 54.75 L 124.99 54.75 124.99 48.31 123.05 48.31 z" />
  <path d="M 124.89 54.75 L 126.83 54.75 126.83 54.75 124.89 54.75 z" />
  <path d="M 126.73 54.75 L 128.68 54.75 128.68 49.92 126.73 49.92 z" />
  <path d="M 128.58 54.75 L 130.52 54.75 130.52 45.09 128.58 45.09 z" />
  <path d="M 130.42 54.75 L 132.36 54.75 132.36 51.53 130.42 51.53 z" />
  <path d="M 132.26 54.75 L 134.2 54.75 134.2 53.14 132.26 53.14 z" />
  <path d="M 134.1 54.75 L 136.05 54.75 136.05 54.75 134.1 54.75 z" />
  <path d="M 135.95 54.75 L 137.89 54.75 137.89 53.14 135.95 53.14 z" />
  <path d="M 137.79 54.75 L 139.73 54.75 139.73 53.14 137.79 53.14 z" />
  <path d="M 139.63 54.75 L 141.58 54.75 141.58 54.75 139.63 54.75 z" />
  <path d="M 141.48 54.75 L 143.42 54.75 143.42 53.14 141.48 53.14 z" />
</g>
<g fill="#4C404B" stroke="none" font-size="3.18" font-family="Source Sans Pro">
  <text x="111.12" y="61.25" text-anchor="middle">3</text>
  <text x="122.64" y="61.25" text-anchor="middle">3.5</text>
  <text x="134.15" y="61.25" text-anchor="middle">4</text>
  <text x="88.08" y="61.25" text-anchor="middle">2</text>
  <text x="99.6" y="61.25" text-anchor="middle">2.5</text>
  <text x="145.67" y="61.25" text-anchor="middle">4.5</text>
</g>
<g fill="#362A35" stroke="none" font-size="3.88" font-family="Source Sans Pro">
  <text x="116.88" y="69.2" text-anchor="middle">Sepal.Width</text>
</g>
<g fill="#4C404B" stroke="none" font-size="3.18" font-family="Source Sans Pro">
  <text x="85.36" y="38.65" text-anchor="end" style="dominant-baseline:central">10</text>
  <text x="85.36" y="54.75" text-anchor="end" style="dominant-baseline:central">0</text>
  <text x="85.36" y="22.55" text-anchor="end" style="dominant-baseline:central">20</text>
  <text x="85.36" y="6.45" text-anchor="end" style="dominant-baseline:central">30</text>
</g>
</svg>
