<?xml version="1.0" encoding="UTF-8"?>
<svg xmlns="http://www.w3.org/2000/svg" xmlns:xlink="http://www.w3.org/1999/xlink" version="1.1" width="101.6mm" height="76.2mm" viewBox="0 0 101.6 76.2" style="stroke:black;fill:black" stroke-width="0.5">
<g stroke="#F2F2F2" fill="#F5F5F5">
  <path d="M 11.73 5 L 96.6 5 96.6 58.2 11.73 58.2 z" />
  <g stroke="#FFFFFF" stroke-width="0.3">
    <path d="M94.2,5 L 94.2 58.2" />
    <path d="M74.18,5 L 74.18 58.2" />
    <path d="M54.17,5 L 54.17 58.2" />
    <path d="M34.15,5 L 34.15 58.2" />
    <path d="M14.14,5 L 14.14 58.2" />
  </g>
  <g stroke="#FFFFFF" stroke-width="0.3">
    <path d="M11.73,46.66 L 96.6 46.66" />
    <path d="M11.73,26.58 L 96.6 26.58" />
    <path d="M11.73,56.7 L 96.6 56.7" />
    <path d="M11.73,36.62 L 96.6 36.62" />
    <path d="M11.73,6.51 L 96.6 6.51" />
    <path d="M11.73,16.54 L 96.6 16.54" />
  </g>
</g>
<g fill="#4682B4" stroke="none">
  <path d="M 27.55 56.7 L 28.84 56.7 28.84 56.4 27.55 56.4 z" />
  <path d="M 28.74 56.7 L 30.03 56.7 30.03 56.7 28.74 56.7 z" />
  <path d="M 29.93 56.7 L 31.22 56.7 31.22 55.79 29.93 55.79 z" />
  <path d="M 31.12 56.7 L 32.41 56.7 32.41 55.19 31.12 55.19 z" />
  <path d="M 32.31 56.7 L 33.6 56.7 33.6 53.79 32.31 53.79 z" />
  <path d="M 33.5 56.7 L 34.79 56.7 34.79 51.18 33.5 51.18 z" />
  <path d="M 34.69 56.7 L 35.98 56.7 35.98 47.16 34.69 47.16 z" />
  <path d="M 35.88 56.7 L 37.17 56.7 37.17 42.44 35.88 42.44 z" />
  <path d="M 37.07 56.7 L 38.36 56.7 38.36 31.6 37.07 31.6 z" />
  <path d="M 38.26 56.7 L 39.55 56.7 39.55 30.5 38.26 30.5 z" />
  <path d="M 39.45 56.7 L 40.74 56.7 40.74 19.86 39.45 19.86 z" />
  <path d="M 40.64 56.7 L 41.92 56.7 41.92 17.65 40.64 17.65 z" />
  <path d="M 41.82 56.7 L 43.11 56.7 43.11 17.25 41.82 17.25 z" />
  <path d="M 43.01 56.7 L 44.3 56.7 44.3 16.34 43.01 16.34 z" />
  <path d="M 44.2 56.7 L 45.49 56.7 45.49 22.27 44.2 22.27 z" />
  <path d="M 45.39 56.7 L 46.68 56.7 46.68 31.1 45.39 31.1 z" />
  <path d="M 46.58 56.7 L 47.87 56.7 47.87 38.83 46.58 38.83 z" />
  <path d="M 47.77 56.7 L 49.06 56.7 49.06 44.25 47.77 44.25 z" />
  <path d="M 48.96 56.7 L 50.25 56.7 50.25 48.97 48.96 48.97 z" />
  <path d="M 50.15 56.7 L 51.44 56.7 51.44 52.38 50.15 52.38 z" />
  <path d="M 51.34 56.7 L 52.63 56.7 52.63 53.59 51.34 53.59 z" />
  <path d="M 52.53 56.7 L 53.82 56.7 53.82 55.49 52.53 55.49 z" />
  <path d="M 53.72 56.7 L 55.01 56.7 55.01 56.2 53.72 56.2 z" />
  <path d="M 54.91 56.7 L 56.2 56.7 56.2 55.49 54.91 55.49 z" />
  <path d="M 56.1 56.7 L 57.38 56.7 57.38 55.29 56.1 55.29 z" />
  <path d="M 57.28 56.7 L 58.57 56.7 58.57 53.99 57.28 53.99 z" />
  <path d="M 58.47 56.7 L 59.76 56.7 59.76 53.18 58.47 53.18 z" />
  <path d="M 59.66 56.7 L 60.95 56.7 60.95 49.47 59.66 49.47 z" />
  <path d="M 60.85 56.7 L 62.14 56.7 62.14 48.47 60.85 48.47 z" />
  <path d="M 62.04 56.7 L 63.33 56.7 63.33 45.15 62.04 45.15 z" />
  <path d="M 63.23 56.7 L 64.52 56.7 64.52 40.74 63.23 40.74 z" />
  <path d="M 64.42 56.7 L 65.71 56.7 65.71 38.03 64.42 38.03 z" />
  <path d="M 65.61 56.7 L 66.9 56.7 66.9 40.34 65.61 40.34 z" />
  <path d="M 66.8 56.7 L 68.09 56.7 68.09 40.64 66.8 40.64 z" />
  <path d="M 67.99 56.7 L 69.28 56.7 69.28 40.44 67.99 40.44 z" />
  <path d="M 69.18 56.7 L 70.47 56.7 70.47 44.25 69.18 44.25 z" />
  <path d="M 70.37 56.7 L 71.66 56.7 71.66 47.26 70.37 47.26 z" />
  <path d="M 71.56 56.7 L 72.85 56.7 72.85 52.48 71.56 52.48 z" />
  <path d="M 72.75 56.7 L 74.03 56.7 74.03 52.88 72.75 52.88 z" />
  <path d="M 73.93 56.7 L 75.22 56.7 75.22 54.39 73.93 54.39 z" />
  <path d="M 75.12 56.7 L 76.41 56.7 76.41 56 75.12 56 z" />
  <path d="M 76.31 56.7 L 77.6 56.7 77.6 56.3 76.31 56.3 z" />
  <path d="M 77.5 56.7 L 78.79 56.7 78.79 56.5 77.5 56.5 z" />
  <path d="M 78.69 56.7 L 79.98 56.7 79.98 56.6 78.69 56.6 z" />
</g>
<g stroke="none" fill="#4C404B" font-family="Source Sans Pro" font-size="3.18">
  <text x="94.2" y="62.25" text-anchor="middle">10</text>
  <text x="74.18" y="62.25" text-anchor="middle">5</text>
  <text x="54.17" y="62.25" text-anchor="middle">0</text>
  <text x="34.15" y="62.25" text-anchor="middle">-5</text>
  <text x="14.14" y="62.25" text-anchor="middle">-10</text>
</g>
<g stroke="none" fill="#362A35" font-family="Source Sans Pro" font-size="3.88">
  <text x="54.17" y="69.2" text-anchor="middle">x</text>
</g>
<g stroke="none" fill="#4C404B" font-family="Source Sans Pro" font-size="3.18">
  <text x="10.73" y="46.66" text-anchor="end" style="dominant-baseline:central">100</text>
  <text x="10.73" y="26.58" text-anchor="end" style="dominant-baseline:central">300</text>
  <text x="10.73" y="56.7" text-anchor="end" style="dominant-baseline:central">0</text>
  <text x="10.73" y="36.62" text-anchor="end" style="dominant-baseline:central">200</text>
  <text x="10.73" y="6.51" text-anchor="end" style="dominant-baseline:central">500</text>
  <text x="10.73" y="16.54" text-anchor="end" style="dominant-baseline:central">400</text>
</g>
</svg>
