<?xml version="1.0" encoding="UTF-8"?>
<svg xmlns="http://www.w3.org/2000/svg" xmlns:xlink="http://www.w3.org/1999/xlink" version="1.1" width="101.6mm" height="101.6mm" viewBox="0 0 101.6 101.6" style="stroke:black;fill:black" stroke-width="0.5">
<g>
  <g stroke="none" font-family="PT Sans,Helvetica Neue,Helvetica,sans" font-size="3.18" fill="#4C404B">
    <text x="16.29" y="7.24" text-anchor="end" style="dominant-baseline:central">9</text>
    <text x="16.29" y="52.13" text-anchor="end" style="dominant-baseline:central">6</text>
    <text x="16.29" y="67.1" text-anchor="end" style="dominant-baseline:central">5</text>
    <text x="16.29" y="82.06" text-anchor="end" style="dominant-baseline:central">4</text>
    <text x="16.29" y="37.17" text-anchor="end" style="dominant-baseline:central">7</text>
    <text x="16.29" y="22.21" text-anchor="end" style="dominant-baseline:central">8</text>
  </g>
  <g stroke="none" font-family="PT Sans,Helvetica Neue,Helvetica,sans" font-size="3.88" fill="#362A35">
    <text x="9.28" y="44.65" text-anchor="middle" style="dominant-baseline:central" transform="rotate(-90, 9.28, 44.65)">lwage</text>
  </g>
  <g stroke="none" font-family="PT Sans,Helvetica Neue,Helvetica,sans" font-size="3.18" fill="#4C404B">
    <text x="25.79" y="88.04" text-anchor="middle">5</text>
    <text x="37.12" y="88.04" text-anchor="middle">7</text>
    <text x="31.46" y="88.04" text-anchor="middle">6</text>
    <text x="65.44" y="88.04" text-anchor="middle">12</text>
    <text x="48.45" y="88.04" text-anchor="middle">9</text>
    <text x="59.78" y="88.04" text-anchor="middle">11</text>
    <text x="42.79" y="88.04" text-anchor="middle">8</text>
    <text x="82.44" y="88.04" text-anchor="middle">15</text>
    <text x="20.13" y="88.04" text-anchor="middle">4</text>
    <text x="76.77" y="88.04" text-anchor="middle">14</text>
    <text x="93.77" y="88.04" text-anchor="middle">17</text>
    <text x="54.11" y="88.04" text-anchor="middle">10</text>
    <text x="88.1" y="88.04" text-anchor="middle">16</text>
    <text x="71.11" y="88.04" text-anchor="middle">13</text>
  </g>
  <g stroke="none" font-family="PT Sans,Helvetica Neue,Helvetica,sans" font-size="3.88" fill="#362A35">
    <text x="56.95" y="94.6" text-anchor="middle">ed</text>
  </g>
  <g stroke="#FFFFFF" fill="#FFFFFF">
    <path d="M 17.29 5 L 96.6 5 96.6 84.3 17.29 84.3 z" />
  </g>
  <g stroke-width="0.3" stroke="#F5F5F5">
    <path d="M17.29,7.24 L 96.6 7.24" />
    <path d="M17.29,52.13 L 96.6 52.13" />
    <path d="M17.29,67.1 L 96.6 67.1" />
    <path d="M17.29,82.06 L 96.6 82.06" />
    <path d="M17.29,37.17 L 96.6 37.17" />
    <path d="M17.29,22.21 L 96.6 22.21" />
  </g>
  <g stroke-width="0.3" stroke="#F5F5F5">
    <path d="M28.62,5 L 28.62 84.3" />
    <path d="M79.61,5 L 79.61 84.3" />
    <path d="M34.29,5 L 34.29 84.3" />
    <path d="M22.96,5 L 22.96 84.3" />
    <path d="M68.28,5 L 68.28 84.3" />
    <path d="M45.62,5 L 45.62 84.3" />
    <path d="M90.94,5 L 90.94 84.3" />
    <path d="M85.27,5 L 85.27 84.3" />
    <path d="M56.95,5 L 56.95 84.3" />
    <path d="M62.61,5 L 62.61 84.3" />
    <path d="M51.28,5 L 51.28 84.3" />
    <path d="M73.94,5 L 73.94 84.3" />
    <path d="M39.95,5 L 39.95 84.3" />
  </g>
  <g class="geometry">
    <g stroke="#0F5D8C" fill="#4682B4">
      <circle cx="20.13" cy="60.87" r="0.5" />
    </g>
    <g stroke-width="0.4" stroke="#0F5D8C">
      <path d="M19.18,40.87 L 21.07 40.87" />
    </g>
    <g stroke-width="0.4" stroke="#0F5D8C">
      <path d="M19.18,60.33 L 21.07 60.33" />
    </g>
    <g stroke-width="0.4" stroke="#0F5D8C">
      <path d="M20.13,48.16 L 20.13 40.87" />
    </g>
    <g stroke-width="0.4" stroke="#0F5D8C">
      <path d="M20.13,53.03 L 20.13 60.33" />
    </g>
    <g stroke-width="0.3" stroke="#0F5D8C" fill="#4682B4">
      <path d="M 17.79 53.03 L 22.46 53.03 22.46 48.16 17.79 48.16 z" />
    </g>
    <g stroke="#0F5D8C" fill="#4682B4">
      <circle cx="93.77" cy="23.41" r="0.5" />
      <circle cx="93.77" cy="20.91" r="0.5" />
      <circle cx="93.77" cy="18.77" r="0.5" />
      <circle cx="93.77" cy="20.4" r="0.5" />
      <circle cx="93.77" cy="14.17" r="0.5" />
      <circle cx="93.77" cy="19.81" r="0.5" />
      <circle cx="93.77" cy="17.6" r="0.5" />
      <circle cx="93.77" cy="23.41" r="0.5" />
      <circle cx="93.77" cy="56.52" r="0.5" />
      <circle cx="93.77" cy="19.81" r="0.5" />
      <circle cx="93.77" cy="22.11" r="0.5" />
      <circle cx="93.77" cy="21.38" r="0.5" />
      <circle cx="93.77" cy="23.02" r="0.5" />
      <circle cx="93.77" cy="22.46" r="0.5" />
      <circle cx="93.77" cy="60.87" r="0.5" />
      <circle cx="93.77" cy="59.9" r="0.5" />
      <circle cx="93.77" cy="66.84" r="0.5" />
      <circle cx="93.77" cy="52.3" r="0.5" />
    </g>
    <g stroke-width="0.4" stroke="#0F5D8C">
      <path d="M92.82,23.43 L 94.71 23.43" />
    </g>
    <g stroke-width="0.4" stroke="#0F5D8C">
      <path d="M92.82,51.6 L 94.71 51.6" />
    </g>
    <g stroke-width="0.4" stroke="#0F5D8C">
      <path d="M93.77,33.99 L 93.77 23.43" />
    </g>
    <g stroke-width="0.4" stroke="#0F5D8C">
      <path d="M93.77,41.03 L 93.77 51.6" />
    </g>
    <g stroke-width="0.3" stroke="#0F5D8C" fill="#4682B4">
      <path d="M 91.44 41.03 L 96.1 41.03 96.1 33.99 91.44 33.99 z" />
    </g>
    <g stroke="#0F5D8C" fill="#4682B4">
      <circle cx="71.11" cy="60.87" r="0.5" />
      <circle cx="71.11" cy="64.63" r="0.5" />
      <circle cx="71.11" cy="24.11" r="0.5" />
      <circle cx="71.11" cy="14.47" r="0.5" />
    </g>
    <g stroke-width="0.4" stroke="#0F5D8C">
      <path d="M70.16,26.08 L 72.05 26.08" />
    </g>
    <g stroke-width="0.4" stroke="#0F5D8C">
      <path d="M70.16,60.35 L 72.05 60.35" />
    </g>
    <g stroke-width="0.4" stroke="#0F5D8C">
      <path d="M71.11,38.93 L 71.11 26.08" />
    </g>
    <g stroke-width="0.4" stroke="#0F5D8C">
      <path d="M71.11,47.5 L 71.11 60.35" />
    </g>
    <g stroke-width="0.3" stroke="#0F5D8C" fill="#4682B4">
      <path d="M 68.78 47.5 L 73.44 47.5 73.44 38.93 68.78 38.93 z" />
    </g>
    <g stroke="#0F5D8C" fill="#4682B4">
      <circle cx="76.77" cy="24.25" r="0.5" />
      <circle cx="76.77" cy="56.57" r="0.5" />
    </g>
    <g stroke-width="0.4" stroke="#0F5D8C">
      <path d="M75.83,26.01 L 77.72 26.01" />
    </g>
    <g stroke-width="0.4" stroke="#0F5D8C">
      <path d="M75.83,56.08 L 77.72 56.08" />
    </g>
    <g stroke-width="0.4" stroke="#0F5D8C">
      <path d="M76.77,37.28 L 76.77 26.01" />
    </g>
    <g stroke-width="0.4" stroke="#0F5D8C">
      <path d="M76.77,44.8 L 76.77 56.08" />
    </g>
    <g stroke-width="0.3" stroke="#0F5D8C" fill="#4682B4">
      <path d="M 74.44 44.8 L 79.11 44.8 79.11 37.28 74.44 37.28 z" />
    </g>
    <g stroke-width="0.4" stroke="#0F5D8C">
      <path d="M81.49,22.69 L 83.38 22.69" />
    </g>
    <g stroke-width="0.4" stroke="#0F5D8C">
      <path d="M81.49,54.51 L 83.38 54.51" />
    </g>
    <g stroke-width="0.4" stroke="#0F5D8C">
      <path d="M82.44,34.62 L 82.44 22.69" />
    </g>
    <g stroke-width="0.4" stroke="#0F5D8C">
      <path d="M82.44,42.58 L 82.44 54.51" />
    </g>
    <g stroke-width="0.3" stroke="#0F5D8C" fill="#4682B4">
      <path d="M 80.11 42.58 L 84.77 42.58 84.77 34.62 80.11 34.62 z" />
    </g>
    <g stroke-width="0.4" stroke="#0F5D8C">
      <path d="M30.51,37.15 L 32.4 37.15" />
    </g>
    <g stroke-width="0.4" stroke="#0F5D8C">
      <path d="M30.51,54.39 L 32.4 54.39" />
    </g>
    <g stroke-width="0.4" stroke="#0F5D8C">
      <path d="M31.46,43.62 L 31.46 37.15" />
    </g>
    <g stroke-width="0.4" stroke="#0F5D8C">
      <path d="M31.46,47.92 L 31.46 54.39" />
    </g>
    <g stroke-width="0.3" stroke="#0F5D8C" fill="#4682B4">
      <path d="M 29.12 47.92 L 33.79 47.92 33.79 43.62 29.12 43.62 z" />
    </g>
    <g stroke="#0F5D8C" fill="#4682B4">
      <circle cx="88.1" cy="60.54" r="0.5" />
    </g>
    <g stroke-width="0.4" stroke="#0F5D8C">
      <path d="M87.16,19.77 L 89.05 19.77" />
    </g>
    <g stroke-width="0.4" stroke="#0F5D8C">
      <path d="M87.16,57.94 L 89.05 57.94" />
    </g>
    <g stroke-width="0.4" stroke="#0F5D8C">
      <path d="M88.1,34.08 L 88.1 19.77" />
    </g>
    <g stroke-width="0.4" stroke="#0F5D8C">
      <path d="M88.1,43.63 L 88.1 57.94" />
    </g>
    <g stroke-width="0.3" stroke="#0F5D8C" fill="#4682B4">
      <path d="M 85.77 43.63 L 90.44 43.63 90.44 34.08 85.77 34.08 z" />
    </g>
    <g stroke-width="0.4" stroke="#0F5D8C">
      <path d="M24.85,19.06 L 26.74 19.06" />
    </g>
    <g stroke-width="0.4" stroke="#0F5D8C">
      <path d="M24.85,69.79 L 26.74 69.79" />
    </g>
    <g stroke-width="0.4" stroke="#0F5D8C">
      <path d="M25.79,38.08 L 25.79 19.06" />
    </g>
    <g stroke-width="0.4" stroke="#0F5D8C">
      <path d="M25.79,50.77 L 25.79 69.79" />
    </g>
    <g stroke-width="0.3" stroke="#0F5D8C" fill="#4682B4">
      <path d="M 23.46 50.77 L 28.12 50.77 28.12 38.08 23.46 38.08 z" />
    </g>
    <g stroke-width="0.4" stroke="#0F5D8C">
      <path d="M36.18,31.06 L 38.06 31.06" />
    </g>
    <g stroke-width="0.4" stroke="#0F5D8C">
      <path d="M36.18,64.98 L 38.06 64.98" />
    </g>
    <g stroke-width="0.4" stroke="#0F5D8C">
      <path d="M37.12,43.78 L 37.12 31.06" />
    </g>
    <g stroke-width="0.4" stroke="#0F5D8C">
      <path d="M37.12,52.26 L 37.12 64.98" />
    </g>
    <g stroke-width="0.3" stroke="#0F5D8C" fill="#4682B4">
      <path d="M 34.79 52.26 L 39.45 52.26 39.45 43.78 34.79 43.78 z" />
    </g>
    <g stroke="#0F5D8C" fill="#4682B4">
      <circle cx="59.78" cy="21.5" r="0.5" />
    </g>
    <g stroke-width="0.4" stroke="#0F5D8C">
      <path d="M58.84,25.87 L 60.72 25.87" />
    </g>
    <g stroke-width="0.4" stroke="#0F5D8C">
      <path d="M58.84,62.28 L 60.72 62.28" />
    </g>
    <g stroke-width="0.4" stroke="#0F5D8C">
      <path d="M59.78,39.52 L 59.78 25.87" />
    </g>
    <g stroke-width="0.4" stroke="#0F5D8C">
      <path d="M59.78,48.63 L 59.78 62.28" />
    </g>
    <g stroke-width="0.3" stroke="#0F5D8C" fill="#4682B4">
      <path d="M 57.45 48.63 L 62.11 48.63 62.11 39.52 57.45 39.52 z" />
    </g>
    <g stroke="#0F5D8C" fill="#4682B4">
      <circle cx="48.45" cy="73" r="0.5" />
      <circle cx="48.45" cy="65.88" r="0.5" />
    </g>
    <g stroke-width="0.4" stroke="#0F5D8C">
      <path d="M47.51,23.38 L 49.39 23.38" />
    </g>
    <g stroke-width="0.4" stroke="#0F5D8C">
      <path d="M47.51,65.74 L 49.39 65.74" />
    </g>
    <g stroke-width="0.4" stroke="#0F5D8C">
      <path d="M48.45,39.27 L 48.45 23.38" />
    </g>
    <g stroke-width="0.4" stroke="#0F5D8C">
      <path d="M48.45,49.86 L 48.45 65.74" />
    </g>
    <g stroke-width="0.3" stroke="#0F5D8C" fill="#4682B4">
      <path d="M 46.12 49.86 L 50.78 49.86 50.78 39.27 46.12 39.27 z" />
    </g>
    <g stroke="#0F5D8C" fill="#4682B4">
      <circle cx="65.44" cy="60.54" r="0.5" />
      <circle cx="65.44" cy="59.29" r="0.5" />
      <circle cx="65.44" cy="59.29" r="0.5" />
      <circle cx="65.44" cy="59.6" r="0.5" />
      <circle cx="65.44" cy="59.6" r="0.5" />
      <circle cx="65.44" cy="18.19" r="0.5" />
    </g>
    <g stroke-width="0.4" stroke="#0F5D8C">
      <path d="M64.5,26.85 L 66.39 26.85" />
    </g>
    <g stroke-width="0.4" stroke="#0F5D8C">
      <path d="M64.5,58.82 L 66.39 58.82" />
    </g>
    <g stroke-width="0.4" stroke="#0F5D8C">
      <path d="M65.44,38.84 L 65.44 26.85" />
    </g>
    <g stroke-width="0.4" stroke="#0F5D8C">
      <path d="M65.44,46.83 L 65.44 58.82" />
    </g>
    <g stroke-width="0.3" stroke="#0F5D8C" fill="#4682B4">
      <path d="M 63.11 46.83 L 67.78 46.83 67.78 38.84 63.11 38.84 z" />
    </g>
    <g stroke="#0F5D8C" fill="#4682B4">
      <circle cx="54.11" cy="66.94" r="0.5" />
      <circle cx="54.11" cy="66.94" r="0.5" />
    </g>
    <g stroke-width="0.4" stroke="#0F5D8C">
      <path d="M53.17,26.73 L 55.06 26.73" />
    </g>
    <g stroke-width="0.4" stroke="#0F5D8C">
      <path d="M53.17,62.24 L 55.06 62.24" />
    </g>
    <g stroke-width="0.4" stroke="#0F5D8C">
      <path d="M54.11,40.04 L 54.11 26.73" />
    </g>
    <g stroke-width="0.4" stroke="#0F5D8C">
      <path d="M54.11,48.92 L 54.11 62.24" />
    </g>
    <g stroke-width="0.3" stroke="#0F5D8C" fill="#4682B4">
      <path d="M 51.78 48.92 L 56.45 48.92 56.45 40.04 51.78 40.04 z" />
    </g>
    <g stroke-width="0.4" stroke="#0F5D8C">
      <path d="M41.84,24.41 L 43.73 24.41" />
    </g>
    <g stroke-width="0.4" stroke="#0F5D8C">
      <path d="M41.84,66.97 L 43.73 66.97" />
    </g>
    <g stroke-width="0.4" stroke="#0F5D8C">
      <path d="M42.79,40.37 L 42.79 24.41" />
    </g>
    <g stroke-width="0.4" stroke="#0F5D8C">
      <path d="M42.79,51.01 L 42.79 66.97" />
    </g>
    <g stroke-width="0.3" stroke="#0F5D8C" fill="#4682B4">
      <path d="M 40.45 51.01 L 45.12 51.01 45.12 40.37 40.45 40.37 z" />
    </g>
    <g stroke-width="0.4" stroke="#B8EFFF">
      <path d="M19.18,51.11 L 21.07 51.11" />
    </g>
    <g stroke-width="0.4" stroke="#B8EFFF">
      <path d="M92.82,38.58 L 94.71 38.58" />
    </g>
    <g stroke-width="0.4" stroke="#B8EFFF">
      <path d="M70.16,42.89 L 72.05 42.89" />
    </g>
    <g stroke-width="0.4" stroke="#B8EFFF">
      <path d="M75.83,40.13 L 77.72 40.13" />
    </g>
    <g stroke-width="0.4" stroke="#B8EFFF">
      <path d="M81.49,38.9 L 83.38 38.9" />
    </g>
    <g stroke-width="0.4" stroke="#B8EFFF">
      <path d="M30.51,45.82 L 32.4 45.82" />
    </g>
    <g stroke-width="0.4" stroke="#B8EFFF">
      <path d="M87.16,38.58 L 89.05 38.58" />
    </g>
    <g stroke-width="0.4" stroke="#B8EFFF">
      <path d="M24.85,49.44 L 26.74 49.44" />
    </g>
    <g stroke-width="0.4" stroke="#B8EFFF">
      <path d="M36.18,48.83 L 38.06 48.83" />
    </g>
    <g stroke-width="0.4" stroke="#B8EFFF">
      <path d="M58.84,43.89 L 60.72 43.89" />
    </g>
    <g stroke-width="0.4" stroke="#B8EFFF">
      <path d="M47.51,44.27 L 49.39 44.27" />
    </g>
    <g stroke-width="0.4" stroke="#B8EFFF">
      <path d="M64.5,42.85 L 66.39 42.85" />
    </g>
    <g stroke-width="0.4" stroke="#B8EFFF">
      <path d="M53.17,43.71 L 55.06 43.71" />
    </g>
    <g stroke-width="0.4" stroke="#B8EFFF">
      <path d="M41.84,44.65 L 43.73 44.65" />
    </g>
  </g>
</g>
<script type="application/ecmascript"><![CDATA[

// Functions embedded in Gadfly plots to add interactivity.


// Clicking an entry in a color key toggles visibility of the data within that
// group.
function toggle_color_group(name)
{
    geoms = document.getElementsByClassName('color_group_' + name);
    entry = document.getElementById('color_key_' + name);
    state = geoms[0].getAttribute('visibility');
    if (!state || state == 'visible') {
        for (i = 0; i < geoms.length; ++i) {
            geoms[i].setAttribute('visibility', 'hidden');
        }
        entry.setAttribute('opacity', 0.5);
    } else {
        for (i = 0; i < geoms.length; ++i) {
            geoms[i].setAttribute('visibility', 'visible');
        }
        entry.setAttribute('opacity', 1.0);
    }
}


// Turn on a possibily hidden annotation.
function show_annotation(geom_id)
{
    annot_id = geom_id + "-annotation";
    annot = document.getElementById(annot_id);
    annot.setAttribute('visibility', 'visible');
    present_geometry([geom_id]);
}


// Turn off a possibly hidden annotation.
function hide_annotation(geom_id)
{
    annot_id = geom_id + "-annotation"
    annot = document.getElementById(annot_id)
    annot.setAttribute('visibility', 'hidden')
    unpresent_geometry();
}


// Dim all geometry objects with some exceptions.
function present_geometry(ids)
{
    on_anim_dur = 0.1;

    off_anim = document.getElementById('panel-focus-filter-off-anim');
    try {
        t0 = Number(off_anim.getStartTime());
    }
    catch (err) {
        t0 = Infinity;
    }
    off_anim.endElement();

    if (t0 < Infinity) {
        t = Number(off_anim.getCurrentTime());
        d = Number(off_anim.getSimpleDuration());
        from = Number(off_anim.getAttribute('from'));
        to = Number(off_anim.getAttribute('to'));
        p = Math.max(0.0, Math.min(1.0, ((t - t0) / d)));
        v = from + p * (to - from);
    }
    else {
        p=1.0;
        v=0.0;
    }

    geoms = document.getElementsByClassName('geometry');
    for (i = 0; i < geoms.length; ++i) {
        geoms[i].setAttribute('filter', 'url(#panel-focus-filter)');
    }

    for (i = 0; i < ids.length; ++i) {
        geom = document.getElementById(ids[i]);
        geom.setAttribute('filter', 'inherit');
    }

    on_anim = document.getElementById('panel-focus-filter-on-anim');
    on_anim.setAttribute('from', v);
    on_anim.setAttribute('dur',  p * on_anim_dur + 's');
    on_anim.beginElement();
}


// Set all geometries to full opacity.
function unpresent_geometry()
{
    off_anim_dur = 0.3;

    on_anim = document.getElementById('panel-focus-filter-on-anim');
    try {
        t0 = Number(on_anim.getStartTime());
        t = Number(on_anim.getCurrentTime());
        d = Number(on_anim.getSimpleDuration());
        p = Math.max(0.0, Math.min(1.0, ((t - t0) / d)));
    }
    catch (err) {
        p = 1.0;
    }
    on_anim.endElement();

    from = Number(on_anim.getAttribute('from'));
    to = Number(on_anim.getAttribute('to'));
    v = from + p * (to - from);

    off_anim = document.getElementById('panel-focus-filter-off-anim');
    off_anim.setAttribute('from', v);
    dur = p * off_anim_dur
    off_anim.setAttribute('dur',  dur + 's');
    off_anim.addEventListener('endEvent', unpresent_geometry_end);
    off_anim.beginElement();

    // Webkit doesn't support the "onend" attribute, so we work arround.
    setTimeout("unpresent_geometry_end()", 1000 * dur);
}


// Called when the animation in unpresent_geometry finishes.
// Enabling a filter, even if it has no effect, adds an extra layer of
// rasterization, which tends to make things look like shit, so we clear all the
// filters when the animation ends.
function unpresent_geometry_end()
{
    // skip this function in the on_animation has been triggered since the last
    // off_animation.
    on_anim = document.getElementById('panel-focus-filter-on-anim');
    off_anim = document.getElementById('panel-focus-filter-off-anim');
    if (on_anim.getStartTime() > off_anim.getStartTime()) {
        return;
    }

    // Skip this if the off animation isn't actually finished.
    elapsed = off_anim.getCurrentTime() - off_anim.getStartTime()
    if (elapsed < off_anim.getSimpleDuration()) {
        return;
    }

    geoms = document.getElementsByClassName('geometry');
    for (i = 0; i < geoms.length; ++i) {
        geoms[i].setAttribute('filter', 'inherit');
    }
}


]]></script>
<defs>
    <!--A filter used to deemphasize out of focus geometries for mouseover
       -effects.-->
    <!-- TODO: flood-color needs to be set from the current theme -->
    <filter id="panel-focus-filter" x="-20%" y="-20%" width="140%" height="140%">
        <feFlood flood-color="#f5f5f5" flood-opacity="0.5" result="flood">
            <animate id="panel-focus-filter-off-anim"
                      attributeName="flood-opacity" attributeType="XML"
                      fill="freeze" begin="indefinite" dur="0.2s"
                      from="0.8" to="0.0" onend="unpresent_geometry_end"/>
            <animate id="panel-focus-filter-on-anim"
                      attributeName="flood-opacity" attributeType="XML"
                      fill="freeze" begin="indefinite" dur="0.1s"
                      from="0.0" to="0.8" onend="unpresent_geometry_end"/>
        </feFlood>
        <feComposite operator="atop" in="flood" in2="SourceGraphic" />
    </filter>
</defs>

</svg>
