<?xml version="1.0" encoding="UTF-8"?>
<svg xmlns="http://www.w3.org/2000/svg" xmlns:xlink="http://www.w3.org/1999/xlink" version="1.1" width="152.4mm" height="101.6mm" viewBox="0 0 152.4 101.6" style="stroke:black;fill:black" stroke-width="0.5">
<g stroke="#F2F2F2" fill="#F5F5F5">
  <path d="M 19.89 5 L 127.27 5 127.27 83.6 19.89 83.6 z" />
  <g stroke="#FFFFFF" stroke-width="0.3">
    <path d="M98.91,5 L 98.91 83.6" />
    <path d="M22.93,5 L 22.93 83.6" />
    <path d="M48.26,5 L 48.26 83.6" />
    <path d="M73.58,5 L 73.58 83.6" />
    <path d="M124.23,5 L 124.23 83.6" />
  </g>
  <g stroke="#FFFFFF" stroke-width="0.3">
    <path d="M19.89,51.72 L 127.27 51.72" />
    <path d="M19.89,36.89 L 127.27 36.89" />
    <path d="M19.89,22.06 L 127.27 22.06" />
    <path d="M19.89,81.38 L 127.27 81.38" />
    <path d="M19.89,66.55 L 127.27 66.55" />
    <path d="M19.89,7.22 L 127.27 7.22" />
  </g>
</g>
<g stroke="none" stroke-width="0.3">
  <g fill="#96B752" stroke="#6D8E2C" class="color_group_versicolor">
    <circle cx="98.91" cy="45.79" r="0.5" />
    <circle cx="83.71" cy="45.79" r="0.5" />
    <circle cx="96.37" cy="48.75" r="0.5" />
    <circle cx="60.92" cy="72.48" r="0.5" />
    <circle cx="86.24" cy="57.65" r="0.5" />
    <circle cx="65.99" cy="57.65" r="0.5" />
    <circle cx="81.18" cy="42.82" r="0.5" />
    <circle cx="45.73" cy="69.51" r="0.5" />
    <circle cx="88.78" cy="54.68" r="0.5" />
    <circle cx="53.32" cy="60.62" r="0.5" />
    <circle cx="48.26" cy="81.38" r="0.5" />
    <circle cx="71.05" cy="51.72" r="0.5" />
    <circle cx="73.58" cy="75.45" r="0.5" />
    <circle cx="76.12" cy="54.68" r="0.5" />
    <circle cx="63.45" cy="54.68" r="0.5" />
    <circle cx="91.31" cy="48.75" r="0.5" />
    <circle cx="63.45" cy="51.72" r="0.5" />
    <circle cx="68.52" cy="60.62" r="0.5" />
    <circle cx="78.65" cy="75.45" r="0.5" />
    <circle cx="63.45" cy="66.55" r="0.5" />
    <circle cx="71.05" cy="45.79" r="0.5" />
    <circle cx="76.12" cy="57.65" r="0.5" />
    <circle cx="81.18" cy="66.55" r="0.5" />
    <circle cx="76.12" cy="57.65" r="0.5" />
    <circle cx="83.71" cy="54.68" r="0.5" />
    <circle cx="88.78" cy="51.72" r="0.5" />
    <circle cx="93.84" cy="57.65" r="0.5" />
    <circle cx="91.31" cy="51.72" r="0.5" />
    <circle cx="73.58" cy="54.68" r="0.5" />
    <circle cx="65.99" cy="63.58" r="0.5" />
    <circle cx="60.92" cy="69.51" r="0.5" />
    <circle cx="60.92" cy="69.51" r="0.5" />
    <circle cx="68.52" cy="60.62" r="0.5" />
    <circle cx="73.58" cy="60.62" r="0.5" />
    <circle cx="58.39" cy="51.72" r="0.5" />
    <circle cx="73.58" cy="39.85" r="0.5" />
    <circle cx="91.31" cy="48.75" r="0.5" />
    <circle cx="81.18" cy="72.48" r="0.5" />
    <circle cx="63.45" cy="51.72" r="0.5" />
    <circle cx="60.92" cy="66.55" r="0.5" />
    <circle cx="60.92" cy="63.58" r="0.5" />
    <circle cx="76.12" cy="51.72" r="0.5" />
    <circle cx="68.52" cy="63.58" r="0.5" />
    <circle cx="48.26" cy="72.48" r="0.5" />
    <circle cx="63.45" cy="60.62" r="0.5" />
    <circle cx="65.99" cy="51.72" r="0.5" />
    <circle cx="65.99" cy="54.68" r="0.5" />
    <circle cx="78.65" cy="54.68" r="0.5" />
    <circle cx="50.79" cy="66.55" r="0.5" />
    <circle cx="65.99" cy="57.65" r="0.5" />
  </g>
  <g fill="#00BDFF" stroke="#0094D4" class="color_group_virginica">
    <circle cx="81.18" cy="42.82" r="0.5" />
    <circle cx="68.52" cy="60.62" r="0.5" />
    <circle cx="101.44" cy="51.72" r="0.5" />
    <circle cx="81.18" cy="54.68" r="0.5" />
    <circle cx="86.24" cy="51.72" r="0.5" />
    <circle cx="114.1" cy="51.72" r="0.5" />
    <circle cx="45.73" cy="66.55" r="0.5" />
    <circle cx="106.5" cy="54.68" r="0.5" />
    <circle cx="91.31" cy="66.55" r="0.5" />
    <circle cx="103.97" cy="33.92" r="0.5" />
    <circle cx="86.24" cy="45.79" r="0.5" />
    <circle cx="83.71" cy="60.62" r="0.5" />
    <circle cx="93.84" cy="51.72" r="0.5" />
    <circle cx="65.99" cy="66.55" r="0.5" />
    <circle cx="68.52" cy="57.65" r="0.5" />
    <circle cx="83.71" cy="45.79" r="0.5" />
    <circle cx="86.24" cy="51.72" r="0.5" />
    <circle cx="116.63" cy="27.99" r="0.5" />
    <circle cx="116.63" cy="63.58" r="0.5" />
    <circle cx="73.58" cy="75.45" r="0.5" />
    <circle cx="96.37" cy="45.79" r="0.5" />
    <circle cx="63.45" cy="57.65" r="0.5" />
    <circle cx="116.63" cy="57.65" r="0.5" />
    <circle cx="81.18" cy="60.62" r="0.5" />
    <circle cx="91.31" cy="42.82" r="0.5" />
    <circle cx="103.97" cy="45.79" r="0.5" />
    <circle cx="78.65" cy="57.65" r="0.5" />
    <circle cx="76.12" cy="51.72" r="0.5" />
    <circle cx="83.71" cy="57.65" r="0.5" />
    <circle cx="103.97" cy="51.72" r="0.5" />
    <circle cx="109.04" cy="57.65" r="0.5" />
    <circle cx="121.7" cy="27.99" r="0.5" />
    <circle cx="83.71" cy="57.65" r="0.5" />
    <circle cx="81.18" cy="57.65" r="0.5" />
    <circle cx="76.12" cy="63.58" r="0.5" />
    <circle cx="116.63" cy="51.72" r="0.5" />
    <circle cx="81.18" cy="39.85" r="0.5" />
    <circle cx="83.71" cy="48.75" r="0.5" />
    <circle cx="73.58" cy="51.72" r="0.5" />
    <circle cx="96.37" cy="48.75" r="0.5" />
    <circle cx="91.31" cy="48.75" r="0.5" />
    <circle cx="96.37" cy="48.75" r="0.5" />
    <circle cx="68.52" cy="60.62" r="0.5" />
    <circle cx="93.84" cy="45.79" r="0.5" />
    <circle cx="91.31" cy="42.82" r="0.5" />
    <circle cx="91.31" cy="51.72" r="0.5" />
    <circle cx="81.18" cy="66.55" r="0.5" />
    <circle cx="86.24" cy="51.72" r="0.5" />
    <circle cx="78.65" cy="39.85" r="0.5" />
    <circle cx="71.05" cy="51.72" r="0.5" />
  </g>
  <g fill="#FF81AD" stroke="#D65886" class="color_group_setosa">
    <circle cx="50.79" cy="36.89" r="0.5" />
    <circle cx="45.73" cy="51.72" r="0.5" />
    <circle cx="40.66" cy="45.79" r="0.5" />
    <circle cx="38.13" cy="48.75" r="0.5" />
    <circle cx="48.26" cy="33.92" r="0.5" />
    <circle cx="58.39" cy="25.02" r="0.5" />
    <circle cx="38.13" cy="39.85" r="0.5" />
    <circle cx="48.26" cy="39.85" r="0.5" />
    <circle cx="33.06" cy="54.68" r="0.5" />
    <circle cx="45.73" cy="48.75" r="0.5" />
    <circle cx="58.39" cy="30.95" r="0.5" />
    <circle cx="43.19" cy="39.85" r="0.5" />
    <circle cx="43.19" cy="51.72" r="0.5" />
    <circle cx="30.53" cy="51.72" r="0.5" />
    <circle cx="68.52" cy="22.06" r="0.5" />
    <circle cx="65.99" cy="10.19" r="0.5" />
    <circle cx="58.39" cy="25.02" r="0.5" />
    <circle cx="50.79" cy="36.89" r="0.5" />
    <circle cx="65.99" cy="27.99" r="0.5" />
    <circle cx="50.79" cy="27.99" r="0.5" />
    <circle cx="58.39" cy="39.85" r="0.5" />
    <circle cx="50.79" cy="30.95" r="0.5" />
    <circle cx="38.13" cy="33.92" r="0.5" />
    <circle cx="50.79" cy="42.82" r="0.5" />
    <circle cx="43.19" cy="39.85" r="0.5" />
    <circle cx="48.26" cy="51.72" r="0.5" />
    <circle cx="48.26" cy="39.85" r="0.5" />
    <circle cx="53.32" cy="36.89" r="0.5" />
    <circle cx="53.32" cy="39.85" r="0.5" />
    <circle cx="40.66" cy="45.79" r="0.5" />
    <circle cx="43.19" cy="48.75" r="0.5" />
    <circle cx="58.39" cy="39.85" r="0.5" />
    <circle cx="53.32" cy="19.09" r="0.5" />
    <circle cx="60.92" cy="16.12" r="0.5" />
    <circle cx="45.73" cy="48.75" r="0.5" />
    <circle cx="48.26" cy="45.79" r="0.5" />
    <circle cx="60.92" cy="36.89" r="0.5" />
    <circle cx="45.73" cy="33.92" r="0.5" />
    <circle cx="33.06" cy="51.72" r="0.5" />
    <circle cx="50.79" cy="39.85" r="0.5" />
    <circle cx="48.26" cy="36.89" r="0.5" />
    <circle cx="35.6" cy="72.48" r="0.5" />
    <circle cx="33.06" cy="45.79" r="0.5" />
    <circle cx="48.26" cy="36.89" r="0.5" />
    <circle cx="50.79" cy="27.99" r="0.5" />
    <circle cx="43.19" cy="51.72" r="0.5" />
    <circle cx="50.79" cy="27.99" r="0.5" />
    <circle cx="38.13" cy="45.79" r="0.5" />
    <circle cx="55.86" cy="30.95" r="0.5" />
    <circle cx="48.26" cy="42.82" r="0.5" />
  </g>
</g>
<g font-family="Source Sans Pro" font-size="3.18">
  <a xlink:href="#"><g onclick="js_chunk_79b6c652c55ee3eb(evt)" id="color_key_versicolor">
    <g fill="#96B752" stroke="#6D8E2C" stroke-width="0.3">
      <path d="M 129.27 47.25 L 133.32 47.25 133.32 51.3 129.27 51.3 z" />
    </g>
    <g stroke="none" fill="#4C404B">
      <text x="134.32" y="49.28" style="dominant-baseline:central">versicolor</text>
    </g>
  </g></a>
  <a xlink:href="#"><g onclick="js_chunk_a9515961249419d3(evt)" id="color_key_setosa">
    <g fill="#FF81AD" stroke="#D65886" stroke-width="0.3">
      <path d="M 129.27 42.2 L 133.32 42.2 133.32 46.25 129.27 46.25 z" />
    </g>
    <g stroke="none" fill="#4C404B">
      <text x="134.32" y="44.23" style="dominant-baseline:central">setosa</text>
    </g>
  </g></a>
  <a xlink:href="#"><g onclick="js_chunk_31fcffdeb5eb5f48(evt)" id="color_key_virginica">
    <g fill="#00BDFF" stroke="#0094D4" stroke-width="0.3">
      <path d="M 129.27 52.3 L 133.32 52.3 133.32 56.35 129.27 56.35 z" />
    </g>
    <g stroke="none" fill="#4C404B">
      <text x="134.32" y="54.32" style="dominant-baseline:central">virginica</text>
    </g>
  </g></a>
</g>
<g stroke="none" fill="#362A35" font-family="Source Sans Pro" font-size="3.88">
  <text x="137.34" y="40.2" text-anchor="middle">Species</text>
</g>
<g stroke="none" fill="#4C404B" font-family="Source Sans Pro" font-size="3.18">
  <text x="98.91" y="87.65" text-anchor="middle">7</text>
  <text x="22.93" y="87.65" text-anchor="middle">4</text>
  <text x="48.26" y="87.65" text-anchor="middle">5</text>
  <text x="73.58" y="87.65" text-anchor="middle">6</text>
  <text x="124.23" y="87.65" text-anchor="middle">8</text>
</g>
<g stroke="none" fill="#362A35" font-family="Source Sans Pro" font-size="3.88">
  <text x="73.58" y="94.6" text-anchor="middle">Sepal.Length</text>
</g>
<g stroke="none" fill="#362A35" font-family="Source Sans Pro" font-size="3.88">
  <text x="9.47" y="44.3" text-anchor="middle" style="dominant-baseline:central" transform="rotate(-90, 9.47, 44.3)">Sepal.Width</text>
</g>
<g stroke="none" fill="#4C404B" font-family="Source Sans Pro" font-size="3.18">
  <text x="18.89" y="51.72" text-anchor="end" style="dominant-baseline:central">3</text>
  <text x="18.89" y="36.89" text-anchor="end" style="dominant-baseline:central">3.5</text>
  <text x="18.89" y="22.06" text-anchor="end" style="dominant-baseline:central">4</text>
  <text x="18.89" y="81.38" text-anchor="end" style="dominant-baseline:central">2</text>
  <text x="18.89" y="66.55" text-anchor="end" style="dominant-baseline:central">2.5</text>
  <text x="18.89" y="7.22" text-anchor="end" style="dominant-baseline:central">4.5</text>
</g>
<script type="application/ecmascript"><![CDATA[
function js_chunk_a9515961249419d3(evt) {
  geoms = document.getElementsByClassName('color_group_setosa');
                        entry = document.getElementById('color_key_setosa');
                        state = geoms[0].getAttribute('visibility');
                        if (!state || state == 'visible') {
                            for (i = 0; i < geoms.length; ++i) {
                                geoms[i].setAttribute('visibility', 'hidden');
                            }
                            entry.setAttribute('opacity', 0.5);
                        } else {
                            for (i = 0; i < geoms.length; ++i) {
                                geoms[i].setAttribute('visibility', 'visible');
                            }
                            entry.setAttribute('opacity', 1.0);
                        }
}

function js_chunk_79b6c652c55ee3eb(evt) {
  geoms = document.getElementsByClassName('color_group_versicolor');
                        entry = document.getElementById('color_key_versicolor');
                        state = geoms[0].getAttribute('visibility');
                        if (!state || state == 'visible') {
                            for (i = 0; i < geoms.length; ++i) {
                                geoms[i].setAttribute('visibility', 'hidden');
                            }
                            entry.setAttribute('opacity', 0.5);
                        } else {
                            for (i = 0; i < geoms.length; ++i) {
                                geoms[i].setAttribute('visibility', 'visible');
                            }
                            entry.setAttribute('opacity', 1.0);
                        }
}

function js_chunk_31fcffdeb5eb5f48(evt) {
  geoms = document.getElementsByClassName('color_group_virginica');
                        entry = document.getElementById('color_key_virginica');
                        state = geoms[0].getAttribute('visibility');
                        if (!state || state == 'visible') {
                            for (i = 0; i < geoms.length; ++i) {
                                geoms[i].setAttribute('visibility', 'hidden');
                            }
                            entry.setAttribute('opacity', 0.5);
                        } else {
                            for (i = 0; i < geoms.length; ++i) {
                                geoms[i].setAttribute('visibility', 'visible');
                            }
                            entry.setAttribute('opacity', 1.0);
                        }
}

]]></script></svg>
