<?xml version="1.0" encoding="UTF-8"?>
<svg xmlns="http://www.w3.org/2000/svg" xmlns:xlink="http://www.w3.org/1999/xlink" version="1.1" width="152.4mm" height="152.4mm" viewBox="0 0 152.4 152.4" style="stroke:black;fill:black" stroke-width="0.5">
<g>
  <g stroke="none" font-family="PT Sans,Helvetica Neue,Helvetica,sans" font-size="3.18" fill="#4C404B">
    <text x="20.42" y="32.96" text-anchor="end" style="dominant-baseline:central">10<tspan baseline-shift="1.722548" font-size="83.333333%">3</tspan></text>
    <text x="20.42" y="130.21" text-anchor="end" style="dominant-baseline:central">10<tspan baseline-shift="1.722548" font-size="83.333333%">-1</tspan></text>
    <text x="20.42" y="105.9" text-anchor="end" style="dominant-baseline:central">10<tspan baseline-shift="1.722548" font-size="83.333333%">0</tspan></text>
    <text x="20.42" y="8.65" text-anchor="end" style="dominant-baseline:central">10<tspan baseline-shift="1.722548" font-size="83.333333%">4</tspan></text>
    <text x="20.42" y="57.27" text-anchor="end" style="dominant-baseline:central">10<tspan baseline-shift="1.722548" font-size="83.333333%">2</tspan></text>
    <text x="20.42" y="81.58" text-anchor="end" style="dominant-baseline:central">10<tspan baseline-shift="1.722548" font-size="83.333333%">1</tspan></text>
  </g>
  <g stroke="none" font-family="PT Sans,Helvetica Neue,Helvetica,sans" font-size="3.88" fill="#362A35">
    <text x="9.28" y="69.43" text-anchor="middle" style="dominant-baseline:central" transform="rotate(-90, 9.28, 69.43)">brain</text>
  </g>
  <g stroke="none" font-family="PT Sans,Helvetica Neue,Helvetica,sans" font-size="3.18" fill="#4C404B">
    <text x="54.7" y="138.84" text-anchor="middle">10<tspan baseline-shift="1.722548" font-size="83.333333%">-2</tspan></text>
    <text x="143.83" y="138.84" text-anchor="middle">10<tspan baseline-shift="1.722548" font-size="83.333333%">4</tspan></text>
    <text x="84.41" y="138.84" text-anchor="middle">10<tspan baseline-shift="1.722548" font-size="83.333333%">0</tspan></text>
    <text x="114.12" y="138.84" text-anchor="middle">10<tspan baseline-shift="1.722548" font-size="83.333333%">2</tspan></text>
    <text x="24.98" y="138.84" text-anchor="middle">10<tspan baseline-shift="1.722548" font-size="83.333333%">-4</tspan></text>
  </g>
  <g stroke="none" font-family="PT Sans,Helvetica Neue,Helvetica,sans" font-size="3.88" fill="#362A35">
    <text x="84.41" y="145.4" text-anchor="middle">body</text>
  </g>
  <g stroke="#FFFFFF" fill="#FFFFFF">
    <path d="M 21.42 5 L 147.4 5 147.4 133.86 21.42 133.86 z" />
  </g>
  <g stroke-width="0.3" stroke="#F5F5F5">
    <path d="M21.42,32.96 L 147.4 32.96" />
    <path d="M21.42,130.21 L 147.4 130.21" />
    <path d="M21.42,105.9 L 147.4 105.9" />
    <path d="M21.42,8.65 L 147.4 8.65" />
    <path d="M21.42,57.27 L 147.4 57.27" />
    <path d="M21.42,81.58 L 147.4 81.58" />
  </g>
  <g stroke-width="0.3" stroke="#F5F5F5">
    <path d="M54.7,5 L 54.7 133.86" />
    <path d="M143.83,5 L 143.83 133.86" />
    <path d="M84.41,5 L 84.41 133.86" />
    <path d="M114.12,5 L 114.12 133.86" />
    <path d="M24.98,5 L 24.98 133.86" />
  </g>
  <g stroke="none" font-family="PT Sans,Helvetica Neue,Helvetica,sans" font-size="2.82" fill="#4C404B">
    <g class="geometry">
      <text x="89.33" y="97.33" text-anchor="middle" style="dominant-baseline:central">Tenrec</text>
    </g>
    <g class="geometry">
      <text x="85.22" y="70.93" text-anchor="middle" style="dominant-baseline:central">Echidna</text>
    </g>
    <g class="geometry">
      <text x="120.05" y="47.91" text-anchor="middle" style="dominant-baseline:central">Pig</text>
    </g>
    <g class="geometry">
      <text x="71.16" y="114.44" text-anchor="middle" style="dominant-baseline:central">Musk shrew</text>
    </g>
    <g class="geometry">
      <text x="58.73" y="100.81" text-anchor="middle" style="dominant-baseline:central">E. American mole</text>
    </g>
    <g class="geometry">
      <text x="79.71" y="100.43" text-anchor="middle" style="dominant-baseline:central">Rat</text>
    </g>
    <g class="geometry">
      <text x="100.4" y="68.31" text-anchor="middle" style="dominant-baseline:central">Raccoon</text>
    </g>
    <g class="geometry">
      <text x="103.54" y="47.94" text-anchor="middle" style="dominant-baseline:central">Baboon</text>
    </g>
    <g class="geometry">
      <text x="101.02" y="41.11" text-anchor="middle" style="dominant-baseline:central">Chimpanzee</text>
    </g>
    <g class="geometry">
      <text x="117.75" y="55.67" text-anchor="middle" style="dominant-baseline:central">Jaguar</text>
    </g>
    <g class="geometry">
      <text x="117.23" y="37.33" text-anchor="middle" style="dominant-baseline:central">Okapi</text>
    </g>
    <g class="geometry">
      <text x="43.5" y="121.1" text-anchor="middle" style="dominant-baseline:central">Little brown bat</text>
    </g>
    <g class="geometry">
      <text x="54.63" y="114.37" text-anchor="middle" style="dominant-baseline:central">Mouse</text>
    </g>
    <g class="geometry">
      <text x="81.77" y="107.47" text-anchor="middle" style="dominant-baseline:central">Golden hamster</text>
    </g>
    <g class="geometry">
      <text x="108.8" y="77.53" text-anchor="middle" style="dominant-baseline:central">Yellow-bellied marmot</text>
    </g>
    <g class="geometry">
      <text x="114.63" y="63.56" text-anchor="middle" style="dominant-baseline:central">Kangaroo</text>
    </g>
    <g class="geometry">
      <text x="85.9" y="49.87" text-anchor="middle" style="dominant-baseline:central">Rhesus monkey</text>
    </g>
    <g class="geometry">
      <text x="103.28" y="90.51" text-anchor="middle" style="dominant-baseline:central">Water opossum</text>
    </g>
    <g class="geometry">
      <text x="108.11" y="26.87" text-anchor="middle" style="dominant-baseline:central">Human</text>
    </g>
    <g class="geometry">
      <text x="89.4" y="56.75" text-anchor="middle" style="dominant-baseline:central">Patas monkey</text>
    </g>
    <g class="geometry">
      <text x="67.43" y="121.77" text-anchor="middle" style="dominant-baseline:central">Big brown bat</text>
    </g>
    <g class="geometry">
      <text x="127.93" y="20" text-anchor="middle" style="dominant-baseline:central">Asian elephant</text>
    </g>
    <g class="geometry">
      <text x="104.05" y="83.93" text-anchor="middle" style="dominant-baseline:central">Nine-banded armadillo</text>
    </g>
    <g class="geometry">
      <text x="54.84" y="107.25" text-anchor="middle" style="dominant-baseline:central">Star-nosed mole</text>
    </g>
    <g class="geometry">
      <text x="61.87" y="129.82" text-anchor="middle" style="dominant-baseline:central">Lesser short-tailed shrew</text>
    </g>
    <g class="geometry">
      <text x="58.77" y="91.86" text-anchor="middle" style="dominant-baseline:central">Ground squirrel</text>
    </g>
    <g class="geometry">
      <text x="71.35" y="84.95" text-anchor="middle" style="dominant-baseline:central">Chinchilla</text>
    </g>
    <g class="geometry">
      <text x="128.14" y="42.04" text-anchor="middle" style="dominant-baseline:central">Cow</text>
    </g>
    <g class="geometry">
      <text x="70.66" y="78.12" text-anchor="middle" style="dominant-baseline:central">Owl monkey</text>
    </g>
    <g class="geometry">
      <text x="85.03" y="64.45" text-anchor="middle" style="dominant-baseline:central">Arctic fox</text>
    </g>
  </g>
  <g stroke-width="0.3" stroke="#F5F5F5" visibility="hidden" font-family="PT Sans,Helvetica Neue,Helvetica,sans" font-size="3.18">
    <g id="id484-annotation">
      <path d="M21.42,96.22 L 147.4 96.22" />
      <path d="M69.81,5 L 69.81 133.86" />
    </g>
    <g id="id482-annotation">
      <path d="M21.42,95.81 L 147.4 95.81" />
      <path d="M83.73,5 L 83.73 133.86" />
    </g>
    <g id="id480-annotation">
      <path d="M21.42,71.91 L 147.4 71.91" />
      <path d="M91.5,5 L 91.5 133.86" />
    </g>
    <g id="id478-annotation">
      <path d="M21.42,117.6 L 147.4 117.6" />
      <path d="M64.82,5 L 64.82 133.86" />
    </g>
    <g id="id476-annotation">
      <path d="M21.42,103.97 L 147.4 103.97" />
      <path d="M67.7,5 L 67.7 133.86" />
    </g>
    <g id="id474-annotation">
      <path d="M21.42,67.16 L 147.4 67.16" />
      <path d="M93.8,5 L 93.8 133.86" />
    </g>
    <g id="id472-annotation">
      <path d="M21.42,59.5 L 147.4 59.5" />
      <path d="M110.83,5 L 110.83 133.86" />
    </g>
    <g id="id470-annotation">
      <path d="M21.42,51.09 L 147.4 51.09" />
      <path d="M99.61,5 L 99.61 133.86" />
    </g>
    <g id="id468-annotation">
      <path d="M21.42,52.51 L 147.4 52.51" />
      <path d="M114.12,5 L 114.12 133.86" />
    </g>
    <g id="id466-annotation">
      <path d="M21.42,79.57 L 147.4 79.57" />
      <path d="M90.32,5 L 90.32 133.86" />
    </g>
    <g id="id464-annotation">
      <path d="M21.42,79.23 L 147.4 79.23" />
      <path d="M86.58,5 L 86.58 133.86" />
    </g>
    <g id="id462-annotation">
      <path d="M21.42,115.57 L 147.4 115.57" />
      <path d="M60.07,5 L 60.07 133.86" />
    </g>
    <g id="id460-annotation">
      <path d="M21.42,75.98 L 147.4 75.98" />
      <path d="M93.43,5 L 93.43 133.86" />
    </g>
    <g id="id458-annotation">
      <path d="M21.42,51.12 L 147.4 51.12" />
      <path d="M96.78,5 L 96.78 133.86" />
    </g>
    <g id="id456-annotation">
      <path d="M21.42,14.56 L 147.4 14.56" />
      <path d="M141.21,5 L 141.21 133.86" />
    </g>
    <g id="id454-annotation">
      <path d="M21.42,79.4 L 147.4 79.4" />
      <path d="M82.55,5 L 82.55 133.86" />
    </g>
    <g id="id452-annotation">
      <path d="M21.42,42.48 L 147.4 42.48" />
      <path d="M118.82,5 L 118.82 133.86" />
    </g>
    <g id="id450-annotation">
      <path d="M21.42,75.68 L 147.4 75.68" />
      <path d="M86.63,5 L 86.63 133.86" />
    </g>
    <g id="id448-annotation">
      <path d="M21.42,71.66 L 147.4 71.66" />
      <path d="M92.11,5 L 92.11 133.86" />
    </g>
    <g id="id446-annotation">
      <path d="M21.42,92.67 L 147.4 92.67" />
      <path d="M82.85,5 L 82.85 133.86" />
    </g>
    <g id="id444-annotation">
      <path d="M21.42,42.14 L 147.4 42.14" />
      <path d="M118.16,5 L 118.16 133.86" />
    </g>
    <g id="id442-annotation">
      <path d="M21.42,16.84 L 147.4 16.84" />
      <path d="M135.01,5 L 135.01 133.86" />
    </g>
    <g id="id440-annotation">
      <path d="M21.42,79.4 L 147.4 79.4" />
      <path d="M88.88,5 L 88.88 133.86" />
    </g>
    <g id="id438-annotation">
      <path d="M21.42,105.9 L 147.4 105.9" />
      <path d="M66.26,5 L 66.26 133.86" />
    </g>
    <g id="id436-annotation">
      <path d="M21.42,85.97 L 147.4 85.97" />
      <path d="M84.41,5 L 84.41 133.86" />
    </g>
    <g id="id434-annotation">
      <path d="M21.42,91.26 L 147.4 91.26" />
      <path d="M69.62,5 L 69.62 133.86" />
    </g>
    <g id="id432-annotation">
      <path d="M21.42,63.02 L 147.4 63.02" />
      <path d="M93.65,5 L 93.65 133.86" />
    </g>
    <g id="id430-annotation">
      <path d="M21.42,57.46 L 147.4 57.46" />
      <path d="M101.81,5 L 101.81 133.86" />
    </g>
    <g id="id428-annotation">
      <path d="M21.42,55.39 L 147.4 55.39" />
      <path d="M107.59,5 L 107.59 133.86" />
    </g>
    <g id="id426-annotation">
      <path d="M21.42,83.81 L 147.4 83.81" />
      <path d="M86.35,5 L 86.35 133.86" />
    </g>
    <g id="id424-annotation">
      <path d="M21.42,65.82 L 147.4 65.82" />
      <path d="M92.28,5 L 92.28 133.86" />
    </g>
    <g id="id425-annotation">
      <path d="M21.42,76.96 L 147.4 76.96" />
      <path d="M79.67,5 L 79.67 133.86" />
    </g>
    <g id="id427-annotation">
      <path d="M21.42,42.04 L 147.4 42.04" />
      <path d="M124.04,5 L 124.04 133.86" />
    </g>
    <g id="id429-annotation">
      <path d="M21.42,55.8 L 147.4 55.8" />
      <path d="M105.83,5 L 105.83 133.86" />
    </g>
    <g id="id431-annotation">
      <path d="M21.42,87.9 L 147.4 87.9" />
      <path d="M84.66,5 L 84.66 133.86" />
    </g>
    <g id="id433-annotation">
      <path d="M21.42,86.3 L 147.4 86.3" />
      <path d="M78.89,5 L 78.89 133.86" />
    </g>
    <g id="id435-annotation">
      <path d="M21.42,87.52 L 147.4 87.52" />
      <path d="M83.87,5 L 83.87 133.86" />
    </g>
    <g id="id437-annotation">
      <path d="M21.42,126.66 L 147.4 126.66" />
      <path d="M50.22,5 L 50.22 133.86" />
    </g>
    <g id="id439-annotation">
      <path d="M21.42,80.77 L 147.4 80.77" />
      <path d="M92.49,5 L 92.49 133.86" />
    </g>
    <g id="id441-annotation">
      <path d="M21.42,86.46 L 147.4 86.46" />
      <path d="M87.83,5 L 87.83 133.86" />
    </g>
    <g id="id443-annotation">
      <path d="M21.42,118.61 L 147.4 118.61" />
      <path d="M60.07,5 L 60.07 133.86" />
    </g>
    <g id="id445-annotation">
      <path d="M21.42,37.43 L 147.4 37.43" />
      <path d="M124.77,5 L 124.77 133.86" />
    </g>
    <g id="id447-annotation">
      <path d="M21.42,55.8 L 147.4 55.8" />
      <path d="M99.27,5 L 99.27 133.86" />
    </g>
    <g id="id449-annotation">
      <path d="M21.42,88.9 L 147.4 88.9" />
      <path d="M74.03,5 L 74.03 133.86" />
    </g>
    <g id="id451-annotation">
      <path d="M21.42,37.03 L 147.4 37.03" />
      <path d="M124.87,5 L 124.87 133.86" />
    </g>
    <g id="id453-annotation">
      <path d="M21.42,44.83 L 147.4 44.83" />
      <path d="M113.07,5 L 113.07 133.86" />
    </g>
    <g id="id455-annotation">
      <path d="M21.42,30.03 L 147.4 30.03" />
      <path d="M111.04,5 L 111.04 133.86" />
    </g>
    <g id="id457-annotation">
      <path d="M21.42,91.53 L 147.4 91.53" />
      <path d="M92.49,5 L 92.49 133.86" />
    </g>
    <g id="id459-annotation">
      <path d="M21.42,63.39 L 147.4 63.39" />
      <path d="M107.35,5 L 107.35 133.86" />
    </g>
    <g id="id461-annotation">
      <path d="M21.42,105.9 L 147.4 105.9" />
      <path d="M70.73,5 L 70.73 133.86" />
    </g>
    <g id="id463-annotation">
      <path d="M21.42,120.53 L 147.4 120.53" />
      <path d="M54.7,5 L 54.7 133.86" />
    </g>
    <g id="id465-annotation">
      <path d="M21.42,40.49 L 147.4 40.49" />
      <path d="M120.03,5 L 120.03 133.86" />
    </g>
    <g id="id467-annotation">
      <path d="M21.42,51.36 L 147.4 51.36" />
      <path d="M110.32,5 L 110.32 133.86" />
    </g>
    <g id="id469-annotation">
      <path d="M21.42,41.63 L 147.4 41.63" />
      <path d="M109.92,5 L 109.92 133.86" />
    </g>
    <g id="id471-annotation">
      <path d="M21.42,96.65 L 147.4 96.65" />
      <path d="M80.55,5 L 80.55 133.86" />
    </g>
    <g id="id473-annotation">
      <path d="M21.42,73.75 L 147.4 73.75" />
      <path d="M92.67,5 L 92.67 133.86" />
    </g>
    <g id="id475-annotation">
      <path d="M21.42,99.12 L 147.4 99.12" />
      <path d="M76.2,5 L 76.2 133.86" />
    </g>
    <g id="id477-annotation">
      <path d="M21.42,94.3 L 147.4 94.3" />
      <path d="M70.84,5 L 70.84 133.86" />
    </g>
    <g id="id479-annotation">
      <path d="M21.42,51.07 L 147.4 51.07" />
      <path d="M118.33,5 L 118.33 133.86" />
    </g>
    <g id="id481-annotation">
      <path d="M21.42,51.73 L 147.4 51.73" />
      <path d="M117.15,5 L 117.15 133.86" />
    </g>
    <g id="id483-annotation">
      <path d="M21.42,80.2 L 147.4 80.2" />
      <path d="M87.52,5 L 87.52 133.86" />
    </g>
    <g id="id485-annotation">
      <path d="M21.42,64.51 L 147.4 64.51" />
      <path d="M93.72,5 L 93.72 133.86" />
    </g>
  </g>
  <g stroke-width="0.3">
    <g class="color_group_RGB(0.27450980392156865,0.5098039215686274,0.7058823529411765)" stroke="#0F5D8C" fill="#4682B4">
      <g class="geometry" id="id484">
        <circle cx="69.81" cy="96.22" r="0.5" />
      </g>
      <g class="geometry" id="id482">
        <circle cx="83.73" cy="95.81" r="0.5" />
      </g>
      <g class="geometry" id="id480">
        <circle cx="91.5" cy="71.91" r="0.5" />
      </g>
      <g class="geometry" id="id478">
        <circle cx="64.82" cy="117.6" r="0.5" />
      </g>
      <g class="geometry" id="id476">
        <circle cx="67.7" cy="103.97" r="0.5" />
      </g>
      <g class="geometry" id="id474">
        <circle cx="93.8" cy="67.16" r="0.5" />
      </g>
      <g class="geometry" id="id472">
        <circle cx="110.83" cy="59.5" r="0.5" />
      </g>
      <g class="geometry" id="id470">
        <circle cx="99.61" cy="51.09" r="0.5" />
      </g>
      <g class="geometry" id="id468">
        <circle cx="114.12" cy="52.51" r="0.5" />
      </g>
      <g class="geometry" id="id466">
        <circle cx="90.32" cy="79.57" r="0.5" />
      </g>
      <g class="geometry" id="id464">
        <circle cx="86.58" cy="79.23" r="0.5" />
      </g>
      <g class="geometry" id="id462">
        <circle cx="60.07" cy="115.57" r="0.5" />
      </g>
      <g class="geometry" id="id460">
        <circle cx="93.43" cy="75.98" r="0.5" />
      </g>
      <g class="geometry" id="id458">
        <circle cx="96.78" cy="51.12" r="0.5" />
      </g>
      <g class="geometry" id="id456">
        <circle cx="141.21" cy="14.56" r="0.5" />
      </g>
      <g class="geometry" id="id454">
        <circle cx="82.55" cy="79.4" r="0.5" />
      </g>
      <g class="geometry" id="id452">
        <circle cx="118.82" cy="42.48" r="0.5" />
      </g>
      <g class="geometry" id="id450">
        <circle cx="86.63" cy="75.68" r="0.5" />
      </g>
      <g class="geometry" id="id448">
        <circle cx="92.11" cy="71.66" r="0.5" />
      </g>
      <g class="geometry" id="id446">
        <circle cx="82.85" cy="92.67" r="0.5" />
      </g>
      <g class="geometry" id="id444">
        <circle cx="118.16" cy="42.14" r="0.5" />
      </g>
      <g class="geometry" id="id442">
        <circle cx="135.01" cy="16.84" r="0.5" />
      </g>
      <g class="geometry" id="id440">
        <circle cx="88.88" cy="79.4" r="0.5" />
      </g>
      <g class="geometry" id="id438">
        <circle cx="66.26" cy="105.9" r="0.5" />
      </g>
      <g class="geometry" id="id436">
        <circle cx="84.41" cy="85.97" r="0.5" />
      </g>
      <g class="geometry" id="id434">
        <circle cx="69.62" cy="91.26" r="0.5" />
      </g>
      <g class="geometry" id="id432">
        <circle cx="93.65" cy="63.02" r="0.5" />
      </g>
      <g class="geometry" id="id430">
        <circle cx="101.81" cy="57.46" r="0.5" />
      </g>
      <g class="geometry" id="id428">
        <circle cx="107.59" cy="55.39" r="0.5" />
      </g>
      <g class="geometry" id="id426">
        <circle cx="86.35" cy="83.81" r="0.5" />
      </g>
      <g class="geometry" id="id424">
        <circle cx="92.28" cy="65.82" r="0.5" />
      </g>
      <g class="geometry" id="id425">
        <circle cx="79.67" cy="76.96" r="0.5" />
      </g>
      <g class="geometry" id="id427">
        <circle cx="124.04" cy="42.04" r="0.5" />
      </g>
      <g class="geometry" id="id429">
        <circle cx="105.83" cy="55.8" r="0.5" />
      </g>
      <g class="geometry" id="id431">
        <circle cx="84.66" cy="87.9" r="0.5" />
      </g>
      <g class="geometry" id="id433">
        <circle cx="78.89" cy="86.3" r="0.5" />
      </g>
      <g class="geometry" id="id435">
        <circle cx="83.87" cy="87.52" r="0.5" />
      </g>
      <g class="geometry" id="id437">
        <circle cx="50.22" cy="126.66" r="0.5" />
      </g>
      <g class="geometry" id="id439">
        <circle cx="92.49" cy="80.77" r="0.5" />
      </g>
      <g class="geometry" id="id441">
        <circle cx="87.83" cy="86.46" r="0.5" />
      </g>
      <g class="geometry" id="id443">
        <circle cx="60.07" cy="118.61" r="0.5" />
      </g>
      <g class="geometry" id="id445">
        <circle cx="124.77" cy="37.43" r="0.5" />
      </g>
      <g class="geometry" id="id447">
        <circle cx="99.27" cy="55.8" r="0.5" />
      </g>
      <g class="geometry" id="id449">
        <circle cx="74.03" cy="88.9" r="0.5" />
      </g>
      <g class="geometry" id="id451">
        <circle cx="124.87" cy="37.03" r="0.5" />
      </g>
      <g class="geometry" id="id453">
        <circle cx="113.07" cy="44.83" r="0.5" />
      </g>
      <g class="geometry" id="id455">
        <circle cx="111.04" cy="30.03" r="0.5" />
      </g>
      <g class="geometry" id="id457">
        <circle cx="92.49" cy="91.53" r="0.5" />
      </g>
      <g class="geometry" id="id459">
        <circle cx="107.35" cy="63.39" r="0.5" />
      </g>
      <g class="geometry" id="id461">
        <circle cx="70.73" cy="105.9" r="0.5" />
      </g>
      <g class="geometry" id="id463">
        <circle cx="54.7" cy="120.53" r="0.5" />
      </g>
      <g class="geometry" id="id465">
        <circle cx="120.03" cy="40.49" r="0.5" />
      </g>
      <g class="geometry" id="id467">
        <circle cx="110.32" cy="51.36" r="0.5" />
      </g>
      <g class="geometry" id="id469">
        <circle cx="109.92" cy="41.63" r="0.5" />
      </g>
      <g class="geometry" id="id471">
        <circle cx="80.55" cy="96.65" r="0.5" />
      </g>
      <g class="geometry" id="id473">
        <circle cx="92.67" cy="73.75" r="0.5" />
      </g>
      <g class="geometry" id="id475">
        <circle cx="76.2" cy="99.12" r="0.5" />
      </g>
      <g class="geometry" id="id477">
        <circle cx="70.84" cy="94.3" r="0.5" />
      </g>
      <g class="geometry" id="id479">
        <circle cx="118.33" cy="51.07" r="0.5" />
      </g>
      <g class="geometry" id="id481">
        <circle cx="117.15" cy="51.73" r="0.5" />
      </g>
      <g class="geometry" id="id483">
        <circle cx="87.52" cy="80.2" r="0.5" />
      </g>
      <g class="geometry" id="id485">
        <circle cx="93.72" cy="64.51" r="0.5" />
      </g>
    </g>
  </g>
  <g opacity="0" stroke="none">
    <g onmouseover="show_annotation('id484')" onmouseout="hide_annotation('id484')">
      <path d="M 68.31 94.72 L 71.31 94.72 71.31 97.72 68.31 97.72 z" />
    </g>
    <g onmouseover="show_annotation('id482')" onmouseout="hide_annotation('id482')">
      <path d="M 82.23 94.31 L 85.23 94.31 85.23 97.31 82.23 97.31 z" />
    </g>
    <g onmouseover="show_annotation('id480')" onmouseout="hide_annotation('id480')">
      <path d="M 90 70.41 L 93 70.41 93 73.41 90 73.41 z" />
    </g>
    <g onmouseover="show_annotation('id478')" onmouseout="hide_annotation('id478')">
      <path d="M 63.32 116.1 L 66.32 116.1 66.32 119.1 63.32 119.1 z" />
    </g>
    <g onmouseover="show_annotation('id476')" onmouseout="hide_annotation('id476')">
      <path d="M 66.2 102.47 L 69.2 102.47 69.2 105.47 66.2 105.47 z" />
    </g>
    <g onmouseover="show_annotation('id474')" onmouseout="hide_annotation('id474')">
      <path d="M 92.3 65.66 L 95.3 65.66 95.3 68.66 92.3 68.66 z" />
    </g>
    <g onmouseover="show_annotation('id472')" onmouseout="hide_annotation('id472')">
      <path d="M 109.33 58 L 112.33 58 112.33 61 109.33 61 z" />
    </g>
    <g onmouseover="show_annotation('id470')" onmouseout="hide_annotation('id470')">
      <path d="M 98.11 49.59 L 101.11 49.59 101.11 52.59 98.11 52.59 z" />
    </g>
    <g onmouseover="show_annotation('id468')" onmouseout="hide_annotation('id468')">
      <path d="M 112.62 51.01 L 115.62 51.01 115.62 54.01 112.62 54.01 z" />
    </g>
    <g onmouseover="show_annotation('id466')" onmouseout="hide_annotation('id466')">
      <path d="M 88.82 78.07 L 91.82 78.07 91.82 81.07 88.82 81.07 z" />
    </g>
    <g onmouseover="show_annotation('id464')" onmouseout="hide_annotation('id464')">
      <path d="M 85.08 77.73 L 88.08 77.73 88.08 80.73 85.08 80.73 z" />
    </g>
    <g onmouseover="show_annotation('id462')" onmouseout="hide_annotation('id462')">
      <path d="M 58.57 114.07 L 61.57 114.07 61.57 117.07 58.57 117.07 z" />
    </g>
    <g onmouseover="show_annotation('id460')" onmouseout="hide_annotation('id460')">
      <path d="M 91.93 74.48 L 94.93 74.48 94.93 77.48 91.93 77.48 z" />
    </g>
    <g onmouseover="show_annotation('id458')" onmouseout="hide_annotation('id458')">
      <path d="M 95.28 49.62 L 98.28 49.62 98.28 52.62 95.28 52.62 z" />
    </g>
    <g onmouseover="show_annotation('id456')" onmouseout="hide_annotation('id456')">
      <path d="M 139.71 13.06 L 142.71 13.06 142.71 16.06 139.71 16.06 z" />
    </g>
    <g onmouseover="show_annotation('id454')" onmouseout="hide_annotation('id454')">
      <path d="M 81.05 77.9 L 84.05 77.9 84.05 80.9 81.05 80.9 z" />
    </g>
    <g onmouseover="show_annotation('id452')" onmouseout="hide_annotation('id452')">
      <path d="M 117.32 40.98 L 120.32 40.98 120.32 43.98 117.32 43.98 z" />
    </g>
    <g onmouseover="show_annotation('id450')" onmouseout="hide_annotation('id450')">
      <path d="M 85.13 74.18 L 88.13 74.18 88.13 77.18 85.13 77.18 z" />
    </g>
    <g onmouseover="show_annotation('id448')" onmouseout="hide_annotation('id448')">
      <path d="M 90.61 70.16 L 93.61 70.16 93.61 73.16 90.61 73.16 z" />
    </g>
    <g onmouseover="show_annotation('id446')" onmouseout="hide_annotation('id446')">
      <path d="M 81.35 91.17 L 84.35 91.17 84.35 94.17 81.35 94.17 z" />
    </g>
    <g onmouseover="show_annotation('id444')" onmouseout="hide_annotation('id444')">
      <path d="M 116.66 40.64 L 119.66 40.64 119.66 43.64 116.66 43.64 z" />
    </g>
    <g onmouseover="show_annotation('id442')" onmouseout="hide_annotation('id442')">
      <path d="M 133.51 15.34 L 136.51 15.34 136.51 18.34 133.51 18.34 z" />
    </g>
    <g onmouseover="show_annotation('id440')" onmouseout="hide_annotation('id440')">
      <path d="M 87.38 77.9 L 90.38 77.9 90.38 80.9 87.38 80.9 z" />
    </g>
    <g onmouseover="show_annotation('id438')" onmouseout="hide_annotation('id438')">
      <path d="M 64.76 104.4 L 67.76 104.4 67.76 107.4 64.76 107.4 z" />
    </g>
    <g onmouseover="show_annotation('id436')" onmouseout="hide_annotation('id436')">
      <path d="M 82.91 84.47 L 85.91 84.47 85.91 87.47 82.91 87.47 z" />
    </g>
    <g onmouseover="show_annotation('id434')" onmouseout="hide_annotation('id434')">
      <path d="M 68.12 89.76 L 71.12 89.76 71.12 92.76 68.12 92.76 z" />
    </g>
    <g onmouseover="show_annotation('id432')" onmouseout="hide_annotation('id432')">
      <path d="M 92.15 61.52 L 95.15 61.52 95.15 64.52 92.15 64.52 z" />
    </g>
    <g onmouseover="show_annotation('id430')" onmouseout="hide_annotation('id430')">
      <path d="M 100.31 55.96 L 103.31 55.96 103.31 58.96 100.31 58.96 z" />
    </g>
    <g onmouseover="show_annotation('id428')" onmouseout="hide_annotation('id428')">
      <path d="M 106.09 53.89 L 109.09 53.89 109.09 56.89 106.09 56.89 z" />
    </g>
    <g onmouseover="show_annotation('id426')" onmouseout="hide_annotation('id426')">
      <path d="M 84.85 82.31 L 87.85 82.31 87.85 85.31 84.85 85.31 z" />
    </g>
    <g onmouseover="show_annotation('id424')" onmouseout="hide_annotation('id424')">
      <path d="M 90.78 64.32 L 93.78 64.32 93.78 67.32 90.78 67.32 z" />
    </g>
    <g onmouseover="show_annotation('id425')" onmouseout="hide_annotation('id425')">
      <path d="M 78.17 75.46 L 81.17 75.46 81.17 78.46 78.17 78.46 z" />
    </g>
    <g onmouseover="show_annotation('id427')" onmouseout="hide_annotation('id427')">
      <path d="M 122.54 40.54 L 125.54 40.54 125.54 43.54 122.54 43.54 z" />
    </g>
    <g onmouseover="show_annotation('id429')" onmouseout="hide_annotation('id429')">
      <path d="M 104.33 54.3 L 107.33 54.3 107.33 57.3 104.33 57.3 z" />
    </g>
    <g onmouseover="show_annotation('id431')" onmouseout="hide_annotation('id431')">
      <path d="M 83.16 86.4 L 86.16 86.4 86.16 89.4 83.16 89.4 z" />
    </g>
    <g onmouseover="show_annotation('id433')" onmouseout="hide_annotation('id433')">
      <path d="M 77.39 84.8 L 80.39 84.8 80.39 87.8 77.39 87.8 z" />
    </g>
    <g onmouseover="show_annotation('id435')" onmouseout="hide_annotation('id435')">
      <path d="M 82.37 86.02 L 85.37 86.02 85.37 89.02 82.37 89.02 z" />
    </g>
    <g onmouseover="show_annotation('id437')" onmouseout="hide_annotation('id437')">
      <path d="M 48.72 125.16 L 51.72 125.16 51.72 128.16 48.72 128.16 z" />
    </g>
    <g onmouseover="show_annotation('id439')" onmouseout="hide_annotation('id439')">
      <path d="M 90.99 79.27 L 93.99 79.27 93.99 82.27 90.99 82.27 z" />
    </g>
    <g onmouseover="show_annotation('id441')" onmouseout="hide_annotation('id441')">
      <path d="M 86.33 84.96 L 89.33 84.96 89.33 87.96 86.33 87.96 z" />
    </g>
    <g onmouseover="show_annotation('id443')" onmouseout="hide_annotation('id443')">
      <path d="M 58.57 117.11 L 61.57 117.11 61.57 120.11 58.57 120.11 z" />
    </g>
    <g onmouseover="show_annotation('id445')" onmouseout="hide_annotation('id445')">
      <path d="M 123.27 35.93 L 126.27 35.93 126.27 38.93 123.27 38.93 z" />
    </g>
    <g onmouseover="show_annotation('id447')" onmouseout="hide_annotation('id447')">
      <path d="M 97.77 54.3 L 100.77 54.3 100.77 57.3 97.77 57.3 z" />
    </g>
    <g onmouseover="show_annotation('id449')" onmouseout="hide_annotation('id449')">
      <path d="M 72.53 87.4 L 75.53 87.4 75.53 90.4 72.53 90.4 z" />
    </g>
    <g onmouseover="show_annotation('id451')" onmouseout="hide_annotation('id451')">
      <path d="M 123.37 35.53 L 126.37 35.53 126.37 38.53 123.37 38.53 z" />
    </g>
    <g onmouseover="show_annotation('id453')" onmouseout="hide_annotation('id453')">
      <path d="M 111.57 43.33 L 114.57 43.33 114.57 46.33 111.57 46.33 z" />
    </g>
    <g onmouseover="show_annotation('id455')" onmouseout="hide_annotation('id455')">
      <path d="M 109.54 28.53 L 112.54 28.53 112.54 31.53 109.54 31.53 z" />
    </g>
    <g onmouseover="show_annotation('id457')" onmouseout="hide_annotation('id457')">
      <path d="M 90.99 90.03 L 93.99 90.03 93.99 93.03 90.99 93.03 z" />
    </g>
    <g onmouseover="show_annotation('id459')" onmouseout="hide_annotation('id459')">
      <path d="M 105.85 61.89 L 108.85 61.89 108.85 64.89 105.85 64.89 z" />
    </g>
    <g onmouseover="show_annotation('id461')" onmouseout="hide_annotation('id461')">
      <path d="M 69.23 104.4 L 72.23 104.4 72.23 107.4 69.23 107.4 z" />
    </g>
    <g onmouseover="show_annotation('id463')" onmouseout="hide_annotation('id463')">
      <path d="M 53.2 119.03 L 56.2 119.03 56.2 122.03 53.2 122.03 z" />
    </g>
    <g onmouseover="show_annotation('id465')" onmouseout="hide_annotation('id465')">
      <path d="M 118.53 38.99 L 121.53 38.99 121.53 41.99 118.53 41.99 z" />
    </g>
    <g onmouseover="show_annotation('id467')" onmouseout="hide_annotation('id467')">
      <path d="M 108.82 49.86 L 111.82 49.86 111.82 52.86 108.82 52.86 z" />
    </g>
    <g onmouseover="show_annotation('id469')" onmouseout="hide_annotation('id469')">
      <path d="M 108.42 40.13 L 111.42 40.13 111.42 43.13 108.42 43.13 z" />
    </g>
    <g onmouseover="show_annotation('id471')" onmouseout="hide_annotation('id471')">
      <path d="M 79.05 95.15 L 82.05 95.15 82.05 98.15 79.05 98.15 z" />
    </g>
    <g onmouseover="show_annotation('id473')" onmouseout="hide_annotation('id473')">
      <path d="M 91.17 72.25 L 94.17 72.25 94.17 75.25 91.17 75.25 z" />
    </g>
    <g onmouseover="show_annotation('id475')" onmouseout="hide_annotation('id475')">
      <path d="M 74.7 97.62 L 77.7 97.62 77.7 100.62 74.7 100.62 z" />
    </g>
    <g onmouseover="show_annotation('id477')" onmouseout="hide_annotation('id477')">
      <path d="M 69.34 92.8 L 72.34 92.8 72.34 95.8 69.34 95.8 z" />
    </g>
    <g onmouseover="show_annotation('id479')" onmouseout="hide_annotation('id479')">
      <path d="M 116.83 49.57 L 119.83 49.57 119.83 52.57 116.83 52.57 z" />
    </g>
    <g onmouseover="show_annotation('id481')" onmouseout="hide_annotation('id481')">
      <path d="M 115.65 50.23 L 118.65 50.23 118.65 53.23 115.65 53.23 z" />
    </g>
    <g onmouseover="show_annotation('id483')" onmouseout="hide_annotation('id483')">
      <path d="M 86.02 78.7 L 89.02 78.7 89.02 81.7 86.02 81.7 z" />
    </g>
    <g onmouseover="show_annotation('id485')" onmouseout="hide_annotation('id485')">
      <path d="M 92.22 63.01 L 95.22 63.01 95.22 66.01 92.22 66.01 z" />
    </g>
  </g>
</g>
<script type="application/ecmascript"><![CDATA[

// Functions embedded in Gadfly plots to add interactivity.


// Clicking an entry in a color key toggles visibility of the data within that
// group.
function toggle_color_group(name)
{
    geoms = document.getElementsByClassName('color_group_' + name);
    entry = document.getElementById('color_key_' + name);
    state = geoms[0].getAttribute('visibility');
    if (!state || state == 'visible') {
        for (i = 0; i < geoms.length; ++i) {
            geoms[i].setAttribute('visibility', 'hidden');
        }
        entry.setAttribute('opacity', 0.5);
    } else {
        for (i = 0; i < geoms.length; ++i) {
            geoms[i].setAttribute('visibility', 'visible');
        }
        entry.setAttribute('opacity', 1.0);
    }
}


// Turn on a possibily hidden annotation.
function show_annotation(geom_id)
{
    annot_id = geom_id + "-annotation";
    annot = document.getElementById(annot_id);
    annot.setAttribute('visibility', 'visible');
    present_geometry([geom_id]);
}


// Turn off a possibly hidden annotation.
function hide_annotation(geom_id)
{
    annot_id = geom_id + "-annotation"
    annot = document.getElementById(annot_id)
    annot.setAttribute('visibility', 'hidden')
    unpresent_geometry();
}


// Dim all geometry objects with some exceptions.
function present_geometry(ids)
{
    on_anim_dur = 0.1;

    off_anim = document.getElementById('panel-focus-filter-off-anim');
    try {
        t0 = Number(off_anim.getStartTime());
    }
    catch (err) {
        t0 = Infinity;
    }
    off_anim.endElement();

    if (t0 < Infinity) {
        t = Number(off_anim.getCurrentTime());
        d = Number(off_anim.getSimpleDuration());
        from = Number(off_anim.getAttribute('from'));
        to = Number(off_anim.getAttribute('to'));
        p = Math.max(0.0, Math.min(1.0, ((t - t0) / d)));
        v = from + p * (to - from);
    }
    else {
        p=1.0;
        v=0.0;
    }

    geoms = document.getElementsByClassName('geometry');
    for (i = 0; i < geoms.length; ++i) {
        geoms[i].setAttribute('filter', 'url(#panel-focus-filter)');
    }

    for (i = 0; i < ids.length; ++i) {
        geom = document.getElementById(ids[i]);
        geom.setAttribute('filter', 'inherit');
    }

    on_anim = document.getElementById('panel-focus-filter-on-anim');
    on_anim.setAttribute('from', v);
    on_anim.setAttribute('dur',  p * on_anim_dur + 's');
    on_anim.beginElement();
}


// Set all geometries to full opacity.
function unpresent_geometry()
{
    off_anim_dur = 0.3;

    on_anim = document.getElementById('panel-focus-filter-on-anim');
    try {
        t0 = Number(on_anim.getStartTime());
        t = Number(on_anim.getCurrentTime());
        d = Number(on_anim.getSimpleDuration());
        p = Math.max(0.0, Math.min(1.0, ((t - t0) / d)));
    }
    catch (err) {
        p = 1.0;
    }
    on_anim.endElement();

    from = Number(on_anim.getAttribute('from'));
    to = Number(on_anim.getAttribute('to'));
    v = from + p * (to - from);

    off_anim = document.getElementById('panel-focus-filter-off-anim');
    off_anim.setAttribute('from', v);
    dur = p * off_anim_dur
    off_anim.setAttribute('dur',  dur + 's');
    off_anim.addEventListener('endEvent', unpresent_geometry_end);
    off_anim.beginElement();

    // Webkit doesn't support the "onend" attribute, so we work arround.
    setTimeout("unpresent_geometry_end()", 1000 * dur);
}


// Called when the animation in unpresent_geometry finishes.
// Enabling a filter, even if it has no effect, adds an extra layer of
// rasterization, which tends to make things look like shit, so we clear all the
// filters when the animation ends.
function unpresent_geometry_end()
{
    // skip this function in the on_animation has been triggered since the last
    // off_animation.
    on_anim = document.getElementById('panel-focus-filter-on-anim');
    off_anim = document.getElementById('panel-focus-filter-off-anim');
    if (on_anim.getStartTime() > off_anim.getStartTime()) {
        return;
    }

    // Skip this if the off animation isn't actually finished.
    elapsed = off_anim.getCurrentTime() - off_anim.getStartTime()
    if (elapsed < off_anim.getSimpleDuration()) {
        return;
    }

    geoms = document.getElementsByClassName('geometry');
    for (i = 0; i < geoms.length; ++i) {
        geoms[i].setAttribute('filter', 'inherit');
    }
}


]]></script>
<defs>
    <!--A filter used to deemphasize out of focus geometries for mouseover
       -effects.-->
    <!-- TODO: flood-color needs to be set from the current theme -->
    <filter id="panel-focus-filter" x="-20%" y="-20%" width="140%" height="140%">
        <feFlood flood-color="#f5f5f5" flood-opacity="0.5" result="flood">
            <animate id="panel-focus-filter-off-anim"
                      attributeName="flood-opacity" attributeType="XML"
                      fill="freeze" begin="indefinite" dur="0.2s"
                      from="0.8" to="0.0" onend="unpresent_geometry_end"/>
            <animate id="panel-focus-filter-on-anim"
                      attributeName="flood-opacity" attributeType="XML"
                      fill="freeze" begin="indefinite" dur="0.1s"
                      from="0.0" to="0.8" onend="unpresent_geometry_end"/>
        </feFlood>
        <feComposite operator="atop" in="flood" in2="SourceGraphic" />
    </filter>
</defs>

</svg>
