<?xml version="1.0" encoding="UTF-8"?>
<svg xmlns="http://www.w3.org/2000/svg" xmlns:xlink="http://www.w3.org/1999/xlink" version="1.1" width="152.4mm" height="152.4mm" viewBox="0 0 152.4 152.4" style="stroke:black;fill:black" stroke-width="0.5">
<g>
  <g stroke="none" font-family="PT Sans,Helvetica Neue,Helvetica,sans" font-size="3.18" fill="#4C404B">
    <text x="20.42" y="32.96" text-anchor="end" style="dominant-baseline:central">10<tspan baseline-shift="1.722548" font-size="83.333333%">3</tspan></text>
    <text x="20.42" y="130.21" text-anchor="end" style="dominant-baseline:central">10<tspan baseline-shift="1.722548" font-size="83.333333%">-1</tspan></text>
    <text x="20.42" y="105.9" text-anchor="end" style="dominant-baseline:central">10<tspan baseline-shift="1.722548" font-size="83.333333%">0</tspan></text>
    <text x="20.42" y="8.65" text-anchor="end" style="dominant-baseline:central">10<tspan baseline-shift="1.722548" font-size="83.333333%">4</tspan></text>
    <text x="20.42" y="57.27" text-anchor="end" style="dominant-baseline:central">10<tspan baseline-shift="1.722548" font-size="83.333333%">2</tspan></text>
    <text x="20.42" y="81.58" text-anchor="end" style="dominant-baseline:central">10<tspan baseline-shift="1.722548" font-size="83.333333%">1</tspan></text>
  </g>
  <g stroke="none" font-family="PT Sans,Helvetica Neue,Helvetica,sans" font-size="3.88" fill="#362A35">
    <text x="9.28" y="69.43" text-anchor="middle" style="dominant-baseline:central" transform="rotate(-90, 9.28, 69.43)">brain</text>
  </g>
  <g stroke="none" font-family="PT Sans,Helvetica Neue,Helvetica,sans" font-size="3.18" fill="#4C404B">
    <text x="54.7" y="138.84" text-anchor="middle">10<tspan baseline-shift="1.722548" font-size="83.333333%">-2</tspan></text>
    <text x="143.83" y="138.84" text-anchor="middle">10<tspan baseline-shift="1.722548" font-size="83.333333%">4</tspan></text>
    <text x="84.41" y="138.84" text-anchor="middle">10<tspan baseline-shift="1.722548" font-size="83.333333%">0</tspan></text>
    <text x="114.12" y="138.84" text-anchor="middle">10<tspan baseline-shift="1.722548" font-size="83.333333%">2</tspan></text>
    <text x="24.98" y="138.84" text-anchor="middle">10<tspan baseline-shift="1.722548" font-size="83.333333%">-4</tspan></text>
  </g>
  <g stroke="none" font-family="PT Sans,Helvetica Neue,Helvetica,sans" font-size="3.88" fill="#362A35">
    <text x="84.41" y="145.4" text-anchor="middle">body</text>
  </g>
  <g stroke="#FFFFFF" fill="#FFFFFF">
    <path d="M 21.42 5 L 147.4 5 147.4 133.86 21.42 133.86 z" />
  </g>
  <g stroke-width="0.3" stroke="#F5F5F5">
    <path d="M21.42,32.96 L 147.4 32.96" />
    <path d="M21.42,130.21 L 147.4 130.21" />
    <path d="M21.42,105.9 L 147.4 105.9" />
    <path d="M21.42,8.65 L 147.4 8.65" />
    <path d="M21.42,57.27 L 147.4 57.27" />
    <path d="M21.42,81.58 L 147.4 81.58" />
  </g>
  <g stroke-width="0.3" stroke="#F5F5F5">
    <path d="M54.7,5 L 54.7 133.86" />
    <path d="M143.83,5 L 143.83 133.86" />
    <path d="M84.41,5 L 84.41 133.86" />
    <path d="M114.12,5 L 114.12 133.86" />
    <path d="M24.98,5 L 24.98 133.86" />
  </g>
  <g stroke-width="0.3" stroke="#F5F5F5" visibility="hidden" font-family="PT Sans,Helvetica Neue,Helvetica,sans" font-size="3.18">
    <g id="id422-annotation">
      <path d="M21.42,96.22 L 147.4 96.22" />
      <path d="M69.81,5 L 69.81 133.86" />
    </g>
    <g id="id420-annotation">
      <path d="M21.42,95.81 L 147.4 95.81" />
      <path d="M83.73,5 L 83.73 133.86" />
    </g>
    <g id="id418-annotation">
      <path d="M21.42,71.91 L 147.4 71.91" />
      <path d="M91.5,5 L 91.5 133.86" />
    </g>
    <g id="id416-annotation">
      <path d="M21.42,117.6 L 147.4 117.6" />
      <path d="M64.82,5 L 64.82 133.86" />
    </g>
    <g id="id414-annotation">
      <path d="M21.42,103.97 L 147.4 103.97" />
      <path d="M67.7,5 L 67.7 133.86" />
    </g>
    <g id="id412-annotation">
      <path d="M21.42,67.16 L 147.4 67.16" />
      <path d="M93.8,5 L 93.8 133.86" />
    </g>
    <g id="id410-annotation">
      <path d="M21.42,59.5 L 147.4 59.5" />
      <path d="M110.83,5 L 110.83 133.86" />
    </g>
    <g id="id408-annotation">
      <path d="M21.42,51.09 L 147.4 51.09" />
      <path d="M99.61,5 L 99.61 133.86" />
    </g>
    <g id="id406-annotation">
      <path d="M21.42,52.51 L 147.4 52.51" />
      <path d="M114.12,5 L 114.12 133.86" />
    </g>
    <g id="id404-annotation">
      <path d="M21.42,79.57 L 147.4 79.57" />
      <path d="M90.32,5 L 90.32 133.86" />
    </g>
    <g id="id402-annotation">
      <path d="M21.42,79.23 L 147.4 79.23" />
      <path d="M86.58,5 L 86.58 133.86" />
    </g>
    <g id="id400-annotation">
      <path d="M21.42,115.57 L 147.4 115.57" />
      <path d="M60.07,5 L 60.07 133.86" />
    </g>
    <g id="id398-annotation">
      <path d="M21.42,75.98 L 147.4 75.98" />
      <path d="M93.43,5 L 93.43 133.86" />
    </g>
    <g id="id396-annotation">
      <path d="M21.42,51.12 L 147.4 51.12" />
      <path d="M96.78,5 L 96.78 133.86" />
    </g>
    <g id="id394-annotation">
      <path d="M21.42,14.56 L 147.4 14.56" />
      <path d="M141.21,5 L 141.21 133.86" />
    </g>
    <g id="id392-annotation">
      <path d="M21.42,79.4 L 147.4 79.4" />
      <path d="M82.55,5 L 82.55 133.86" />
    </g>
    <g id="id390-annotation">
      <path d="M21.42,42.48 L 147.4 42.48" />
      <path d="M118.82,5 L 118.82 133.86" />
    </g>
    <g id="id388-annotation">
      <path d="M21.42,75.68 L 147.4 75.68" />
      <path d="M86.63,5 L 86.63 133.86" />
    </g>
    <g id="id386-annotation">
      <path d="M21.42,71.66 L 147.4 71.66" />
      <path d="M92.11,5 L 92.11 133.86" />
    </g>
    <g id="id384-annotation">
      <path d="M21.42,92.67 L 147.4 92.67" />
      <path d="M82.85,5 L 82.85 133.86" />
    </g>
    <g id="id382-annotation">
      <path d="M21.42,42.14 L 147.4 42.14" />
      <path d="M118.16,5 L 118.16 133.86" />
    </g>
    <g id="id380-annotation">
      <path d="M21.42,16.84 L 147.4 16.84" />
      <path d="M135.01,5 L 135.01 133.86" />
    </g>
    <g id="id378-annotation">
      <path d="M21.42,79.4 L 147.4 79.4" />
      <path d="M88.88,5 L 88.88 133.86" />
    </g>
    <g id="id376-annotation">
      <path d="M21.42,105.9 L 147.4 105.9" />
      <path d="M66.26,5 L 66.26 133.86" />
    </g>
    <g id="id374-annotation">
      <path d="M21.42,85.97 L 147.4 85.97" />
      <path d="M84.41,5 L 84.41 133.86" />
    </g>
    <g id="id372-annotation">
      <path d="M21.42,91.26 L 147.4 91.26" />
      <path d="M69.62,5 L 69.62 133.86" />
    </g>
    <g id="id370-annotation">
      <path d="M21.42,63.02 L 147.4 63.02" />
      <path d="M93.65,5 L 93.65 133.86" />
    </g>
    <g id="id368-annotation">
      <path d="M21.42,57.46 L 147.4 57.46" />
      <path d="M101.81,5 L 101.81 133.86" />
    </g>
    <g id="id366-annotation">
      <path d="M21.42,55.39 L 147.4 55.39" />
      <path d="M107.59,5 L 107.59 133.86" />
    </g>
    <g id="id364-annotation">
      <path d="M21.42,83.81 L 147.4 83.81" />
      <path d="M86.35,5 L 86.35 133.86" />
    </g>
    <g id="id362-annotation">
      <path d="M21.42,65.82 L 147.4 65.82" />
      <path d="M92.28,5 L 92.28 133.86" />
    </g>
    <g id="id363-annotation">
      <path d="M21.42,76.96 L 147.4 76.96" />
      <path d="M79.67,5 L 79.67 133.86" />
    </g>
    <g id="id365-annotation">
      <path d="M21.42,42.04 L 147.4 42.04" />
      <path d="M124.04,5 L 124.04 133.86" />
    </g>
    <g id="id367-annotation">
      <path d="M21.42,55.8 L 147.4 55.8" />
      <path d="M105.83,5 L 105.83 133.86" />
    </g>
    <g id="id369-annotation">
      <path d="M21.42,87.9 L 147.4 87.9" />
      <path d="M84.66,5 L 84.66 133.86" />
    </g>
    <g id="id371-annotation">
      <path d="M21.42,86.3 L 147.4 86.3" />
      <path d="M78.89,5 L 78.89 133.86" />
    </g>
    <g id="id373-annotation">
      <path d="M21.42,87.52 L 147.4 87.52" />
      <path d="M83.87,5 L 83.87 133.86" />
    </g>
    <g id="id375-annotation">
      <path d="M21.42,126.66 L 147.4 126.66" />
      <path d="M50.22,5 L 50.22 133.86" />
    </g>
    <g id="id377-annotation">
      <path d="M21.42,80.77 L 147.4 80.77" />
      <path d="M92.49,5 L 92.49 133.86" />
    </g>
    <g id="id379-annotation">
      <path d="M21.42,86.46 L 147.4 86.46" />
      <path d="M87.83,5 L 87.83 133.86" />
    </g>
    <g id="id381-annotation">
      <path d="M21.42,118.61 L 147.4 118.61" />
      <path d="M60.07,5 L 60.07 133.86" />
    </g>
    <g id="id383-annotation">
      <path d="M21.42,37.43 L 147.4 37.43" />
      <path d="M124.77,5 L 124.77 133.86" />
    </g>
    <g id="id385-annotation">
      <path d="M21.42,55.8 L 147.4 55.8" />
      <path d="M99.27,5 L 99.27 133.86" />
    </g>
    <g id="id387-annotation">
      <path d="M21.42,88.9 L 147.4 88.9" />
      <path d="M74.03,5 L 74.03 133.86" />
    </g>
    <g id="id389-annotation">
      <path d="M21.42,37.03 L 147.4 37.03" />
      <path d="M124.87,5 L 124.87 133.86" />
    </g>
    <g id="id391-annotation">
      <path d="M21.42,44.83 L 147.4 44.83" />
      <path d="M113.07,5 L 113.07 133.86" />
    </g>
    <g id="id393-annotation">
      <path d="M21.42,30.03 L 147.4 30.03" />
      <path d="M111.04,5 L 111.04 133.86" />
    </g>
    <g id="id395-annotation">
      <path d="M21.42,91.53 L 147.4 91.53" />
      <path d="M92.49,5 L 92.49 133.86" />
    </g>
    <g id="id397-annotation">
      <path d="M21.42,63.39 L 147.4 63.39" />
      <path d="M107.35,5 L 107.35 133.86" />
    </g>
    <g id="id399-annotation">
      <path d="M21.42,105.9 L 147.4 105.9" />
      <path d="M70.73,5 L 70.73 133.86" />
    </g>
    <g id="id401-annotation">
      <path d="M21.42,120.53 L 147.4 120.53" />
      <path d="M54.7,5 L 54.7 133.86" />
    </g>
    <g id="id403-annotation">
      <path d="M21.42,40.49 L 147.4 40.49" />
      <path d="M120.03,5 L 120.03 133.86" />
    </g>
    <g id="id405-annotation">
      <path d="M21.42,51.36 L 147.4 51.36" />
      <path d="M110.32,5 L 110.32 133.86" />
    </g>
    <g id="id407-annotation">
      <path d="M21.42,41.63 L 147.4 41.63" />
      <path d="M109.92,5 L 109.92 133.86" />
    </g>
    <g id="id409-annotation">
      <path d="M21.42,96.65 L 147.4 96.65" />
      <path d="M80.55,5 L 80.55 133.86" />
    </g>
    <g id="id411-annotation">
      <path d="M21.42,73.75 L 147.4 73.75" />
      <path d="M92.67,5 L 92.67 133.86" />
    </g>
    <g id="id413-annotation">
      <path d="M21.42,99.12 L 147.4 99.12" />
      <path d="M76.2,5 L 76.2 133.86" />
    </g>
    <g id="id415-annotation">
      <path d="M21.42,94.3 L 147.4 94.3" />
      <path d="M70.84,5 L 70.84 133.86" />
    </g>
    <g id="id417-annotation">
      <path d="M21.42,51.07 L 147.4 51.07" />
      <path d="M118.33,5 L 118.33 133.86" />
    </g>
    <g id="id419-annotation">
      <path d="M21.42,51.73 L 147.4 51.73" />
      <path d="M117.15,5 L 117.15 133.86" />
    </g>
    <g id="id421-annotation">
      <path d="M21.42,80.2 L 147.4 80.2" />
      <path d="M87.52,5 L 87.52 133.86" />
    </g>
    <g id="id423-annotation">
      <path d="M21.42,64.51 L 147.4 64.51" />
      <path d="M93.72,5 L 93.72 133.86" />
    </g>
  </g>
  <g stroke-width="0.3">
    <g class="color_group_RGB(0.27450980392156865,0.5098039215686274,0.7058823529411765)" stroke="#0F5D8C" fill="#4682B4">
      <g class="geometry" id="id422">
        <circle cx="69.81" cy="96.22" r="0.5" />
      </g>
      <g class="geometry" id="id420">
        <circle cx="83.73" cy="95.81" r="0.5" />
      </g>
      <g class="geometry" id="id418">
        <circle cx="91.5" cy="71.91" r="0.5" />
      </g>
      <g class="geometry" id="id416">
        <circle cx="64.82" cy="117.6" r="0.5" />
      </g>
      <g class="geometry" id="id414">
        <circle cx="67.7" cy="103.97" r="0.5" />
      </g>
      <g class="geometry" id="id412">
        <circle cx="93.8" cy="67.16" r="0.5" />
      </g>
      <g class="geometry" id="id410">
        <circle cx="110.83" cy="59.5" r="0.5" />
      </g>
      <g class="geometry" id="id408">
        <circle cx="99.61" cy="51.09" r="0.5" />
      </g>
      <g class="geometry" id="id406">
        <circle cx="114.12" cy="52.51" r="0.5" />
      </g>
      <g class="geometry" id="id404">
        <circle cx="90.32" cy="79.57" r="0.5" />
      </g>
      <g class="geometry" id="id402">
        <circle cx="86.58" cy="79.23" r="0.5" />
      </g>
      <g class="geometry" id="id400">
        <circle cx="60.07" cy="115.57" r="0.5" />
      </g>
      <g class="geometry" id="id398">
        <circle cx="93.43" cy="75.98" r="0.5" />
      </g>
      <g class="geometry" id="id396">
        <circle cx="96.78" cy="51.12" r="0.5" />
      </g>
      <g class="geometry" id="id394">
        <circle cx="141.21" cy="14.56" r="0.5" />
      </g>
      <g class="geometry" id="id392">
        <circle cx="82.55" cy="79.4" r="0.5" />
      </g>
      <g class="geometry" id="id390">
        <circle cx="118.82" cy="42.48" r="0.5" />
      </g>
      <g class="geometry" id="id388">
        <circle cx="86.63" cy="75.68" r="0.5" />
      </g>
      <g class="geometry" id="id386">
        <circle cx="92.11" cy="71.66" r="0.5" />
      </g>
      <g class="geometry" id="id384">
        <circle cx="82.85" cy="92.67" r="0.5" />
      </g>
      <g class="geometry" id="id382">
        <circle cx="118.16" cy="42.14" r="0.5" />
      </g>
      <g class="geometry" id="id380">
        <circle cx="135.01" cy="16.84" r="0.5" />
      </g>
      <g class="geometry" id="id378">
        <circle cx="88.88" cy="79.4" r="0.5" />
      </g>
      <g class="geometry" id="id376">
        <circle cx="66.26" cy="105.9" r="0.5" />
      </g>
      <g class="geometry" id="id374">
        <circle cx="84.41" cy="85.97" r="0.5" />
      </g>
      <g class="geometry" id="id372">
        <circle cx="69.62" cy="91.26" r="0.5" />
      </g>
      <g class="geometry" id="id370">
        <circle cx="93.65" cy="63.02" r="0.5" />
      </g>
      <g class="geometry" id="id368">
        <circle cx="101.81" cy="57.46" r="0.5" />
      </g>
      <g class="geometry" id="id366">
        <circle cx="107.59" cy="55.39" r="0.5" />
      </g>
      <g class="geometry" id="id364">
        <circle cx="86.35" cy="83.81" r="0.5" />
      </g>
      <g class="geometry" id="id362">
        <circle cx="92.28" cy="65.82" r="0.5" />
      </g>
      <g class="geometry" id="id363">
        <circle cx="79.67" cy="76.96" r="0.5" />
      </g>
      <g class="geometry" id="id365">
        <circle cx="124.04" cy="42.04" r="0.5" />
      </g>
      <g class="geometry" id="id367">
        <circle cx="105.83" cy="55.8" r="0.5" />
      </g>
      <g class="geometry" id="id369">
        <circle cx="84.66" cy="87.9" r="0.5" />
      </g>
      <g class="geometry" id="id371">
        <circle cx="78.89" cy="86.3" r="0.5" />
      </g>
      <g class="geometry" id="id373">
        <circle cx="83.87" cy="87.52" r="0.5" />
      </g>
      <g class="geometry" id="id375">
        <circle cx="50.22" cy="126.66" r="0.5" />
      </g>
      <g class="geometry" id="id377">
        <circle cx="92.49" cy="80.77" r="0.5" />
      </g>
      <g class="geometry" id="id379">
        <circle cx="87.83" cy="86.46" r="0.5" />
      </g>
      <g class="geometry" id="id381">
        <circle cx="60.07" cy="118.61" r="0.5" />
      </g>
      <g class="geometry" id="id383">
        <circle cx="124.77" cy="37.43" r="0.5" />
      </g>
      <g class="geometry" id="id385">
        <circle cx="99.27" cy="55.8" r="0.5" />
      </g>
      <g class="geometry" id="id387">
        <circle cx="74.03" cy="88.9" r="0.5" />
      </g>
      <g class="geometry" id="id389">
        <circle cx="124.87" cy="37.03" r="0.5" />
      </g>
      <g class="geometry" id="id391">
        <circle cx="113.07" cy="44.83" r="0.5" />
      </g>
      <g class="geometry" id="id393">
        <circle cx="111.04" cy="30.03" r="0.5" />
      </g>
      <g class="geometry" id="id395">
        <circle cx="92.49" cy="91.53" r="0.5" />
      </g>
      <g class="geometry" id="id397">
        <circle cx="107.35" cy="63.39" r="0.5" />
      </g>
      <g class="geometry" id="id399">
        <circle cx="70.73" cy="105.9" r="0.5" />
      </g>
      <g class="geometry" id="id401">
        <circle cx="54.7" cy="120.53" r="0.5" />
      </g>
      <g class="geometry" id="id403">
        <circle cx="120.03" cy="40.49" r="0.5" />
      </g>
      <g class="geometry" id="id405">
        <circle cx="110.32" cy="51.36" r="0.5" />
      </g>
      <g class="geometry" id="id407">
        <circle cx="109.92" cy="41.63" r="0.5" />
      </g>
      <g class="geometry" id="id409">
        <circle cx="80.55" cy="96.65" r="0.5" />
      </g>
      <g class="geometry" id="id411">
        <circle cx="92.67" cy="73.75" r="0.5" />
      </g>
      <g class="geometry" id="id413">
        <circle cx="76.2" cy="99.12" r="0.5" />
      </g>
      <g class="geometry" id="id415">
        <circle cx="70.84" cy="94.3" r="0.5" />
      </g>
      <g class="geometry" id="id417">
        <circle cx="118.33" cy="51.07" r="0.5" />
      </g>
      <g class="geometry" id="id419">
        <circle cx="117.15" cy="51.73" r="0.5" />
      </g>
      <g class="geometry" id="id421">
        <circle cx="87.52" cy="80.2" r="0.5" />
      </g>
      <g class="geometry" id="id423">
        <circle cx="93.72" cy="64.51" r="0.5" />
      </g>
    </g>
  </g>
  <g opacity="0" stroke="none">
    <g onmouseover="show_annotation('id422')" onmouseout="hide_annotation('id422')">
      <path d="M 68.31 94.72 L 71.31 94.72 71.31 97.72 68.31 97.72 z" />
    </g>
    <g onmouseover="show_annotation('id420')" onmouseout="hide_annotation('id420')">
      <path d="M 82.23 94.31 L 85.23 94.31 85.23 97.31 82.23 97.31 z" />
    </g>
    <g onmouseover="show_annotation('id418')" onmouseout="hide_annotation('id418')">
      <path d="M 90 70.41 L 93 70.41 93 73.41 90 73.41 z" />
    </g>
    <g onmouseover="show_annotation('id416')" onmouseout="hide_annotation('id416')">
      <path d="M 63.32 116.1 L 66.32 116.1 66.32 119.1 63.32 119.1 z" />
    </g>
    <g onmouseover="show_annotation('id414')" onmouseout="hide_annotation('id414')">
      <path d="M 66.2 102.47 L 69.2 102.47 69.2 105.47 66.2 105.47 z" />
    </g>
    <g onmouseover="show_annotation('id412')" onmouseout="hide_annotation('id412')">
      <path d="M 92.3 65.66 L 95.3 65.66 95.3 68.66 92.3 68.66 z" />
    </g>
    <g onmouseover="show_annotation('id410')" onmouseout="hide_annotation('id410')">
      <path d="M 109.33 58 L 112.33 58 112.33 61 109.33 61 z" />
    </g>
    <g onmouseover="show_annotation('id408')" onmouseout="hide_annotation('id408')">
      <path d="M 98.11 49.59 L 101.11 49.59 101.11 52.59 98.11 52.59 z" />
    </g>
    <g onmouseover="show_annotation('id406')" onmouseout="hide_annotation('id406')">
      <path d="M 112.62 51.01 L 115.62 51.01 115.62 54.01 112.62 54.01 z" />
    </g>
    <g onmouseover="show_annotation('id404')" onmouseout="hide_annotation('id404')">
      <path d="M 88.82 78.07 L 91.82 78.07 91.82 81.07 88.82 81.07 z" />
    </g>
    <g onmouseover="show_annotation('id402')" onmouseout="hide_annotation('id402')">
      <path d="M 85.08 77.73 L 88.08 77.73 88.08 80.73 85.08 80.73 z" />
    </g>
    <g onmouseover="show_annotation('id400')" onmouseout="hide_annotation('id400')">
      <path d="M 58.57 114.07 L 61.57 114.07 61.57 117.07 58.57 117.07 z" />
    </g>
    <g onmouseover="show_annotation('id398')" onmouseout="hide_annotation('id398')">
      <path d="M 91.93 74.48 L 94.93 74.48 94.93 77.48 91.93 77.48 z" />
    </g>
    <g onmouseover="show_annotation('id396')" onmouseout="hide_annotation('id396')">
      <path d="M 95.28 49.62 L 98.28 49.62 98.28 52.62 95.28 52.62 z" />
    </g>
    <g onmouseover="show_annotation('id394')" onmouseout="hide_annotation('id394')">
      <path d="M 139.71 13.06 L 142.71 13.06 142.71 16.06 139.71 16.06 z" />
    </g>
    <g onmouseover="show_annotation('id392')" onmouseout="hide_annotation('id392')">
      <path d="M 81.05 77.9 L 84.05 77.9 84.05 80.9 81.05 80.9 z" />
    </g>
    <g onmouseover="show_annotation('id390')" onmouseout="hide_annotation('id390')">
      <path d="M 117.32 40.98 L 120.32 40.98 120.32 43.98 117.32 43.98 z" />
    </g>
    <g onmouseover="show_annotation('id388')" onmouseout="hide_annotation('id388')">
      <path d="M 85.13 74.18 L 88.13 74.18 88.13 77.18 85.13 77.18 z" />
    </g>
    <g onmouseover="show_annotation('id386')" onmouseout="hide_annotation('id386')">
      <path d="M 90.61 70.16 L 93.61 70.16 93.61 73.16 90.61 73.16 z" />
    </g>
    <g onmouseover="show_annotation('id384')" onmouseout="hide_annotation('id384')">
      <path d="M 81.35 91.17 L 84.35 91.17 84.35 94.17 81.35 94.17 z" />
    </g>
    <g onmouseover="show_annotation('id382')" onmouseout="hide_annotation('id382')">
      <path d="M 116.66 40.64 L 119.66 40.64 119.66 43.64 116.66 43.64 z" />
    </g>
    <g onmouseover="show_annotation('id380')" onmouseout="hide_annotation('id380')">
      <path d="M 133.51 15.34 L 136.51 15.34 136.51 18.34 133.51 18.34 z" />
    </g>
    <g onmouseover="show_annotation('id378')" onmouseout="hide_annotation('id378')">
      <path d="M 87.38 77.9 L 90.38 77.9 90.38 80.9 87.38 80.9 z" />
    </g>
    <g onmouseover="show_annotation('id376')" onmouseout="hide_annotation('id376')">
      <path d="M 64.76 104.4 L 67.76 104.4 67.76 107.4 64.76 107.4 z" />
    </g>
    <g onmouseover="show_annotation('id374')" onmouseout="hide_annotation('id374')">
      <path d="M 82.91 84.47 L 85.91 84.47 85.91 87.47 82.91 87.47 z" />
    </g>
    <g onmouseover="show_annotation('id372')" onmouseout="hide_annotation('id372')">
      <path d="M 68.12 89.76 L 71.12 89.76 71.12 92.76 68.12 92.76 z" />
    </g>
    <g onmouseover="show_annotation('id370')" onmouseout="hide_annotation('id370')">
      <path d="M 92.15 61.52 L 95.15 61.52 95.15 64.52 92.15 64.52 z" />
    </g>
    <g onmouseover="show_annotation('id368')" onmouseout="hide_annotation('id368')">
      <path d="M 100.31 55.96 L 103.31 55.96 103.31 58.96 100.31 58.96 z" />
    </g>
    <g onmouseover="show_annotation('id366')" onmouseout="hide_annotation('id366')">
      <path d="M 106.09 53.89 L 109.09 53.89 109.09 56.89 106.09 56.89 z" />
    </g>
    <g onmouseover="show_annotation('id364')" onmouseout="hide_annotation('id364')">
      <path d="M 84.85 82.31 L 87.85 82.31 87.85 85.31 84.85 85.31 z" />
    </g>
    <g onmouseover="show_annotation('id362')" onmouseout="hide_annotation('id362')">
      <path d="M 90.78 64.32 L 93.78 64.32 93.78 67.32 90.78 67.32 z" />
    </g>
    <g onmouseover="show_annotation('id363')" onmouseout="hide_annotation('id363')">
      <path d="M 78.17 75.46 L 81.17 75.46 81.17 78.46 78.17 78.46 z" />
    </g>
    <g onmouseover="show_annotation('id365')" onmouseout="hide_annotation('id365')">
      <path d="M 122.54 40.54 L 125.54 40.54 125.54 43.54 122.54 43.54 z" />
    </g>
    <g onmouseover="show_annotation('id367')" onmouseout="hide_annotation('id367')">
      <path d="M 104.33 54.3 L 107.33 54.3 107.33 57.3 104.33 57.3 z" />
    </g>
    <g onmouseover="show_annotation('id369')" onmouseout="hide_annotation('id369')">
      <path d="M 83.16 86.4 L 86.16 86.4 86.16 89.4 83.16 89.4 z" />
    </g>
    <g onmouseover="show_annotation('id371')" onmouseout="hide_annotation('id371')">
      <path d="M 77.39 84.8 L 80.39 84.8 80.39 87.8 77.39 87.8 z" />
    </g>
    <g onmouseover="show_annotation('id373')" onmouseout="hide_annotation('id373')">
      <path d="M 82.37 86.02 L 85.37 86.02 85.37 89.02 82.37 89.02 z" />
    </g>
    <g onmouseover="show_annotation('id375')" onmouseout="hide_annotation('id375')">
      <path d="M 48.72 125.16 L 51.72 125.16 51.72 128.16 48.72 128.16 z" />
    </g>
    <g onmouseover="show_annotation('id377')" onmouseout="hide_annotation('id377')">
      <path d="M 90.99 79.27 L 93.99 79.27 93.99 82.27 90.99 82.27 z" />
    </g>
    <g onmouseover="show_annotation('id379')" onmouseout="hide_annotation('id379')">
      <path d="M 86.33 84.96 L 89.33 84.96 89.33 87.96 86.33 87.96 z" />
    </g>
    <g onmouseover="show_annotation('id381')" onmouseout="hide_annotation('id381')">
      <path d="M 58.57 117.11 L 61.57 117.11 61.57 120.11 58.57 120.11 z" />
    </g>
    <g onmouseover="show_annotation('id383')" onmouseout="hide_annotation('id383')">
      <path d="M 123.27 35.93 L 126.27 35.93 126.27 38.93 123.27 38.93 z" />
    </g>
    <g onmouseover="show_annotation('id385')" onmouseout="hide_annotation('id385')">
      <path d="M 97.77 54.3 L 100.77 54.3 100.77 57.3 97.77 57.3 z" />
    </g>
    <g onmouseover="show_annotation('id387')" onmouseout="hide_annotation('id387')">
      <path d="M 72.53 87.4 L 75.53 87.4 75.53 90.4 72.53 90.4 z" />
    </g>
    <g onmouseover="show_annotation('id389')" onmouseout="hide_annotation('id389')">
      <path d="M 123.37 35.53 L 126.37 35.53 126.37 38.53 123.37 38.53 z" />
    </g>
    <g onmouseover="show_annotation('id391')" onmouseout="hide_annotation('id391')">
      <path d="M 111.57 43.33 L 114.57 43.33 114.57 46.33 111.57 46.33 z" />
    </g>
    <g onmouseover="show_annotation('id393')" onmouseout="hide_annotation('id393')">
      <path d="M 109.54 28.53 L 112.54 28.53 112.54 31.53 109.54 31.53 z" />
    </g>
    <g onmouseover="show_annotation('id395')" onmouseout="hide_annotation('id395')">
      <path d="M 90.99 90.03 L 93.99 90.03 93.99 93.03 90.99 93.03 z" />
    </g>
    <g onmouseover="show_annotation('id397')" onmouseout="hide_annotation('id397')">
      <path d="M 105.85 61.89 L 108.85 61.89 108.85 64.89 105.85 64.89 z" />
    </g>
    <g onmouseover="show_annotation('id399')" onmouseout="hide_annotation('id399')">
      <path d="M 69.23 104.4 L 72.23 104.4 72.23 107.4 69.23 107.4 z" />
    </g>
    <g onmouseover="show_annotation('id401')" onmouseout="hide_annotation('id401')">
      <path d="M 53.2 119.03 L 56.2 119.03 56.2 122.03 53.2 122.03 z" />
    </g>
    <g onmouseover="show_annotation('id403')" onmouseout="hide_annotation('id403')">
      <path d="M 118.53 38.99 L 121.53 38.99 121.53 41.99 118.53 41.99 z" />
    </g>
    <g onmouseover="show_annotation('id405')" onmouseout="hide_annotation('id405')">
      <path d="M 108.82 49.86 L 111.82 49.86 111.82 52.86 108.82 52.86 z" />
    </g>
    <g onmouseover="show_annotation('id407')" onmouseout="hide_annotation('id407')">
      <path d="M 108.42 40.13 L 111.42 40.13 111.42 43.13 108.42 43.13 z" />
    </g>
    <g onmouseover="show_annotation('id409')" onmouseout="hide_annotation('id409')">
      <path d="M 79.05 95.15 L 82.05 95.15 82.05 98.15 79.05 98.15 z" />
    </g>
    <g onmouseover="show_annotation('id411')" onmouseout="hide_annotation('id411')">
      <path d="M 91.17 72.25 L 94.17 72.25 94.17 75.25 91.17 75.25 z" />
    </g>
    <g onmouseover="show_annotation('id413')" onmouseout="hide_annotation('id413')">
      <path d="M 74.7 97.62 L 77.7 97.62 77.7 100.62 74.7 100.62 z" />
    </g>
    <g onmouseover="show_annotation('id415')" onmouseout="hide_annotation('id415')">
      <path d="M 69.34 92.8 L 72.34 92.8 72.34 95.8 69.34 95.8 z" />
    </g>
    <g onmouseover="show_annotation('id417')" onmouseout="hide_annotation('id417')">
      <path d="M 116.83 49.57 L 119.83 49.57 119.83 52.57 116.83 52.57 z" />
    </g>
    <g onmouseover="show_annotation('id419')" onmouseout="hide_annotation('id419')">
      <path d="M 115.65 50.23 L 118.65 50.23 118.65 53.23 115.65 53.23 z" />
    </g>
    <g onmouseover="show_annotation('id421')" onmouseout="hide_annotation('id421')">
      <path d="M 86.02 78.7 L 89.02 78.7 89.02 81.7 86.02 81.7 z" />
    </g>
    <g onmouseover="show_annotation('id423')" onmouseout="hide_annotation('id423')">
      <path d="M 92.22 63.01 L 95.22 63.01 95.22 66.01 92.22 66.01 z" />
    </g>
  </g>
</g>
<script type="application/ecmascript"><![CDATA[

// Functions embedded in Gadfly plots to add interactivity.


// Clicking an entry in a color key toggles visibility of the data within that
// group.
function toggle_color_group(name)
{
    geoms = document.getElementsByClassName('color_group_' + name);
    entry = document.getElementById('color_key_' + name);
    state = geoms[0].getAttribute('visibility');
    if (!state || state == 'visible') {
        for (i = 0; i < geoms.length; ++i) {
            geoms[i].setAttribute('visibility', 'hidden');
        }
        entry.setAttribute('opacity', 0.5);
    } else {
        for (i = 0; i < geoms.length; ++i) {
            geoms[i].setAttribute('visibility', 'visible');
        }
        entry.setAttribute('opacity', 1.0);
    }
}


// Turn on a possibily hidden annotation.
function show_annotation(geom_id)
{
    annot_id = geom_id + "-annotation";
    annot = document.getElementById(annot_id);
    annot.setAttribute('visibility', 'visible');
    present_geometry([geom_id]);
}


// Turn off a possibly hidden annotation.
function hide_annotation(geom_id)
{
    annot_id = geom_id + "-annotation"
    annot = document.getElementById(annot_id)
    annot.setAttribute('visibility', 'hidden')
    unpresent_geometry();
}


// Dim all geometry objects with some exceptions.
function present_geometry(ids)
{
    on_anim_dur = 0.1;

    off_anim = document.getElementById('panel-focus-filter-off-anim');
    try {
        t0 = Number(off_anim.getStartTime());
    }
    catch (err) {
        t0 = Infinity;
    }
    off_anim.endElement();

    if (t0 < Infinity) {
        t = Number(off_anim.getCurrentTime());
        d = Number(off_anim.getSimpleDuration());
        from = Number(off_anim.getAttribute('from'));
        to = Number(off_anim.getAttribute('to'));
        p = Math.max(0.0, Math.min(1.0, ((t - t0) / d)));
        v = from + p * (to - from);
    }
    else {
        p=1.0;
        v=0.0;
    }

    geoms = document.getElementsByClassName('geometry');
    for (i = 0; i < geoms.length; ++i) {
        geoms[i].setAttribute('filter', 'url(#panel-focus-filter)');
    }

    for (i = 0; i < ids.length; ++i) {
        geom = document.getElementById(ids[i]);
        geom.setAttribute('filter', 'inherit');
    }

    on_anim = document.getElementById('panel-focus-filter-on-anim');
    on_anim.setAttribute('from', v);
    on_anim.setAttribute('dur',  p * on_anim_dur + 's');
    on_anim.beginElement();
}


// Set all geometries to full opacity.
function unpresent_geometry()
{
    off_anim_dur = 0.3;

    on_anim = document.getElementById('panel-focus-filter-on-anim');
    try {
        t0 = Number(on_anim.getStartTime());
        t = Number(on_anim.getCurrentTime());
        d = Number(on_anim.getSimpleDuration());
        p = Math.max(0.0, Math.min(1.0, ((t - t0) / d)));
    }
    catch (err) {
        p = 1.0;
    }
    on_anim.endElement();

    from = Number(on_anim.getAttribute('from'));
    to = Number(on_anim.getAttribute('to'));
    v = from + p * (to - from);

    off_anim = document.getElementById('panel-focus-filter-off-anim');
    off_anim.setAttribute('from', v);
    dur = p * off_anim_dur
    off_anim.setAttribute('dur',  dur + 's');
    off_anim.addEventListener('endEvent', unpresent_geometry_end);
    off_anim.beginElement();

    // Webkit doesn't support the "onend" attribute, so we work arround.
    setTimeout("unpresent_geometry_end()", 1000 * dur);
}


// Called when the animation in unpresent_geometry finishes.
// Enabling a filter, even if it has no effect, adds an extra layer of
// rasterization, which tends to make things look like shit, so we clear all the
// filters when the animation ends.
function unpresent_geometry_end()
{
    // skip this function in the on_animation has been triggered since the last
    // off_animation.
    on_anim = document.getElementById('panel-focus-filter-on-anim');
    off_anim = document.getElementById('panel-focus-filter-off-anim');
    if (on_anim.getStartTime() > off_anim.getStartTime()) {
        return;
    }

    // Skip this if the off animation isn't actually finished.
    elapsed = off_anim.getCurrentTime() - off_anim.getStartTime()
    if (elapsed < off_anim.getSimpleDuration()) {
        return;
    }

    geoms = document.getElementsByClassName('geometry');
    for (i = 0; i < geoms.length; ++i) {
        geoms[i].setAttribute('filter', 'inherit');
    }
}


]]></script>
<defs>
    <!--A filter used to deemphasize out of focus geometries for mouseover
       -effects.-->
    <!-- TODO: flood-color needs to be set from the current theme -->
    <filter id="panel-focus-filter" x="-20%" y="-20%" width="140%" height="140%">
        <feFlood flood-color="#f5f5f5" flood-opacity="0.5" result="flood">
            <animate id="panel-focus-filter-off-anim"
                      attributeName="flood-opacity" attributeType="XML"
                      fill="freeze" begin="indefinite" dur="0.2s"
                      from="0.8" to="0.0" onend="unpresent_geometry_end"/>
            <animate id="panel-focus-filter-on-anim"
                      attributeName="flood-opacity" attributeType="XML"
                      fill="freeze" begin="indefinite" dur="0.1s"
                      from="0.0" to="0.8" onend="unpresent_geometry_end"/>
        </feFlood>
        <feComposite operator="atop" in="flood" in2="SourceGraphic" />
    </filter>
</defs>

</svg>
