<?xml version="1.0" encoding="UTF-8"?>
<svg xmlns="http://www.w3.org/2000/svg" xmlns:xlink="http://www.w3.org/1999/xlink" version="1.1" width="101.6mm" height="101.6mm" viewBox="0 0 101.6 101.6" style="stroke:black;fill:black" stroke-width="0.5">
<g stroke="#F2F2F2" fill="#F5F5F5">
  <path d="M 17.53 5 L 96.6 5 96.6 83.6 17.53 83.6 z" />
  <g stroke="#FFFFFF" stroke-width="0.3">
    <path d="M26,5 L 26 83.6" />
    <path d="M37.29,5 L 37.29 83.6" />
    <path d="M31.65,5 L 31.65 83.6" />
    <path d="M65.54,5 L 65.54 83.6" />
    <path d="M48.59,5 L 48.59 83.6" />
    <path d="M59.89,5 L 59.89 83.6" />
    <path d="M42.94,5 L 42.94 83.6" />
    <path d="M82.48,5 L 82.48 83.6" />
    <path d="M20.35,5 L 20.35 83.6" />
    <path d="M76.83,5 L 76.83 83.6" />
    <path d="M93.78,5 L 93.78 83.6" />
    <path d="M54.24,5 L 54.24 83.6" />
    <path d="M88.13,5 L 88.13 83.6" />
    <path d="M71.18,5 L 71.18 83.6" />
  </g>
  <g stroke="#FFFFFF" stroke-width="0.3">
    <path d="M17.53,7.22 L 96.6 7.22" />
    <path d="M17.53,51.72 L 96.6 51.72" />
    <path d="M17.53,66.55 L 96.6 66.55" />
    <path d="M17.53,81.38 L 96.6 81.38" />
    <path d="M17.53,36.89 L 96.6 36.89" />
    <path d="M17.53,22.06 L 96.6 22.06" />
  </g>
</g>
<g fill="#4682B4" stroke="#0F5D8C">
  <circle cx="20.35" cy="60.38" r="0.5" />
</g>
<g stroke-width="0.4" stroke="#0F5D8C">
  <path d="M19.41,40.55 L 21.29 40.55" />
</g>
<g stroke-width="0.4" stroke="#0F5D8C">
  <path d="M19.41,59.84 L 21.29 59.84" />
</g>
<g stroke-width="0.4" stroke="#0F5D8C">
  <path d="M20.35,47.78 L 20.35 40.55" />
</g>
<g stroke-width="0.4" stroke="#0F5D8C">
  <path d="M20.35,52.6 L 20.35 59.84" />
</g>
<g fill="#4682B4" stroke="#0F5D8C" stroke-width="0.3">
  <path d="M 18.03 52.6 L 22.67 52.6 22.67 47.78 18.03 47.78 z" />
</g>
<g stroke-width="0.4" stroke="#B8EFFF">
  <path d="M19.41,50.7 L 21.29 50.7" />
</g>
<g stroke-width="0.4" stroke="#0F5D8C">
  <path d="M25.06,18.94 L 26.94 18.94" />
</g>
<g stroke-width="0.4" stroke="#0F5D8C">
  <path d="M25.06,69.22 L 26.94 69.22" />
</g>
<g stroke-width="0.4" stroke="#0F5D8C">
  <path d="M26,37.79 L 26 18.94" />
</g>
<g stroke-width="0.4" stroke="#0F5D8C">
  <path d="M26,50.36 L 26 69.22" />
</g>
<g fill="#4682B4" stroke="#0F5D8C" stroke-width="0.3">
  <path d="M 23.67 50.36 L 28.32 50.36 28.32 37.79 23.67 37.79 z" />
</g>
<g stroke-width="0.4" stroke="#B8EFFF">
  <path d="M25.06,49.05 L 26.94 49.05" />
</g>
<g fill="#4682B4" stroke="#0F5D8C">
  <circle cx="65.54" cy="60.05" r="0.5" />
  <circle cx="65.54" cy="58.81" r="0.5" />
  <circle cx="65.54" cy="58.81" r="0.5" />
  <circle cx="65.54" cy="59.11" r="0.5" />
  <circle cx="65.54" cy="59.11" r="0.5" />
  <circle cx="65.54" cy="18.07" r="0.5" />
</g>
<g stroke-width="0.4" stroke="#0F5D8C">
  <path d="M64.59,26.66 L 66.48 26.66" />
</g>
<g stroke-width="0.4" stroke="#0F5D8C">
  <path d="M64.59,58.35 L 66.48 58.35" />
</g>
<g stroke-width="0.4" stroke="#0F5D8C">
  <path d="M65.54,38.54 L 65.54 26.66" />
</g>
<g stroke-width="0.4" stroke="#0F5D8C">
  <path d="M65.54,46.46 L 65.54 58.35" />
</g>
<g fill="#4682B4" stroke="#0F5D8C" stroke-width="0.3">
  <path d="M 63.21 46.46 L 67.86 46.46 67.86 38.54 63.21 38.54 z" />
</g>
<g stroke-width="0.4" stroke="#B8EFFF">
  <path d="M64.59,42.52 L 66.48 42.52" />
</g>
<g stroke-width="0.4" stroke="#0F5D8C">
  <path d="M81.54,22.53 L 83.42 22.53" />
</g>
<g stroke-width="0.4" stroke="#0F5D8C">
  <path d="M81.54,54.08 L 83.42 54.08" />
</g>
<g stroke-width="0.4" stroke="#0F5D8C">
  <path d="M82.48,34.36 L 82.48 22.53" />
</g>
<g stroke-width="0.4" stroke="#0F5D8C">
  <path d="M82.48,42.25 L 82.48 54.08" />
</g>
<g fill="#4682B4" stroke="#0F5D8C" stroke-width="0.3">
  <path d="M 80.16 42.25 L 84.8 42.25 84.8 34.36 80.16 34.36 z" />
</g>
<g stroke-width="0.4" stroke="#B8EFFF">
  <path d="M81.54,38.6 L 83.42 38.6" />
</g>
<g stroke-width="0.4" stroke="#0F5D8C">
  <path d="M30.7,36.87 L 32.59 36.87" />
</g>
<g stroke-width="0.4" stroke="#0F5D8C">
  <path d="M30.7,53.95 L 32.59 53.95" />
</g>
<g stroke-width="0.4" stroke="#0F5D8C">
  <path d="M31.65,43.27 L 31.65 36.87" />
</g>
<g stroke-width="0.4" stroke="#0F5D8C">
  <path d="M31.65,47.55 L 31.65 53.95" />
</g>
<g fill="#4682B4" stroke="#0F5D8C" stroke-width="0.3">
  <path d="M 29.32 47.55 L 33.97 47.55 33.97 43.27 29.32 43.27 z" />
</g>
<g stroke-width="0.4" stroke="#B8EFFF">
  <path d="M30.7,45.46 L 32.59 45.46" />
</g>
<g fill="#4682B4" stroke="#0F5D8C">
  <circle cx="93.78" cy="23.25" r="0.5" />
  <circle cx="93.78" cy="20.77" r="0.5" />
  <circle cx="93.78" cy="18.65" r="0.5" />
  <circle cx="93.78" cy="20.26" r="0.5" />
  <circle cx="93.78" cy="14.09" r="0.5" />
  <circle cx="93.78" cy="19.67" r="0.5" />
  <circle cx="93.78" cy="17.48" r="0.5" />
  <circle cx="93.78" cy="23.25" r="0.5" />
  <circle cx="93.78" cy="56.06" r="0.5" />
  <circle cx="93.78" cy="19.67" r="0.5" />
  <circle cx="93.78" cy="21.96" r="0.5" />
  <circle cx="93.78" cy="21.24" r="0.5" />
  <circle cx="93.78" cy="22.86" r="0.5" />
  <circle cx="93.78" cy="22.31" r="0.5" />
  <circle cx="93.78" cy="60.38" r="0.5" />
  <circle cx="93.78" cy="59.42" r="0.5" />
  <circle cx="93.78" cy="66.29" r="0.5" />
  <circle cx="93.78" cy="51.88" r="0.5" />
</g>
<g stroke-width="0.4" stroke="#0F5D8C">
  <path d="M92.83,23.27 L 94.72 23.27" />
</g>
<g stroke-width="0.4" stroke="#0F5D8C">
  <path d="M92.83,51.19 L 94.72 51.19" />
</g>
<g stroke-width="0.4" stroke="#0F5D8C">
  <path d="M93.78,33.74 L 93.78 23.27" />
</g>
<g stroke-width="0.4" stroke="#0F5D8C">
  <path d="M93.78,40.72 L 93.78 51.19" />
</g>
<g fill="#4682B4" stroke="#0F5D8C" stroke-width="0.3">
  <path d="M 91.45 40.72 L 96.1 40.72 96.1 33.74 91.45 33.74 z" />
</g>
<g stroke-width="0.4" stroke="#B8EFFF">
  <path d="M92.83,38.28 L 94.72 38.28" />
</g>
<g fill="#4682B4" stroke="#0F5D8C">
  <circle cx="59.89" cy="21.36" r="0.5" />
</g>
<g stroke-width="0.4" stroke="#0F5D8C">
  <path d="M58.95,25.69 L 60.83 25.69" />
</g>
<g stroke-width="0.4" stroke="#0F5D8C">
  <path d="M58.95,61.77 L 60.83 61.77" />
</g>
<g stroke-width="0.4" stroke="#0F5D8C">
  <path d="M59.89,39.22 L 59.89 25.69" />
</g>
<g stroke-width="0.4" stroke="#0F5D8C">
  <path d="M59.89,48.24 L 59.89 61.77" />
</g>
<g fill="#4682B4" stroke="#0F5D8C" stroke-width="0.3">
  <path d="M 57.56 48.24 L 62.21 48.24 62.21 39.22 57.56 39.22 z" />
</g>
<g stroke-width="0.4" stroke="#B8EFFF">
  <path d="M58.95,43.54 L 60.83 43.54" />
</g>
<g fill="#4682B4" stroke="#0F5D8C">
  <circle cx="48.59" cy="72.4" r="0.5" />
  <circle cx="48.59" cy="65.34" r="0.5" />
</g>
<g stroke-width="0.4" stroke="#0F5D8C">
  <path d="M47.65,23.22 L 49.53 23.22" />
</g>
<g stroke-width="0.4" stroke="#0F5D8C">
  <path d="M47.65,65.2 L 49.53 65.2" />
</g>
<g stroke-width="0.4" stroke="#0F5D8C">
  <path d="M48.59,38.96 L 48.59 23.22" />
</g>
<g stroke-width="0.4" stroke="#0F5D8C">
  <path d="M48.59,49.46 L 48.59 65.2" />
</g>
<g fill="#4682B4" stroke="#0F5D8C" stroke-width="0.3">
  <path d="M 46.27 49.46 L 50.91 49.46 50.91 38.96 46.27 38.96 z" />
</g>
<g stroke-width="0.4" stroke="#B8EFFF">
  <path d="M47.65,43.92 L 49.53 43.92" />
</g>
<g fill="#4682B4" stroke="#0F5D8C">
  <circle cx="54.24" cy="66.39" r="0.5" />
  <circle cx="54.24" cy="66.39" r="0.5" />
</g>
<g stroke-width="0.4" stroke="#0F5D8C">
  <path d="M53.3,26.54 L 55.18 26.54" />
</g>
<g stroke-width="0.4" stroke="#0F5D8C">
  <path d="M53.3,61.73 L 55.18 61.73" />
</g>
<g stroke-width="0.4" stroke="#0F5D8C">
  <path d="M54.24,39.74 L 54.24 26.54" />
</g>
<g stroke-width="0.4" stroke="#0F5D8C">
  <path d="M54.24,48.53 L 54.24 61.73" />
</g>
<g fill="#4682B4" stroke="#0F5D8C" stroke-width="0.3">
  <path d="M 51.91 48.53 L 56.56 48.53 56.56 39.74 51.91 39.74 z" />
</g>
<g stroke-width="0.4" stroke="#B8EFFF">
  <path d="M53.3,43.37 L 55.18 43.37" />
</g>
<g fill="#4682B4" stroke="#0F5D8C">
  <circle cx="88.13" cy="60.05" r="0.5" />
</g>
<g stroke-width="0.4" stroke="#0F5D8C">
  <path d="M87.19,19.64 L 89.07 19.64" />
</g>
<g stroke-width="0.4" stroke="#0F5D8C">
  <path d="M87.19,57.48 L 89.07 57.48" />
</g>
<g stroke-width="0.4" stroke="#0F5D8C">
  <path d="M88.13,33.83 L 88.13 19.64" />
</g>
<g stroke-width="0.4" stroke="#0F5D8C">
  <path d="M88.13,43.29 L 88.13 57.48" />
</g>
<g fill="#4682B4" stroke="#0F5D8C" stroke-width="0.3">
  <path d="M 85.8 43.29 L 90.45 43.29 90.45 33.83 85.8 33.83 z" />
</g>
<g stroke-width="0.4" stroke="#B8EFFF">
  <path d="M87.19,38.28 L 89.07 38.28" />
</g>
<g stroke-width="0.4" stroke="#0F5D8C">
  <path d="M42,24.24 L 43.88 24.24" />
</g>
<g stroke-width="0.4" stroke="#0F5D8C">
  <path d="M42,66.43 L 43.88 66.43" />
</g>
<g stroke-width="0.4" stroke="#0F5D8C">
  <path d="M42.94,40.06 L 42.94 24.24" />
</g>
<g stroke-width="0.4" stroke="#0F5D8C">
  <path d="M42.94,50.61 L 42.94 66.43" />
</g>
<g fill="#4682B4" stroke="#0F5D8C" stroke-width="0.3">
  <path d="M 40.62 50.61 L 45.27 50.61 45.27 40.06 40.62 40.06 z" />
</g>
<g stroke-width="0.4" stroke="#B8EFFF">
  <path d="M42,44.31 L 43.88 44.31" />
</g>
<g stroke-width="0.4" stroke="#0F5D8C">
  <path d="M36.35,30.83 L 38.24 30.83" />
</g>
<g stroke-width="0.4" stroke="#0F5D8C">
  <path d="M36.35,64.45 L 38.24 64.45" />
</g>
<g stroke-width="0.4" stroke="#0F5D8C">
  <path d="M37.29,43.44 L 37.29 30.83" />
</g>
<g stroke-width="0.4" stroke="#0F5D8C">
  <path d="M37.29,51.84 L 37.29 64.45" />
</g>
<g fill="#4682B4" stroke="#0F5D8C" stroke-width="0.3">
  <path d="M 34.97 51.84 L 39.62 51.84 39.62 43.44 34.97 43.44 z" />
</g>
<g stroke-width="0.4" stroke="#B8EFFF">
  <path d="M36.35,48.45 L 38.24 48.45" />
</g>
<g fill="#4682B4" stroke="#0F5D8C">
  <circle cx="76.83" cy="24.08" r="0.5" />
  <circle cx="76.83" cy="56.11" r="0.5" />
</g>
<g stroke-width="0.4" stroke="#0F5D8C">
  <path d="M75.89,25.82 L 77.77 25.82" />
</g>
<g stroke-width="0.4" stroke="#0F5D8C">
  <path d="M75.89,55.63 L 77.77 55.63" />
</g>
<g stroke-width="0.4" stroke="#0F5D8C">
  <path d="M76.83,37 L 76.83 25.82" />
</g>
<g stroke-width="0.4" stroke="#0F5D8C">
  <path d="M76.83,44.45 L 76.83 55.63" />
</g>
<g fill="#4682B4" stroke="#0F5D8C" stroke-width="0.3">
  <path d="M 74.51 44.45 L 79.16 44.45 79.16 37 74.51 37 z" />
</g>
<g stroke-width="0.4" stroke="#B8EFFF">
  <path d="M75.89,39.82 L 77.77 39.82" />
</g>
<g fill="#4682B4" stroke="#0F5D8C">
  <circle cx="71.18" cy="60.38" r="0.5" />
  <circle cx="71.18" cy="64.1" r="0.5" />
  <circle cx="71.18" cy="23.94" r="0.5" />
  <circle cx="71.18" cy="14.39" r="0.5" />
</g>
<g stroke-width="0.4" stroke="#0F5D8C">
  <path d="M70.24,25.89 L 72.12 25.89" />
</g>
<g stroke-width="0.4" stroke="#0F5D8C">
  <path d="M70.24,59.86 L 72.12 59.86" />
</g>
<g stroke-width="0.4" stroke="#0F5D8C">
  <path d="M71.18,38.63 L 71.18 25.89" />
</g>
<g stroke-width="0.4" stroke="#0F5D8C">
  <path d="M71.18,47.12 L 71.18 59.86" />
</g>
<g fill="#4682B4" stroke="#0F5D8C" stroke-width="0.3">
  <path d="M 68.86 47.12 L 73.51 47.12 73.51 38.63 68.86 38.63 z" />
</g>
<g stroke-width="0.4" stroke="#B8EFFF">
  <path d="M70.24,42.56 L 72.12 42.56" />
</g>
<g stroke="none" fill="#4C404B" font-family="Source Sans Pro" font-size="3.18">
  <text x="26" y="87.65" text-anchor="middle">5</text>
  <text x="37.29" y="87.65" text-anchor="middle">7</text>
  <text x="31.65" y="87.65" text-anchor="middle">6</text>
  <text x="65.54" y="87.65" text-anchor="middle">12</text>
  <text x="48.59" y="87.65" text-anchor="middle">9</text>
  <text x="59.89" y="87.65" text-anchor="middle">11</text>
  <text x="42.94" y="87.65" text-anchor="middle">8</text>
  <text x="82.48" y="87.65" text-anchor="middle">15</text>
  <text x="20.35" y="87.65" text-anchor="middle">4</text>
  <text x="76.83" y="87.65" text-anchor="middle">14</text>
  <text x="93.78" y="87.65" text-anchor="middle">17</text>
  <text x="54.24" y="87.65" text-anchor="middle">10</text>
  <text x="88.13" y="87.65" text-anchor="middle">16</text>
  <text x="71.18" y="87.65" text-anchor="middle">13</text>
</g>
<g stroke="none" fill="#362A35" font-family="Source Sans Pro" font-size="3.88">
  <text x="57.06" y="94.6" text-anchor="middle">ed</text>
</g>
<g stroke="none" fill="#362A35" font-family="Source Sans Pro" font-size="3.88">
  <text x="9.47" y="44.3" text-anchor="middle" style="dominant-baseline:central" transform="rotate(-90, 9.47, 44.3)">lwage</text>
</g>
<g stroke="none" fill="#4C404B" font-family="Source Sans Pro" font-size="3.18">
  <text x="16.53" y="7.22" text-anchor="end" style="dominant-baseline:central">9</text>
  <text x="16.53" y="51.72" text-anchor="end" style="dominant-baseline:central">6</text>
  <text x="16.53" y="66.55" text-anchor="end" style="dominant-baseline:central">5</text>
  <text x="16.53" y="81.38" text-anchor="end" style="dominant-baseline:central">4</text>
  <text x="16.53" y="36.89" text-anchor="end" style="dominant-baseline:central">7</text>
  <text x="16.53" y="22.06" text-anchor="end" style="dominant-baseline:central">8</text>
</g>
</svg>
