<?xml version="1.0" encoding="UTF-8"?>
<svg xmlns="http://www.w3.org/2000/svg" xmlns:xlink="http://www.w3.org/1999/xlink" version="1.1" width="152.4mm" height="101.6mm" viewBox="0 0 152.4 101.6" style="stroke:black;fill:black" stroke-width="0.5">
<g stroke="#F2F2F2" fill="#F5F5F5">
  <path d="M 19.89 5 L 147.4 5 147.4 83.6 19.89 83.6 z" />
  <g stroke="#FFFFFF" stroke-width="0.3">
    <path d="M113.72,5 L 113.72 83.6" />
    <path d="M23.5,5 L 23.5 83.6" />
    <path d="M53.57,5 L 53.57 83.6" />
    <path d="M83.65,5 L 83.65 83.6" />
    <path d="M143.79,5 L 143.79 83.6" />
  </g>
  <g stroke="#FFFFFF" stroke-width="0.3">
    <path d="M19.89,51.72 L 147.4 51.72" />
    <path d="M19.89,36.89 L 147.4 36.89" />
    <path d="M19.89,22.06 L 147.4 22.06" />
    <path d="M19.89,81.38 L 147.4 81.38" />
    <path d="M19.89,66.55 L 147.4 66.55" />
    <path d="M19.89,7.22 L 147.4 7.22" />
  </g>
</g>
<g stroke="none" stroke-width="0.3">
  <g fill="#4682B4" stroke="#0F5D8C" class="color_group_RGB(0.27450980392156865,0.5098039215686274,0.7058823529411765)">
    <circle cx="56.58" cy="36.89" r="0.5" />
    <circle cx="50.57" cy="51.72" r="0.5" />
    <circle cx="44.55" cy="45.79" r="0.5" />
    <circle cx="41.55" cy="48.75" r="0.5" />
    <circle cx="53.57" cy="33.92" r="0.5" />
    <circle cx="65.6" cy="25.02" r="0.5" />
    <circle cx="41.55" cy="39.85" r="0.5" />
    <circle cx="53.57" cy="39.85" r="0.5" />
    <circle cx="35.53" cy="54.68" r="0.5" />
    <circle cx="50.57" cy="48.75" r="0.5" />
    <circle cx="65.6" cy="30.95" r="0.5" />
    <circle cx="47.56" cy="39.85" r="0.5" />
    <circle cx="47.56" cy="51.72" r="0.5" />
    <circle cx="32.52" cy="51.72" r="0.5" />
    <circle cx="77.63" cy="22.06" r="0.5" />
    <circle cx="74.63" cy="10.19" r="0.5" />
    <circle cx="65.6" cy="25.02" r="0.5" />
    <circle cx="56.58" cy="36.89" r="0.5" />
    <circle cx="74.63" cy="27.99" r="0.5" />
    <circle cx="56.58" cy="27.99" r="0.5" />
    <circle cx="65.6" cy="39.85" r="0.5" />
    <circle cx="56.58" cy="30.95" r="0.5" />
    <circle cx="41.55" cy="33.92" r="0.5" />
    <circle cx="56.58" cy="42.82" r="0.5" />
    <circle cx="47.56" cy="39.85" r="0.5" />
    <circle cx="53.57" cy="51.72" r="0.5" />
    <circle cx="53.57" cy="39.85" r="0.5" />
    <circle cx="59.59" cy="36.89" r="0.5" />
    <circle cx="59.59" cy="39.85" r="0.5" />
    <circle cx="44.55" cy="45.79" r="0.5" />
    <circle cx="47.56" cy="48.75" r="0.5" />
    <circle cx="65.6" cy="39.85" r="0.5" />
    <circle cx="59.59" cy="19.09" r="0.5" />
    <circle cx="68.61" cy="16.12" r="0.5" />
    <circle cx="50.57" cy="48.75" r="0.5" />
    <circle cx="53.57" cy="45.79" r="0.5" />
    <circle cx="68.61" cy="36.89" r="0.5" />
    <circle cx="50.57" cy="33.92" r="0.5" />
    <circle cx="35.53" cy="51.72" r="0.5" />
    <circle cx="56.58" cy="39.85" r="0.5" />
    <circle cx="53.57" cy="36.89" r="0.5" />
    <circle cx="38.54" cy="72.48" r="0.5" />
    <circle cx="35.53" cy="45.79" r="0.5" />
    <circle cx="53.57" cy="36.89" r="0.5" />
    <circle cx="56.58" cy="27.99" r="0.5" />
    <circle cx="47.56" cy="51.72" r="0.5" />
    <circle cx="56.58" cy="27.99" r="0.5" />
    <circle cx="41.55" cy="45.79" r="0.5" />
    <circle cx="62.6" cy="30.95" r="0.5" />
    <circle cx="53.57" cy="42.82" r="0.5" />
    <circle cx="113.72" cy="45.79" r="0.5" />
    <circle cx="95.68" cy="45.79" r="0.5" />
    <circle cx="110.71" cy="48.75" r="0.5" />
    <circle cx="68.61" cy="72.48" r="0.5" />
    <circle cx="98.68" cy="57.65" r="0.5" />
    <circle cx="74.63" cy="57.65" r="0.5" />
    <circle cx="92.67" cy="42.82" r="0.5" />
    <circle cx="50.57" cy="69.51" r="0.5" />
    <circle cx="101.69" cy="54.68" r="0.5" />
    <circle cx="59.59" cy="60.62" r="0.5" />
    <circle cx="53.57" cy="81.38" r="0.5" />
    <circle cx="80.64" cy="51.72" r="0.5" />
    <circle cx="83.65" cy="75.45" r="0.5" />
    <circle cx="86.65" cy="54.68" r="0.5" />
    <circle cx="71.62" cy="54.68" r="0.5" />
    <circle cx="104.7" cy="48.75" r="0.5" />
    <circle cx="71.62" cy="51.72" r="0.5" />
    <circle cx="77.63" cy="60.62" r="0.5" />
    <circle cx="89.66" cy="75.45" r="0.5" />
    <circle cx="71.62" cy="66.55" r="0.5" />
    <circle cx="80.64" cy="45.79" r="0.5" />
    <circle cx="86.65" cy="57.65" r="0.5" />
    <circle cx="92.67" cy="66.55" r="0.5" />
    <circle cx="86.65" cy="57.65" r="0.5" />
    <circle cx="95.68" cy="54.68" r="0.5" />
    <circle cx="101.69" cy="51.72" r="0.5" />
    <circle cx="107.7" cy="57.65" r="0.5" />
    <circle cx="104.7" cy="51.72" r="0.5" />
    <circle cx="83.65" cy="54.68" r="0.5" />
    <circle cx="74.63" cy="63.58" r="0.5" />
    <circle cx="68.61" cy="69.51" r="0.5" />
    <circle cx="68.61" cy="69.51" r="0.5" />
    <circle cx="77.63" cy="60.62" r="0.5" />
    <circle cx="83.65" cy="60.62" r="0.5" />
    <circle cx="65.6" cy="51.72" r="0.5" />
    <circle cx="83.65" cy="39.85" r="0.5" />
    <circle cx="104.7" cy="48.75" r="0.5" />
    <circle cx="92.67" cy="72.48" r="0.5" />
    <circle cx="71.62" cy="51.72" r="0.5" />
    <circle cx="68.61" cy="66.55" r="0.5" />
    <circle cx="68.61" cy="63.58" r="0.5" />
    <circle cx="86.65" cy="51.72" r="0.5" />
    <circle cx="77.63" cy="63.58" r="0.5" />
    <circle cx="53.57" cy="72.48" r="0.5" />
    <circle cx="71.62" cy="60.62" r="0.5" />
    <circle cx="74.63" cy="51.72" r="0.5" />
    <circle cx="74.63" cy="54.68" r="0.5" />
    <circle cx="89.66" cy="54.68" r="0.5" />
    <circle cx="56.58" cy="66.55" r="0.5" />
    <circle cx="74.63" cy="57.65" r="0.5" />
    <circle cx="92.67" cy="42.82" r="0.5" />
    <circle cx="77.63" cy="60.62" r="0.5" />
    <circle cx="116.73" cy="51.72" r="0.5" />
    <circle cx="92.67" cy="54.68" r="0.5" />
    <circle cx="98.68" cy="51.72" r="0.5" />
    <circle cx="131.76" cy="51.72" r="0.5" />
    <circle cx="50.57" cy="66.55" r="0.5" />
    <circle cx="122.74" cy="54.68" r="0.5" />
    <circle cx="104.7" cy="66.55" r="0.5" />
    <circle cx="119.73" cy="33.92" r="0.5" />
    <circle cx="98.68" cy="45.79" r="0.5" />
    <circle cx="95.68" cy="60.62" r="0.5" />
    <circle cx="107.7" cy="51.72" r="0.5" />
    <circle cx="74.63" cy="66.55" r="0.5" />
    <circle cx="77.63" cy="57.65" r="0.5" />
    <circle cx="95.68" cy="45.79" r="0.5" />
    <circle cx="98.68" cy="51.72" r="0.5" />
    <circle cx="134.77" cy="27.99" r="0.5" />
    <circle cx="134.77" cy="63.58" r="0.5" />
    <circle cx="83.65" cy="75.45" r="0.5" />
    <circle cx="110.71" cy="45.79" r="0.5" />
    <circle cx="71.62" cy="57.65" r="0.5" />
    <circle cx="134.77" cy="57.65" r="0.5" />
    <circle cx="92.67" cy="60.62" r="0.5" />
    <circle cx="104.7" cy="42.82" r="0.5" />
    <circle cx="119.73" cy="45.79" r="0.5" />
    <circle cx="89.66" cy="57.65" r="0.5" />
    <circle cx="86.65" cy="51.72" r="0.5" />
    <circle cx="95.68" cy="57.65" r="0.5" />
    <circle cx="119.73" cy="51.72" r="0.5" />
    <circle cx="125.75" cy="57.65" r="0.5" />
    <circle cx="140.78" cy="27.99" r="0.5" />
    <circle cx="95.68" cy="57.65" r="0.5" />
    <circle cx="92.67" cy="57.65" r="0.5" />
    <circle cx="86.65" cy="63.58" r="0.5" />
    <circle cx="134.77" cy="51.72" r="0.5" />
    <circle cx="92.67" cy="39.85" r="0.5" />
    <circle cx="95.68" cy="48.75" r="0.5" />
    <circle cx="83.65" cy="51.72" r="0.5" />
    <circle cx="110.71" cy="48.75" r="0.5" />
    <circle cx="104.7" cy="48.75" r="0.5" />
    <circle cx="110.71" cy="48.75" r="0.5" />
    <circle cx="77.63" cy="60.62" r="0.5" />
    <circle cx="107.7" cy="45.79" r="0.5" />
    <circle cx="104.7" cy="42.82" r="0.5" />
    <circle cx="104.7" cy="51.72" r="0.5" />
    <circle cx="92.67" cy="66.55" r="0.5" />
    <circle cx="98.68" cy="51.72" r="0.5" />
    <circle cx="89.66" cy="39.85" r="0.5" />
    <circle cx="80.64" cy="51.72" r="0.5" />
  </g>
</g>
<g stroke="none" fill="#4C404B" font-family="Source Sans Pro" font-size="3.18">
  <text x="113.72" y="87.65" text-anchor="middle">7</text>
  <text x="23.5" y="87.65" text-anchor="middle">4</text>
  <text x="53.57" y="87.65" text-anchor="middle">5</text>
  <text x="83.65" y="87.65" text-anchor="middle">6</text>
  <text x="143.79" y="87.65" text-anchor="middle">8</text>
</g>
<g stroke="none" fill="#362A35" font-family="Source Sans Pro" font-size="3.88">
  <text x="83.65" y="94.6" text-anchor="middle">Sepal.Length</text>
</g>
<g stroke="none" fill="#362A35" font-family="Source Sans Pro" font-size="3.88">
  <text x="9.47" y="44.3" text-anchor="middle" style="dominant-baseline:central" transform="rotate(-90, 9.47, 44.3)">Sepal.Width</text>
</g>
<g stroke="none" fill="#4C404B" font-family="Source Sans Pro" font-size="3.18">
  <text x="18.89" y="51.72" text-anchor="end" style="dominant-baseline:central">3</text>
  <text x="18.89" y="36.89" text-anchor="end" style="dominant-baseline:central">3.5</text>
  <text x="18.89" y="22.06" text-anchor="end" style="dominant-baseline:central">4</text>
  <text x="18.89" y="81.38" text-anchor="end" style="dominant-baseline:central">2</text>
  <text x="18.89" y="66.55" text-anchor="end" style="dominant-baseline:central">2.5</text>
  <text x="18.89" y="7.22" text-anchor="end" style="dominant-baseline:central">4.5</text>
</g>
</svg>
