<?xml version="1.0" encoding="UTF-8"?>
<svg xmlns="http://www.w3.org/2000/svg" xmlns:xlink="http://www.w3.org/1999/xlink" version="1.1" width="152.4mm" height="76.2mm" viewBox="0 0 152.4 76.2" style="stroke:black;fill:black" stroke-width="0.5">
<g stroke="#F2F2F2" fill="#F5F5F5">
  <path d="M 20.88 5 L 136.56 5 136.56 58.2 20.88 58.2 z" />
  <g stroke="#FFFFFF" stroke-width="0.3">
    <path d="M133.28,5 L 133.28 58.2" />
    <path d="M89.63,5 L 89.63 58.2" />
    <path d="M24.16,5 L 24.16 58.2" />
    <path d="M45.98,5 L 45.98 58.2" />
    <path d="M111.46,5 L 111.46 58.2" />
    <path d="M67.81,5 L 67.81 58.2" />
  </g>
  <g stroke="#FFFFFF" stroke-width="0.3">
    <path d="M20.88,44.15 L 136.56 44.15" />
    <path d="M20.88,56.7 L 136.56 56.7" />
    <path d="M20.88,31.6 L 136.56 31.6" />
    <path d="M20.88,19.05 L 136.56 19.05" />
    <path d="M20.88,6.51 L 136.56 6.51" />
  </g>
</g>
<g fill="none" stroke-width="0.4">
  <g stroke="#FF81AD" class="color_group_f&lt;sub&gt;1&lt;/sub&gt;">
    <path d="M24.16,31.6 L 24.59 29.1 25.03 26.62 25.46 24.19 25.9 21.83 26.34 19.57 26.77 17.43 27.21 15.43 27.65 13.6 28.08 11.94 28.52 10.48 28.96 9.24 29.39 8.21 29.83 7.42 30.27 6.87 30.7 6.57 31.14 6.52 31.58 6.71 32.01 7.16 32.45 7.85 32.89 8.78 33.32 9.94 33.76 11.31 34.2 12.89 34.63 14.65 35.07 16.58 35.5 18.66 35.94 20.88 36.38 23.2 36.81 25.6 37.25 28.06 37.69 30.56 38.12 33.07 38.56 35.56 39 38.02 39.43 40.41 39.87 42.71 40.31 44.9 40.74 46.96 41.18 48.86 41.62 50.6 42.05 52.14 42.49 53.48 42.93 54.59 43.36 55.48 43.8 56.13 44.24 56.54 44.67 56.7 45.11 56.6 45.54 56.26 45.98 55.67 46.42 54.84 46.85 53.77 47.29 52.49 47.73 51 48.16 49.31 48.6 47.44 49.04 45.42 49.47 43.26 49.91 40.99 50.35 38.61 50.78 36.17 51.22 33.69 51.66 31.18 52.09 28.68 52.53 26.2 52.97 23.78 53.4 21.44 53.84 19.2 54.27 17.09 54.71 15.11 55.15 13.31 55.58 11.68 56.02 10.26 56.46 9.05 56.89 8.06 57.33 7.31 57.77 6.8 58.2 6.54 58.64 6.53 59.08 6.77 59.51 7.26 59.95 7.99 60.39 8.96 60.82 10.15 61.26 11.56 61.7 13.17 62.13 14.96 62.57 16.92 63.01 19.03 63.44 21.26 63.88 23.59 64.31 26.01 64.75 28.48 65.19 30.98 65.62 33.49 66.06 35.98 66.5 38.42 66.93 40.8 67.37 43.08 67.81 45.26 68.24 47.29 68.68 49.17 69.12 50.87 69.55 52.38 69.99 53.68 70.43 54.76 70.86 55.61 71.3 56.22 71.74 56.58 72.17 56.7 72.61 56.56 73.05 56.18 73.48 55.54 73.92 54.67 74.35 53.57 74.79 52.25 75.23 50.73 75.66 49.01 76.1 47.12 76.54 45.07 76.97 42.89 77.41 40.59 77.85 38.21 78.28 35.76 78.72 33.27 79.16 30.76 79.59 28.26 80.03 25.79 80.47 23.38 80.9 21.06 81.34 18.84 81.78 16.74 82.21 14.8 82.65 13.02 83.08 11.43 83.52 10.04 83.96 8.87 84.39 7.92 84.83 7.21 85.27 6.74 85.7 6.52 86.14 6.56 86.58 6.84 87.01 7.37 87.45 8.14 87.89 9.15 88.32 10.38 88.76 11.82 89.2 13.46 89.63 15.28 90.07 17.27 90.51 19.4 90.94 21.65 91.38 23.99 91.82 26.42 92.25 28.9 92.69 31.4 93.12 33.91 93.56 36.39 94 38.83 94.43 41.19 94.87 43.46 95.31 45.61 95.74 47.62 96.18 49.47 96.62 51.14 97.05 52.61 97.49 53.88 97.93 54.92 98.36 55.73 98.8 56.3 99.24 56.62 99.67 56.69 100.11 56.51 100.55 56.09 100.98 55.41 101.42 54.5 101.86 53.37 102.29 52.01 102.73 50.45 103.16 48.7 103.6 46.78 104.04 44.71 104.47 42.51 104.91 40.2 105.35 37.8 105.78 35.34 106.22 32.85 106.66 30.34 107.09 27.84 107.53 25.38 107.97 22.99 108.4 20.68 108.84 18.48 109.28 16.41 109.71 14.49 110.15 12.74 110.59 11.18 111.02 9.83 111.46 8.69 111.89 7.78 112.33 7.11 112.77 6.69 113.2 6.51 113.64 6.59 114.08 6.91 114.51 7.48 114.95 8.29 115.39 9.34 115.82 10.61 116.26 12.08 116.7 13.75 117.13 15.61 117.57 17.62 118.01 19.77 118.44 22.03 118.88 24.4 119.32 26.83 119.75 29.32 120.19 31.82 120.63 34.33 121.06 36.81 121.5 39.23 121.93 41.58 122.37 43.83 122.81 45.96 123.24 47.94 123.68 49.76 124.12 51.4 124.55 52.84 124.99 54.07 125.43 55.07 125.86 55.84 126.3 56.37 126.74 56.65 127.17 56.68 127.61 56.46 128.05 55.99 128.48 55.28 128.92 54.33 129.36 53.15 129.79 51.76 130.23 50.17 130.66 48.39 131.1 46.44 131.54 44.35 131.97 42.13 132.41 39.8 132.85 37.39 133.28 34.92" />
  </g>
  <g stroke="#00C3AA" class="color_group_f&lt;sub&gt;2&lt;/sub&gt;">
    <path d="M24.16,6.51 L 24.59 6.63 25.03 7.01 25.46 7.63 25.9 8.49 26.34 9.58 26.77 10.89 27.21 12.41 27.65 14.12 28.08 16 28.52 18.04 28.96 20.22 29.39 22.51 29.83 24.89 30.27 27.34 30.7 29.83 31.14 32.33 31.58 34.84 32.01 37.3 32.45 39.72 32.89 42.05 33.32 44.27 33.76 46.37 34.2 48.32 34.63 50.11 35.07 51.71 35.5 53.11 35.94 54.29 36.38 55.25 36.81 55.97 37.25 56.45 37.69 56.68 38.12 56.66 38.56 56.38 39 55.87 39.43 55.1 39.87 54.11 40.31 52.89 40.74 51.45 41.18 49.82 41.62 48.01 42.05 46.03 42.49 43.91 42.93 41.66 43.36 39.32 43.8 36.89 44.24 34.42 44.67 31.91 45.11 29.41 45.54 26.92 45.98 24.48 46.42 22.12 46.85 19.84 47.29 17.69 47.73 15.67 48.16 13.82 48.6 12.14 49.04 10.65 49.47 9.38 49.91 8.33 50.35 7.51 50.78 6.93 51.22 6.59 51.66 6.51 52.09 6.68 52.53 7.09 52.97 7.75 53.4 8.65 53.84 9.78 54.27 11.13 54.71 12.68 55.15 14.42 55.58 16.33 56.02 18.4 56.46 20.6 56.89 22.9 57.33 25.3 57.77 27.75 58.2 30.25 58.64 32.76 59.08 35.25 59.51 37.71 59.95 40.11 60.39 42.43 60.82 44.63 61.26 46.71 61.7 48.64 62.13 50.39 62.57 51.96 63.01 53.32 63.44 54.47 63.88 55.39 64.31 56.07 64.75 56.5 65.19 56.69 65.62 56.63 66.06 56.31 66.5 55.75 66.93 54.95 67.37 53.92 67.81 52.66 68.24 51.19 68.68 49.53 69.12 47.68 69.55 45.68 69.99 43.54 70.43 41.27 70.86 38.91 71.3 36.48 71.74 34 72.17 31.49 72.61 28.99 73.05 26.51 73.48 24.08 73.92 21.73 74.35 19.47 74.79 17.34 75.23 15.35 75.66 13.52 76.1 11.87 76.54 10.42 76.97 9.19 77.41 8.17 77.85 7.39 78.28 6.85 78.72 6.56 79.16 6.52 79.59 6.73 80.03 7.19 80.47 7.89 80.9 8.83 81.34 10 81.78 11.38 82.21 12.96 82.65 14.73 83.08 16.67 83.52 18.76 83.96 20.98 84.39 23.3 84.83 25.71 85.27 28.17 85.7 30.67 86.14 33.18 86.58 35.67 87.01 38.12 87.45 40.51 87.89 42.81 88.32 44.99 88.76 47.05 89.2 48.94 89.63 50.67 90.07 52.2 90.51 53.53 90.94 54.64 91.38 55.52 91.82 56.16 92.25 56.55 92.69 56.7 93.12 56.59 93.56 56.24 94 55.64 94.43 54.79 94.87 53.72 95.31 52.43 95.74 50.92 96.18 49.23 96.62 47.36 97.05 45.33 97.49 43.16 97.93 40.88 98.36 38.51 98.8 36.06 99.24 33.58 99.67 31.07 100.11 28.57 100.55 26.09 100.98 23.68 101.42 21.34 101.86 19.11 102.29 16.99 102.73 15.03 103.16 13.23 103.6 11.62 104.04 10.2 104.47 9 104.91 8.02 105.35 7.28 105.78 6.79 106.22 6.54 106.66 6.54 107.09 6.79 107.53 7.29 107.97 8.03 108.4 9.01 108.84 10.21 109.28 11.63 109.71 13.25 110.15 15.05 110.59 17.01 111.02 19.12 111.46 21.36 111.89 23.7 112.33 26.12 112.77 28.59 113.2 31.09 113.64 33.6 114.08 36.09 114.51 38.53 114.95 40.9 115.39 43.18 115.82 45.35 116.26 47.38 116.7 49.25 117.13 50.94 117.57 52.44 118.01 53.73 118.44 54.8 118.88 55.64 119.32 56.24 119.75 56.59 120.19 56.7 120.63 56.55 121.06 56.15 121.5 55.51 121.93 54.63 122.37 53.52 122.81 52.19 123.24 50.65 123.68 48.93 124.12 47.03 124.55 44.97 124.99 42.79 125.43 40.49 125.86 38.1 126.3 35.65 126.74 33.16 127.17 30.65 127.61 28.15 128.05 25.68 128.48 23.28 128.92 20.96 129.36 18.74 129.79 16.65 130.23 14.72 130.66 12.95 131.1 11.36 131.54 9.98 131.97 8.82 132.41 7.88 132.85 7.18 133.28 6.73" />
  </g>
</g>
<g font-family="Source Sans Pro" font-size="3.18">
  <a xlink:href="#"><g onclick="js_chunk_d58f5b84949ff6ed(evt)" id="color_key_f&lt;sub&gt;1&lt;/sub&gt;">
    <g fill="#FF81AD" stroke="#D65886" stroke-width="0.3">
      <path d="M 138.56 30.48 L 144.16 30.48 144.16 36.08 138.56 36.08 z" />
    </g>
    <g stroke="none" fill="#4C404B">
      <text x="145.16" y="33.28" style="dominant-baseline:central">f<tspan baseline-shift="-1.722547743055555358" font-size="83.333333%">1</tspan></text>
    </g>
  </g></a>
  <a xlink:href="#"><g onclick="js_chunk_516a0d0c8c554f4b(evt)" id="color_key_f&lt;sub&gt;2&lt;/sub&gt;">
    <g fill="#00C3AA" stroke="#009A82" stroke-width="0.3">
      <path d="M 138.56 37.08 L 144.16 37.08 144.16 42.68 138.56 42.68 z" />
    </g>
    <g stroke="none" fill="#4C404B">
      <text x="145.16" y="39.88" style="dominant-baseline:central">f<tspan baseline-shift="-1.722547743055555358" font-size="83.333333%">2</tspan></text>
    </g>
  </g></a>
</g>
<g stroke="none" fill="#362A35" font-family="Source Sans Pro" font-size="3.88">
  <text x="141.98" y="28.48" text-anchor="middle">f</text>
</g>
<g stroke="none" fill="#4C404B" font-family="Source Sans Pro" font-size="3.18">
  <text x="133.28" y="62.25" text-anchor="middle">25</text>
  <text x="89.63" y="62.25" text-anchor="middle">15</text>
  <text x="24.16" y="62.25" text-anchor="middle">0</text>
  <text x="45.98" y="62.25" text-anchor="middle">5</text>
  <text x="111.46" y="62.25" text-anchor="middle">20</text>
  <text x="67.81" y="62.25" text-anchor="middle">10</text>
</g>
<g stroke="none" fill="#362A35" font-family="Source Sans Pro" font-size="3.88">
  <text x="78.72" y="69.2" text-anchor="middle">x</text>
</g>
<g stroke="none" fill="#362A35" font-family="Source Sans Pro" font-size="3.88">
  <text x="9.47" y="31.6" text-anchor="middle" style="dominant-baseline:central" transform="rotate(-90, 9.47, 31.6)">f(x)</text>
</g>
<g stroke="none" fill="#4C404B" font-family="Source Sans Pro" font-size="3.18">
  <text x="19.88" y="44.15" text-anchor="end" style="dominant-baseline:central">-0.5</text>
  <text x="19.88" y="56.7" text-anchor="end" style="dominant-baseline:central">-1</text>
  <text x="19.88" y="31.6" text-anchor="end" style="dominant-baseline:central">0</text>
  <text x="19.88" y="19.05" text-anchor="end" style="dominant-baseline:central">0.5</text>
  <text x="19.88" y="6.51" text-anchor="end" style="dominant-baseline:central">1</text>
</g>
<script type="application/ecmascript"><![CDATA[
function js_chunk_516a0d0c8c554f4b(evt) {
  geoms = document.getElementsByClassName('color_group_f<sub>2</sub>');
                        entry = document.getElementById('color_key_f<sub>2</sub>');
                        state = geoms[0].getAttribute('visibility');
                        if (!state || state == 'visible') {
                            for (i = 0; i < geoms.length; ++i) {
                                geoms[i].setAttribute('visibility', 'hidden');
                            }
                            entry.setAttribute('opacity', 0.5);
                        } else {
                            for (i = 0; i < geoms.length; ++i) {
                                geoms[i].setAttribute('visibility', 'visible');
                            }
                            entry.setAttribute('opacity', 1.0);
                        }
}

function js_chunk_d58f5b84949ff6ed(evt) {
  geoms = document.getElementsByClassName('color_group_f<sub>1</sub>');
                        entry = document.getElementById('color_key_f<sub>1</sub>');
                        state = geoms[0].getAttribute('visibility');
                        if (!state || state == 'visible') {
                            for (i = 0; i < geoms.length; ++i) {
                                geoms[i].setAttribute('visibility', 'hidden');
                            }
                            entry.setAttribute('opacity', 0.5);
                        } else {
                            for (i = 0; i < geoms.length; ++i) {
                                geoms[i].setAttribute('visibility', 'visible');
                            }
                            entry.setAttribute('opacity', 1.0);
                        }
}

]]></script></svg>
