<?xml version="1.0" encoding="UTF-8"?>
<svg xmlns="http://www.w3.org/2000/svg" xmlns:xlink="http://www.w3.org/1999/xlink" version="1.1" width="127mm" height="101.6mm" viewBox="0 0 127 101.6" style="stroke:black;fill:black" stroke-width="0.5">
<g>
  <g stroke="none" font-family="PT Sans,Helvetica Neue,Helvetica,sans" font-size="3.18" fill="#4C404B">
    <text x="17.44" y="63.35" text-anchor="end" style="dominant-baseline:central">-2</text>
    <text x="17.44" y="7.24" text-anchor="end" style="dominant-baseline:central">4</text>
    <text x="17.44" y="44.65" text-anchor="end" style="dominant-baseline:central">0</text>
    <text x="17.44" y="25.95" text-anchor="end" style="dominant-baseline:central">2</text>
    <text x="17.44" y="82.06" text-anchor="end" style="dominant-baseline:central">-4</text>
  </g>
  <g stroke="none" font-family="PT Sans,Helvetica Neue,Helvetica,sans" font-size="3.88" fill="#362A35">
    <text x="9.28" y="44.65" text-anchor="middle" style="dominant-baseline:central" transform="rotate(-90, 9.28, 44.65)">y</text>
  </g>
  <g stroke="none" font-family="PT Sans,Helvetica Neue,Helvetica,sans" font-size="3.18" fill="#4C404B">
    <text x="38.13" y="88.04" text-anchor="middle">-2</text>
    <text x="106.61" y="88.04" text-anchor="middle">6</text>
    <text x="55.25" y="88.04" text-anchor="middle">0</text>
    <text x="89.49" y="88.04" text-anchor="middle">4</text>
    <text x="72.37" y="88.04" text-anchor="middle">2</text>
    <text x="21" y="88.04" text-anchor="middle">-4</text>
  </g>
  <g stroke="none" font-family="PT Sans,Helvetica Neue,Helvetica,sans" font-size="3.88" fill="#362A35">
    <text x="63.81" y="94.6" text-anchor="middle">x</text>
  </g>
  <g stroke="none" font-family="PT Sans,Helvetica Neue,Helvetica,sans" font-size="3.88" fill="#362A35">
    <text x="115.59" y="41.33" text-anchor="middle">Count</text>
  </g>
  <g stroke="none" font-family="PT Sans,Helvetica Neue,Helvetica,sans" font-size="3.18">
    <g stroke-width="0.3" fill="#0065A5">
      <path d="M 111.17 51.8 L 114.91 51.8 114.91 52.9 111.17 52.9 z" />
    </g>
    <g stroke-width="0.3" fill="#74CDFF">
      <path d="M 111.17 47.07 L 114.91 47.07 114.91 48.17 111.17 48.17 z" />
    </g>
    <g fill="#4C404B">
      <text x="115.91" y="45.2" style="dominant-baseline:central">100</text>
    </g>
    <g stroke-width="0.3" fill="#B3FFFF">
      <path d="M 111.17 43.33 L 114.91 43.33 114.91 47.17 111.17 47.17 z" />
    </g>
    <g fill="#4C404B">
      <text x="115.91" y="49.93" style="dominant-baseline:central">50</text>
    </g>
    <g stroke-width="0.3" fill="#2A97DC">
      <path d="M 111.17 48.07 L 114.91 48.07 114.91 51.9 111.17 51.9 z" />
    </g>
    <g fill="#4C404B">
      <text x="115.91" y="54.67" style="dominant-baseline:central">1</text>
    </g>
    <g stroke-width="0.3" fill="#003771">
      <path d="M 111.17 52.8 L 114.91 52.8 114.91 56.63 111.17 56.63 z" />
    </g>
  </g>
  <g stroke="#FFFFFF" fill="#FFFFFF">
    <path d="M 18.44 5 L 109.17 5 109.17 84.3 18.44 84.3 z" />
  </g>
  <g stroke-width="0.3" stroke="#F5F5F5">
    <path d="M18.44,63.35 L 109.17 63.35" />
    <path d="M18.44,7.24 L 109.17 7.24" />
    <path d="M18.44,44.65 L 109.17 44.65" />
    <path d="M18.44,25.95 L 109.17 25.95" />
    <path d="M18.44,82.06 L 109.17 82.06" />
  </g>
  <g stroke-width="0.3" stroke="#F5F5F5">
    <path d="M38.13,5 L 38.13 84.3" />
    <path d="M106.61,5 L 106.61 84.3" />
    <path d="M55.25,5 L 55.25 84.3" />
    <path d="M89.49,5 L 89.49 84.3" />
    <path d="M72.37,5 L 72.37 84.3" />
    <path d="M21,5 L 21 84.3" />
  </g>
  <g stroke="none" shape-rendering="crispEdges">
    <g class="geometry" fill="#003771">
      <path d="M 26.8 76.94 L 29.59 76.94 29.59 74.08 26.8 74.08 z" />
    </g>
    <g class="geometry" fill="#003771">
      <path d="M 32.38 76.94 L 35.17 76.94 35.17 74.08 32.38 74.08 z" />
    </g>
    <g class="geometry" fill="#003771">
      <path d="M 26.8 74.08 L 29.59 74.08 29.59 71.23 26.8 71.23 z" />
    </g>
    <g class="geometry" fill="#003973">
      <path d="M 32.38 74.08 L 35.17 74.08 35.17 71.23 32.38 71.23 z" />
    </g>
    <g class="geometry" fill="#003973">
      <path d="M 35.17 74.08 L 37.96 74.08 37.96 71.23 35.17 71.23 z" />
    </g>
    <g class="geometry" fill="#003973">
      <path d="M 37.96 74.08 L 40.75 74.08 40.75 71.23 37.96 71.23 z" />
    </g>
    <g class="geometry" fill="#003771">
      <path d="M 46.33 74.08 L 49.12 74.08 49.12 71.23 46.33 71.23 z" />
    </g>
    <g class="geometry" fill="#003771">
      <path d="M 32.38 71.23 L 35.17 71.23 35.17 68.37 32.38 68.37 z" />
    </g>
    <g class="geometry" fill="#003973">
      <path d="M 35.17 71.23 L 37.96 71.23 37.96 68.37 35.17 68.37 z" />
    </g>
    <g class="geometry" fill="#003771">
      <path d="M 40.75 71.23 L 43.54 71.23 43.54 68.37 40.75 68.37 z" />
    </g>
    <g class="geometry" fill="#003973">
      <path d="M 24.01 68.37 L 26.8 68.37 26.8 65.51 24.01 65.51 z" />
    </g>
    <g class="geometry" fill="#003771">
      <path d="M 26.8 68.37 L 29.59 68.37 29.59 65.51 26.8 65.51 z" />
    </g>
    <g class="geometry" fill="#003771">
      <path d="M 29.59 68.37 L 32.38 68.37 32.38 65.51 29.59 65.51 z" />
    </g>
    <g class="geometry" fill="#003973">
      <path d="M 32.38 68.37 L 35.17 68.37 35.17 65.51 32.38 65.51 z" />
    </g>
    <g class="geometry" fill="#003B75">
      <path d="M 37.96 68.37 L 40.75 68.37 40.75 65.51 37.96 65.51 z" />
    </g>
    <g class="geometry" fill="#003B75">
      <path d="M 40.75 68.37 L 43.54 68.37 43.54 65.51 40.75 65.51 z" />
    </g>
    <g class="geometry" fill="#003E79">
      <path d="M 43.54 68.37 L 46.33 68.37 46.33 65.51 43.54 65.51 z" />
    </g>
    <g class="geometry" fill="#003973">
      <path d="M 46.33 68.37 L 49.12 68.37 49.12 65.51 46.33 65.51 z" />
    </g>
    <g class="geometry" fill="#003B75">
      <path d="M 49.12 68.37 L 51.9 68.37 51.9 65.51 49.12 65.51 z" />
    </g>
    <g class="geometry" fill="#003771">
      <path d="M 51.9 68.37 L 54.69 68.37 54.69 65.51 51.9 65.51 z" />
    </g>
    <g class="geometry" fill="#003C77">
      <path d="M 54.69 68.37 L 57.48 68.37 57.48 65.51 54.69 65.51 z" />
    </g>
    <g class="geometry" fill="#003973">
      <path d="M 57.48 68.37 L 60.27 68.37 60.27 65.51 57.48 65.51 z" />
    </g>
    <g class="geometry" fill="#003771">
      <path d="M 60.27 68.37 L 63.06 68.37 63.06 65.51 60.27 65.51 z" />
    </g>
    <g class="geometry" fill="#003771">
      <path d="M 63.06 68.37 L 65.85 68.37 65.85 65.51 63.06 65.51 z" />
    </g>
    <g class="geometry" fill="#003771">
      <path d="M 24.01 65.51 L 26.8 65.51 26.8 62.66 24.01 62.66 z" />
    </g>
    <g class="geometry" fill="#003973">
      <path d="M 29.59 65.51 L 32.38 65.51 32.38 62.66 29.59 62.66 z" />
    </g>
    <g class="geometry" fill="#003B75">
      <path d="M 32.38 65.51 L 35.17 65.51 35.17 62.66 32.38 62.66 z" />
    </g>
    <g class="geometry" fill="#004986">
      <path d="M 35.17 65.51 L 37.96 65.51 37.96 62.66 35.17 62.66 z" />
    </g>
    <g class="geometry" fill="#003E79">
      <path d="M 37.96 65.51 L 40.75 65.51 40.75 62.66 37.96 62.66 z" />
    </g>
    <g class="geometry" fill="#004582">
      <path d="M 40.75 65.51 L 43.54 65.51 43.54 62.66 40.75 62.66 z" />
    </g>
    <g class="geometry" fill="#004D8A">
      <path d="M 43.54 65.51 L 46.33 65.51 46.33 62.66 43.54 62.66 z" />
    </g>
    <g class="geometry" fill="#004986">
      <path d="M 46.33 65.51 L 49.12 65.51 49.12 62.66 46.33 62.66 z" />
    </g>
    <g class="geometry" fill="#004B88">
      <path d="M 49.12 65.51 L 51.9 65.51 51.9 62.66 49.12 62.66 z" />
    </g>
    <g class="geometry" fill="#003771">
      <path d="M 51.9 65.51 L 54.69 65.51 54.69 62.66 51.9 62.66 z" />
    </g>
    <g class="geometry" fill="#003B75">
      <path d="M 54.69 65.51 L 57.48 65.51 57.48 62.66 54.69 62.66 z" />
    </g>
    <g class="geometry" fill="#003771">
      <path d="M 63.06 65.51 L 65.85 65.51 65.85 62.66 63.06 62.66 z" />
    </g>
    <g class="geometry" fill="#003771">
      <path d="M 26.8 62.66 L 29.59 62.66 29.59 59.8 26.8 59.8 z" />
    </g>
    <g class="geometry" fill="#00407B">
      <path d="M 32.38 62.66 L 35.17 62.66 35.17 59.8 32.38 59.8 z" />
    </g>
    <g class="geometry" fill="#00427D">
      <path d="M 35.17 62.66 L 37.96 62.66 37.96 59.8 35.17 59.8 z" />
    </g>
    <g class="geometry" fill="#004582">
      <path d="M 37.96 62.66 L 40.75 62.66 40.75 59.8 37.96 59.8 z" />
    </g>
    <g class="geometry" fill="#004B88">
      <path d="M 40.75 62.66 L 43.54 62.66 43.54 59.8 40.75 59.8 z" />
    </g>
    <g class="geometry" fill="#005695">
      <path d="M 43.54 62.66 L 46.33 62.66 46.33 59.8 43.54 59.8 z" />
    </g>
    <g class="geometry" fill="#00609F">
      <path d="M 46.33 62.66 L 49.12 62.66 49.12 59.8 46.33 59.8 z" />
    </g>
    <g class="geometry" fill="#005290">
      <path d="M 49.12 62.66 L 51.9 62.66 51.9 59.8 49.12 59.8 z" />
    </g>
    <g class="geometry" fill="#003C77">
      <path d="M 51.9 62.66 L 54.69 62.66 54.69 59.8 51.9 59.8 z" />
    </g>
    <g class="geometry" fill="#003B75">
      <path d="M 54.69 62.66 L 57.48 62.66 57.48 59.8 54.69 59.8 z" />
    </g>
    <g class="geometry" fill="#00518E">
      <path d="M 57.48 62.66 L 60.27 62.66 60.27 59.8 57.48 59.8 z" />
    </g>
    <g class="geometry" fill="#003771">
      <path d="M 60.27 62.66 L 63.06 62.66 63.06 59.8 60.27 59.8 z" />
    </g>
    <g class="geometry" fill="#003771">
      <path d="M 63.06 62.66 L 65.85 62.66 65.85 59.8 63.06 59.8 z" />
    </g>
    <g class="geometry" fill="#003973">
      <path d="M 29.59 59.8 L 32.38 59.8 32.38 56.94 29.59 56.94 z" />
    </g>
    <g class="geometry" fill="#003E79">
      <path d="M 32.38 59.8 L 35.17 59.8 35.17 56.94 32.38 56.94 z" />
    </g>
    <g class="geometry" fill="#003E79">
      <path d="M 35.17 59.8 L 37.96 59.8 37.96 56.94 35.17 56.94 z" />
    </g>
    <g class="geometry" fill="#004986">
      <path d="M 37.96 59.8 L 40.75 59.8 40.75 56.94 37.96 56.94 z" />
    </g>
    <g class="geometry" fill="#0066A6">
      <path d="M 40.75 59.8 L 43.54 59.8 43.54 56.94 40.75 56.94 z" />
    </g>
    <g class="geometry" fill="#006AAA">
      <path d="M 43.54 59.8 L 46.33 59.8 46.33 56.94 43.54 56.94 z" />
    </g>
    <g class="geometry" fill="#0072B3">
      <path d="M 46.33 59.8 L 49.12 59.8 49.12 56.94 46.33 56.94 z" />
    </g>
    <g class="geometry" fill="#0068A8">
      <path d="M 49.12 59.8 L 51.9 59.8 51.9 56.94 49.12 56.94 z" />
    </g>
    <g class="geometry" fill="#005C9B">
      <path d="M 51.9 59.8 L 54.69 59.8 54.69 56.94 51.9 56.94 z" />
    </g>
    <g class="geometry" fill="#0062A2">
      <path d="M 54.69 59.8 L 57.48 59.8 57.48 56.94 54.69 56.94 z" />
    </g>
    <g class="geometry" fill="#004F8C">
      <path d="M 57.48 59.8 L 60.27 59.8 60.27 56.94 57.48 56.94 z" />
    </g>
    <g class="geometry" fill="#00427D">
      <path d="M 60.27 59.8 L 63.06 59.8 63.06 56.94 60.27 56.94 z" />
    </g>
    <g class="geometry" fill="#00427D">
      <path d="M 63.06 59.8 L 65.85 59.8 65.85 56.94 63.06 56.94 z" />
    </g>
    <g class="geometry" fill="#003C77">
      <path d="M 65.85 59.8 L 68.64 59.8 68.64 56.94 65.85 56.94 z" />
    </g>
    <g class="geometry" fill="#003973">
      <path d="M 26.8 56.94 L 29.59 56.94 29.59 54.08 26.8 54.08 z" />
    </g>
    <g class="geometry" fill="#003B75">
      <path d="M 29.59 56.94 L 32.38 56.94 32.38 54.08 29.59 54.08 z" />
    </g>
    <g class="geometry" fill="#00407B">
      <path d="M 32.38 56.94 L 35.17 56.94 35.17 54.08 32.38 54.08 z" />
    </g>
    <g class="geometry" fill="#004D8A">
      <path d="M 35.17 56.94 L 37.96 56.94 37.96 54.08 35.17 54.08 z" />
    </g>
    <g class="geometry" fill="#004784">
      <path d="M 37.96 56.94 L 40.75 56.94 40.75 54.08 37.96 54.08 z" />
    </g>
    <g class="geometry" fill="#0064A4">
      <path d="M 40.75 56.94 L 43.54 56.94 43.54 54.08 40.75 54.08 z" />
    </g>
    <g class="geometry" fill="#007EC1">
      <path d="M 43.54 56.94 L 46.33 56.94 46.33 54.08 43.54 54.08 z" />
    </g>
    <g class="geometry" fill="#0088CC">
      <path d="M 46.33 56.94 L 49.12 56.94 49.12 54.08 46.33 54.08 z" />
    </g>
    <g class="geometry" fill="#46A8EE">
      <path d="M 49.12 56.94 L 51.9 56.94 51.9 54.08 49.12 54.08 z" />
    </g>
    <g class="geometry" fill="#007CBE">
      <path d="M 51.9 56.94 L 54.69 56.94 54.69 54.08 51.9 54.08 z" />
    </g>
    <g class="geometry" fill="#0062A2">
      <path d="M 54.69 56.94 L 57.48 56.94 57.48 54.08 54.69 54.08 z" />
    </g>
    <g class="geometry" fill="#0068A8">
      <path d="M 57.48 56.94 L 60.27 56.94 60.27 54.08 57.48 54.08 z" />
    </g>
    <g class="geometry" fill="#00447F">
      <path d="M 60.27 56.94 L 63.06 56.94 63.06 54.08 60.27 54.08 z" />
    </g>
    <g class="geometry" fill="#004B88">
      <path d="M 63.06 56.94 L 65.85 56.94 65.85 54.08 63.06 54.08 z" />
    </g>
    <g class="geometry" fill="#003B75">
      <path d="M 65.85 56.94 L 68.64 56.94 68.64 54.08 65.85 54.08 z" />
    </g>
    <g class="geometry" fill="#003771">
      <path d="M 71.43 56.94 L 74.22 56.94 74.22 54.08 71.43 54.08 z" />
    </g>
    <g class="geometry" fill="#003973">
      <path d="M 74.22 56.94 L 77.01 56.94 77.01 54.08 74.22 54.08 z" />
    </g>
    <g class="geometry" fill="#003771">
      <path d="M 24.01 54.08 L 26.8 54.08 26.8 51.23 24.01 51.23 z" />
    </g>
    <g class="geometry" fill="#003771">
      <path d="M 26.8 54.08 L 29.59 54.08 29.59 51.23 26.8 51.23 z" />
    </g>
    <g class="geometry" fill="#003973">
      <path d="M 29.59 54.08 L 32.38 54.08 32.38 51.23 29.59 51.23 z" />
    </g>
    <g class="geometry" fill="#003C77">
      <path d="M 32.38 54.08 L 35.17 54.08 35.17 51.23 32.38 51.23 z" />
    </g>
    <g class="geometry" fill="#004D8A">
      <path d="M 35.17 54.08 L 37.96 54.08 37.96 51.23 35.17 51.23 z" />
    </g>
    <g class="geometry" fill="#005C9B">
      <path d="M 37.96 54.08 L 40.75 54.08 40.75 51.23 37.96 51.23 z" />
    </g>
    <g class="geometry" fill="#0068A8">
      <path d="M 40.75 54.08 L 43.54 54.08 43.54 51.23 40.75 51.23 z" />
    </g>
    <g class="geometry" fill="#038ACE">
      <path d="M 43.54 54.08 L 46.33 54.08 46.33 51.23 43.54 51.23 z" />
    </g>
    <g class="geometry" fill="#67C2FF">
      <path d="M 46.33 54.08 L 49.12 54.08 49.12 51.23 46.33 51.23 z" />
    </g>
    <g class="geometry" fill="#46A8EE">
      <path d="M 49.12 54.08 L 51.9 54.08 51.9 51.23 49.12 51.23 z" />
    </g>
    <g class="geometry" fill="#46A8EE">
      <path d="M 51.9 54.08 L 54.69 54.08 54.69 51.23 51.9 51.23 z" />
    </g>
    <g class="geometry" fill="#62BEFF">
      <path d="M 54.69 54.08 L 57.48 54.08 57.48 51.23 54.69 51.23 z" />
    </g>
    <g class="geometry" fill="#0074B5">
      <path d="M 57.48 54.08 L 60.27 54.08 60.27 51.23 57.48 51.23 z" />
    </g>
    <g class="geometry" fill="#0076B8">
      <path d="M 60.27 54.08 L 63.06 54.08 63.06 51.23 60.27 51.23 z" />
    </g>
    <g class="geometry" fill="#004D8A">
      <path d="M 63.06 54.08 L 65.85 54.08 65.85 51.23 63.06 51.23 z" />
    </g>
    <g class="geometry" fill="#00407B">
      <path d="M 65.85 54.08 L 68.64 54.08 68.64 51.23 65.85 51.23 z" />
    </g>
    <g class="geometry" fill="#003E79">
      <path d="M 68.64 54.08 L 71.43 54.08 71.43 51.23 68.64 51.23 z" />
    </g>
    <g class="geometry" fill="#003771">
      <path d="M 71.43 54.08 L 74.22 54.08 74.22 51.23 71.43 51.23 z" />
    </g>
    <g class="geometry" fill="#003771">
      <path d="M 74.22 54.08 L 77.01 54.08 77.01 51.23 74.22 51.23 z" />
    </g>
    <g class="geometry" fill="#003771">
      <path d="M 77.01 54.08 L 79.8 54.08 79.8 51.23 77.01 51.23 z" />
    </g>
    <g class="geometry" fill="#003771">
      <path d="M 24.01 51.23 L 26.8 51.23 26.8 48.37 24.01 48.37 z" />
    </g>
    <g class="geometry" fill="#003771">
      <path d="M 26.8 51.23 L 29.59 51.23 29.59 48.37 26.8 48.37 z" />
    </g>
    <g class="geometry" fill="#00407B">
      <path d="M 29.59 51.23 L 32.38 51.23 32.38 48.37 29.59 48.37 z" />
    </g>
    <g class="geometry" fill="#003B75">
      <path d="M 32.38 51.23 L 35.17 51.23 35.17 48.37 32.38 48.37 z" />
    </g>
    <g class="geometry" fill="#004D8A">
      <path d="M 35.17 51.23 L 37.96 51.23 37.96 48.37 35.17 48.37 z" />
    </g>
    <g class="geometry" fill="#0062A2">
      <path d="M 37.96 51.23 L 40.75 51.23 40.75 48.37 37.96 48.37 z" />
    </g>
    <g class="geometry" fill="#0066A6">
      <path d="M 40.75 51.23 L 43.54 51.23 43.54 48.37 40.75 48.37 z" />
    </g>
    <g class="geometry" fill="#0086CA">
      <path d="M 43.54 51.23 L 46.33 51.23 46.33 48.37 43.54 48.37 z" />
    </g>
    <g class="geometry" fill="#74CDFF">
      <path d="M 46.33 51.23 L 49.12 51.23 49.12 48.37 46.33 48.37 z" />
    </g>
    <g class="geometry" fill="#65C0FF">
      <path d="M 49.12 51.23 L 51.9 51.23 51.9 48.37 49.12 48.37 z" />
    </g>
    <g class="geometry" fill="#84DBFF">
      <path d="M 51.9 51.23 L 54.69 51.23 54.69 48.37 51.9 48.37 z" />
    </g>
    <g class="geometry" fill="#6AC4FF">
      <path d="M 54.69 51.23 L 57.48 51.23 57.48 48.37 54.69 48.37 z" />
    </g>
    <g class="geometry" fill="#329BE0">
      <path d="M 57.48 51.23 L 60.27 51.23 60.27 48.37 57.48 48.37 z" />
    </g>
    <g class="geometry" fill="#0088CC">
      <path d="M 60.27 51.23 L 63.06 51.23 63.06 48.37 60.27 48.37 z" />
    </g>
    <g class="geometry" fill="#0076B8">
      <path d="M 63.06 51.23 L 65.85 51.23 65.85 48.37 63.06 48.37 z" />
    </g>
    <g class="geometry" fill="#005695">
      <path d="M 65.85 51.23 L 68.64 51.23 68.64 48.37 65.85 48.37 z" />
    </g>
    <g class="geometry" fill="#004582">
      <path d="M 68.64 51.23 L 71.43 51.23 71.43 48.37 68.64 48.37 z" />
    </g>
    <g class="geometry" fill="#003C77">
      <path d="M 71.43 51.23 L 74.22 51.23 74.22 48.37 71.43 48.37 z" />
    </g>
    <g class="geometry" fill="#003771">
      <path d="M 74.22 51.23 L 77.01 51.23 77.01 48.37 74.22 48.37 z" />
    </g>
    <g class="geometry" fill="#003973">
      <path d="M 29.59 48.37 L 32.38 48.37 32.38 45.51 29.59 45.51 z" />
    </g>
    <g class="geometry" fill="#003C77">
      <path d="M 32.38 48.37 L 35.17 48.37 35.17 45.51 32.38 45.51 z" />
    </g>
    <g class="geometry" fill="#00447F">
      <path d="M 35.17 48.37 L 37.96 48.37 37.96 45.51 35.17 45.51 z" />
    </g>
    <g class="geometry" fill="#004F8C">
      <path d="M 37.96 48.37 L 40.75 48.37 40.75 45.51 37.96 45.51 z" />
    </g>
    <g class="geometry" fill="#0066A6">
      <path d="M 40.75 48.37 L 43.54 48.37 43.54 45.51 40.75 45.51 z" />
    </g>
    <g class="geometry" fill="#0082C5">
      <path d="M 43.54 48.37 L 46.33 48.37 46.33 45.51 43.54 45.51 z" />
    </g>
    <g class="geometry" fill="#54B3FA">
      <path d="M 46.33 48.37 L 49.12 48.37 49.12 45.51 46.33 45.51 z" />
    </g>
    <g class="geometry" fill="#62BEFF">
      <path d="M 49.12 48.37 L 51.9 48.37 51.9 45.51 49.12 45.51 z" />
    </g>
    <g class="geometry" fill="#A2F6FF">
      <path d="M 51.9 48.37 L 54.69 48.37 54.69 45.51 51.9 45.51 z" />
    </g>
    <g class="geometry" fill="#93E8FF">
      <path d="M 54.69 48.37 L 57.48 48.37 57.48 45.51 54.69 45.51 z" />
    </g>
    <g class="geometry" fill="#51B0F8">
      <path d="M 57.48 48.37 L 60.27 48.37 60.27 45.51 57.48 45.51 z" />
    </g>
    <g class="geometry" fill="#399FE5">
      <path d="M 60.27 48.37 L 63.06 48.37 63.06 45.51 60.27 45.51 z" />
    </g>
    <g class="geometry" fill="#0078BA">
      <path d="M 63.06 48.37 L 65.85 48.37 65.85 45.51 63.06 45.51 z" />
    </g>
    <g class="geometry" fill="#006AAA">
      <path d="M 65.85 48.37 L 68.64 48.37 68.64 45.51 65.85 45.51 z" />
    </g>
    <g class="geometry" fill="#004582">
      <path d="M 68.64 48.37 L 71.43 48.37 71.43 45.51 68.64 45.51 z" />
    </g>
    <g class="geometry" fill="#003C77">
      <path d="M 71.43 48.37 L 74.22 48.37 74.22 45.51 71.43 45.51 z" />
    </g>
    <g class="geometry" fill="#003771">
      <path d="M 74.22 48.37 L 77.01 48.37 77.01 45.51 74.22 45.51 z" />
    </g>
    <g class="geometry" fill="#003973">
      <path d="M 29.59 45.51 L 32.38 45.51 32.38 42.66 29.59 42.66 z" />
    </g>
    <g class="geometry" fill="#003973">
      <path d="M 32.38 45.51 L 35.17 45.51 35.17 42.66 32.38 42.66 z" />
    </g>
    <g class="geometry" fill="#003E79">
      <path d="M 35.17 45.51 L 37.96 45.51 37.96 42.66 35.17 42.66 z" />
    </g>
    <g class="geometry" fill="#004582">
      <path d="M 37.96 45.51 L 40.75 45.51 40.75 42.66 37.96 42.66 z" />
    </g>
    <g class="geometry" fill="#005897">
      <path d="M 40.75 45.51 L 43.54 45.51 43.54 42.66 40.75 42.66 z" />
    </g>
    <g class="geometry" fill="#007CBE">
      <path d="M 43.54 45.51 L 46.33 45.51 46.33 42.66 43.54 42.66 z" />
    </g>
    <g class="geometry" fill="#038ACE">
      <path d="M 46.33 45.51 L 49.12 45.51 49.12 42.66 46.33 42.66 z" />
    </g>
    <g class="geometry" fill="#62BEFF">
      <path d="M 49.12 45.51 L 51.9 45.51 51.9 42.66 49.12 42.66 z" />
    </g>
    <g class="geometry" fill="#A2F6FF">
      <path d="M 51.9 45.51 L 54.69 45.51 54.69 42.66 51.9 42.66 z" />
    </g>
    <g class="geometry" fill="#77CFFF">
      <path d="M 54.69 45.51 L 57.48 45.51 57.48 42.66 54.69 42.66 z" />
    </g>
    <g class="geometry" fill="#54B3FA">
      <path d="M 57.48 45.51 L 60.27 45.51 60.27 42.66 57.48 42.66 z" />
    </g>
    <g class="geometry" fill="#5FBBFF">
      <path d="M 60.27 45.51 L 63.06 45.51 63.06 42.66 60.27 42.66 z" />
    </g>
    <g class="geometry" fill="#2A97DC">
      <path d="M 63.06 45.51 L 65.85 45.51 65.85 42.66 63.06 42.66 z" />
    </g>
    <g class="geometry" fill="#0078BA">
      <path d="M 65.85 45.51 L 68.64 45.51 68.64 42.66 65.85 42.66 z" />
    </g>
    <g class="geometry" fill="#005E9D">
      <path d="M 68.64 45.51 L 71.43 45.51 71.43 42.66 68.64 42.66 z" />
    </g>
    <g class="geometry" fill="#004582">
      <path d="M 71.43 45.51 L 74.22 45.51 74.22 42.66 71.43 42.66 z" />
    </g>
    <g class="geometry" fill="#00407B">
      <path d="M 74.22 45.51 L 77.01 45.51 77.01 42.66 74.22 42.66 z" />
    </g>
    <g class="geometry" fill="#003771">
      <path d="M 29.59 42.66 L 32.38 42.66 32.38 39.8 29.59 39.8 z" />
    </g>
    <g class="geometry" fill="#003C77">
      <path d="M 35.17 42.66 L 37.96 42.66 37.96 39.8 35.17 39.8 z" />
    </g>
    <g class="geometry" fill="#00407B">
      <path d="M 37.96 42.66 L 40.75 42.66 40.75 39.8 37.96 39.8 z" />
    </g>
    <g class="geometry" fill="#00447F">
      <path d="M 40.75 42.66 L 43.54 42.66 43.54 39.8 40.75 39.8 z" />
    </g>
    <g class="geometry" fill="#005C9B">
      <path d="M 43.54 42.66 L 46.33 42.66 46.33 39.8 43.54 39.8 z" />
    </g>
    <g class="geometry" fill="#0088CC">
      <path d="M 46.33 42.66 L 49.12 42.66 49.12 39.8 46.33 39.8 z" />
    </g>
    <g class="geometry" fill="#3CA1E7">
      <path d="M 49.12 42.66 L 51.9 42.66 51.9 39.8 49.12 39.8 z" />
    </g>
    <g class="geometry" fill="#79D2FF">
      <path d="M 51.9 42.66 L 54.69 42.66 54.69 39.8 51.9 39.8 z" />
    </g>
    <g class="geometry" fill="#90E6FF">
      <path d="M 54.69 42.66 L 57.48 42.66 57.48 39.8 54.69 39.8 z" />
    </g>
    <g class="geometry" fill="#8BE2FF">
      <path d="M 57.48 42.66 L 60.27 42.66 60.27 39.8 57.48 39.8 z" />
    </g>
    <g class="geometry" fill="#5AB7FF">
      <path d="M 60.27 42.66 L 63.06 42.66 63.06 39.8 60.27 39.8 z" />
    </g>
    <g class="geometry" fill="#399FE5">
      <path d="M 63.06 42.66 L 65.85 42.66 65.85 39.8 63.06 39.8 z" />
    </g>
    <g class="geometry" fill="#0078BA">
      <path d="M 65.85 42.66 L 68.64 42.66 68.64 39.8 65.85 39.8 z" />
    </g>
    <g class="geometry" fill="#00518E">
      <path d="M 68.64 42.66 L 71.43 42.66 71.43 39.8 68.64 39.8 z" />
    </g>
    <g class="geometry" fill="#005695">
      <path d="M 71.43 42.66 L 74.22 42.66 74.22 39.8 71.43 39.8 z" />
    </g>
    <g class="geometry" fill="#00447F">
      <path d="M 74.22 42.66 L 77.01 42.66 77.01 39.8 74.22 39.8 z" />
    </g>
    <g class="geometry" fill="#003973">
      <path d="M 77.01 42.66 L 79.8 42.66 79.8 39.8 77.01 39.8 z" />
    </g>
    <g class="geometry" fill="#003973">
      <path d="M 79.8 42.66 L 82.58 42.66 82.58 39.8 79.8 39.8 z" />
    </g>
    <g class="geometry" fill="#003771">
      <path d="M 32.38 39.8 L 35.17 39.8 35.17 36.94 32.38 36.94 z" />
    </g>
    <g class="geometry" fill="#003771">
      <path d="M 35.17 39.8 L 37.96 39.8 37.96 36.94 35.17 36.94 z" />
    </g>
    <g class="geometry" fill="#003771">
      <path d="M 37.96 39.8 L 40.75 39.8 40.75 36.94 37.96 36.94 z" />
    </g>
    <g class="geometry" fill="#004582">
      <path d="M 40.75 39.8 L 43.54 39.8 43.54 36.94 40.75 36.94 z" />
    </g>
    <g class="geometry" fill="#004D8A">
      <path d="M 43.54 39.8 L 46.33 39.8 46.33 36.94 43.54 36.94 z" />
    </g>
    <g class="geometry" fill="#006CAD">
      <path d="M 46.33 39.8 L 49.12 39.8 49.12 36.94 46.33 36.94 z" />
    </g>
    <g class="geometry" fill="#0088CC">
      <path d="M 49.12 39.8 L 51.9 39.8 51.9 36.94 49.12 36.94 z" />
    </g>
    <g class="geometry" fill="#5FBBFF">
      <path d="M 51.9 39.8 L 54.69 39.8 54.69 36.94 51.9 36.94 z" />
    </g>
    <g class="geometry" fill="#5DB9FF">
      <path d="M 54.69 39.8 L 57.48 39.8 57.48 36.94 54.69 36.94 z" />
    </g>
    <g class="geometry" fill="#5DB9FF">
      <path d="M 57.48 39.8 L 60.27 39.8 60.27 36.94 57.48 36.94 z" />
    </g>
    <g class="geometry" fill="#42A6EC">
      <path d="M 60.27 39.8 L 63.06 39.8 63.06 36.94 60.27 36.94 z" />
    </g>
    <g class="geometry" fill="#2595DA">
      <path d="M 63.06 39.8 L 65.85 39.8 65.85 36.94 63.06 36.94 z" />
    </g>
    <g class="geometry" fill="#158ED3">
      <path d="M 65.85 39.8 L 68.64 39.8 68.64 36.94 65.85 36.94 z" />
    </g>
    <g class="geometry" fill="#005897">
      <path d="M 68.64 39.8 L 71.43 39.8 71.43 36.94 68.64 36.94 z" />
    </g>
    <g class="geometry" fill="#004D8A">
      <path d="M 71.43 39.8 L 74.22 39.8 74.22 36.94 71.43 36.94 z" />
    </g>
    <g class="geometry" fill="#004986">
      <path d="M 74.22 39.8 L 77.01 39.8 77.01 36.94 74.22 36.94 z" />
    </g>
    <g class="geometry" fill="#003973">
      <path d="M 77.01 39.8 L 79.8 39.8 79.8 36.94 77.01 36.94 z" />
    </g>
    <g class="geometry" fill="#003771">
      <path d="M 79.8 39.8 L 82.58 39.8 82.58 36.94 79.8 36.94 z" />
    </g>
    <g class="geometry" fill="#003771">
      <path d="M 35.17 36.94 L 37.96 36.94 37.96 34.08 35.17 34.08 z" />
    </g>
    <g class="geometry" fill="#003B75">
      <path d="M 37.96 36.94 L 40.75 36.94 40.75 34.08 37.96 34.08 z" />
    </g>
    <g class="geometry" fill="#003C77">
      <path d="M 40.75 36.94 L 43.54 36.94 43.54 34.08 40.75 34.08 z" />
    </g>
    <g class="geometry" fill="#00447F">
      <path d="M 43.54 36.94 L 46.33 36.94 46.33 34.08 43.54 34.08 z" />
    </g>
    <g class="geometry" fill="#004F8C">
      <path d="M 46.33 36.94 L 49.12 36.94 49.12 34.08 46.33 34.08 z" />
    </g>
    <g class="geometry" fill="#0078BA">
      <path d="M 49.12 36.94 L 51.9 36.94 51.9 34.08 49.12 34.08 z" />
    </g>
    <g class="geometry" fill="#0072B3">
      <path d="M 51.9 36.94 L 54.69 36.94 54.69 34.08 51.9 34.08 z" />
    </g>
    <g class="geometry" fill="#359DE3">
      <path d="M 54.69 36.94 L 57.48 36.94 57.48 34.08 54.69 34.08 z" />
    </g>
    <g class="geometry" fill="#329BE0">
      <path d="M 57.48 36.94 L 60.27 36.94 60.27 34.08 57.48 34.08 z" />
    </g>
    <g class="geometry" fill="#359DE3">
      <path d="M 60.27 36.94 L 63.06 36.94 63.06 34.08 60.27 34.08 z" />
    </g>
    <g class="geometry" fill="#1C90D5">
      <path d="M 63.06 36.94 L 65.85 36.94 65.85 34.08 63.06 34.08 z" />
    </g>
    <g class="geometry" fill="#006CAD">
      <path d="M 65.85 36.94 L 68.64 36.94 68.64 34.08 65.85 34.08 z" />
    </g>
    <g class="geometry" fill="#007ABC">
      <path d="M 68.64 36.94 L 71.43 36.94 71.43 34.08 68.64 34.08 z" />
    </g>
    <g class="geometry" fill="#005493">
      <path d="M 71.43 36.94 L 74.22 36.94 74.22 34.08 71.43 34.08 z" />
    </g>
    <g class="geometry" fill="#00447F">
      <path d="M 74.22 36.94 L 77.01 36.94 77.01 34.08 74.22 34.08 z" />
    </g>
    <g class="geometry" fill="#003E79">
      <path d="M 77.01 36.94 L 79.8 36.94 79.8 34.08 77.01 34.08 z" />
    </g>
    <g class="geometry" fill="#003771">
      <path d="M 79.8 36.94 L 82.58 36.94 82.58 34.08 79.8 34.08 z" />
    </g>
    <g class="geometry" fill="#003771">
      <path d="M 37.96 34.08 L 40.75 34.08 40.75 31.23 37.96 31.23 z" />
    </g>
    <g class="geometry" fill="#003771">
      <path d="M 40.75 34.08 L 43.54 34.08 43.54 31.23 40.75 31.23 z" />
    </g>
    <g class="geometry" fill="#004784">
      <path d="M 43.54 34.08 L 46.33 34.08 46.33 31.23 43.54 31.23 z" />
    </g>
    <g class="geometry" fill="#003E79">
      <path d="M 46.33 34.08 L 49.12 34.08 49.12 31.23 46.33 31.23 z" />
    </g>
    <g class="geometry" fill="#005C9B">
      <path d="M 49.12 34.08 L 51.9 34.08 51.9 31.23 49.12 31.23 z" />
    </g>
    <g class="geometry" fill="#00518E">
      <path d="M 51.9 34.08 L 54.69 34.08 54.69 31.23 51.9 31.23 z" />
    </g>
    <g class="geometry" fill="#0062A2">
      <path d="M 54.69 34.08 L 57.48 34.08 57.48 31.23 54.69 31.23 z" />
    </g>
    <g class="geometry" fill="#0066A6">
      <path d="M 57.48 34.08 L 60.27 34.08 60.27 31.23 57.48 31.23 z" />
    </g>
    <g class="geometry" fill="#0070B1">
      <path d="M 60.27 34.08 L 63.06 34.08 63.06 31.23 60.27 31.23 z" />
    </g>
    <g class="geometry" fill="#006CAD">
      <path d="M 63.06 34.08 L 65.85 34.08 65.85 31.23 63.06 31.23 z" />
    </g>
    <g class="geometry" fill="#0068A8">
      <path d="M 65.85 34.08 L 68.64 34.08 68.64 31.23 65.85 31.23 z" />
    </g>
    <g class="geometry" fill="#0066A6">
      <path d="M 68.64 34.08 L 71.43 34.08 71.43 31.23 68.64 31.23 z" />
    </g>
    <g class="geometry" fill="#005290">
      <path d="M 71.43 34.08 L 74.22 34.08 74.22 31.23 71.43 31.23 z" />
    </g>
    <g class="geometry" fill="#00427D">
      <path d="M 74.22 34.08 L 77.01 34.08 77.01 31.23 74.22 31.23 z" />
    </g>
    <g class="geometry" fill="#003C77">
      <path d="M 77.01 34.08 L 79.8 34.08 79.8 31.23 77.01 31.23 z" />
    </g>
    <g class="geometry" fill="#003973">
      <path d="M 79.8 34.08 L 82.58 34.08 82.58 31.23 79.8 31.23 z" />
    </g>
    <g class="geometry" fill="#003973">
      <path d="M 43.54 31.23 L 46.33 31.23 46.33 28.37 43.54 28.37 z" />
    </g>
    <g class="geometry" fill="#003973">
      <path d="M 46.33 31.23 L 49.12 31.23 49.12 28.37 46.33 28.37 z" />
    </g>
    <g class="geometry" fill="#003C77">
      <path d="M 49.12 31.23 L 51.9 31.23 51.9 28.37 49.12 28.37 z" />
    </g>
    <g class="geometry" fill="#004D8A">
      <path d="M 51.9 31.23 L 54.69 31.23 54.69 28.37 51.9 28.37 z" />
    </g>
    <g class="geometry" fill="#004F8C">
      <path d="M 54.69 31.23 L 57.48 31.23 57.48 28.37 54.69 28.37 z" />
    </g>
    <g class="geometry" fill="#004B88">
      <path d="M 57.48 31.23 L 60.27 31.23 60.27 28.37 57.48 28.37 z" />
    </g>
    <g class="geometry" fill="#00518E">
      <path d="M 60.27 31.23 L 63.06 31.23 63.06 28.37 60.27 28.37 z" />
    </g>
    <g class="geometry" fill="#004F8C">
      <path d="M 63.06 31.23 L 65.85 31.23 65.85 28.37 63.06 28.37 z" />
    </g>
    <g class="geometry" fill="#005290">
      <path d="M 65.85 31.23 L 68.64 31.23 68.64 28.37 65.85 28.37 z" />
    </g>
    <g class="geometry" fill="#004986">
      <path d="M 68.64 31.23 L 71.43 31.23 71.43 28.37 68.64 28.37 z" />
    </g>
    <g class="geometry" fill="#004582">
      <path d="M 71.43 31.23 L 74.22 31.23 74.22 28.37 71.43 28.37 z" />
    </g>
    <g class="geometry" fill="#003E79">
      <path d="M 74.22 31.23 L 77.01 31.23 77.01 28.37 74.22 28.37 z" />
    </g>
    <g class="geometry" fill="#00447F">
      <path d="M 77.01 31.23 L 79.8 31.23 79.8 28.37 77.01 28.37 z" />
    </g>
    <g class="geometry" fill="#003973">
      <path d="M 79.8 31.23 L 82.58 31.23 82.58 28.37 79.8 28.37 z" />
    </g>
    <g class="geometry" fill="#003973">
      <path d="M 82.58 31.23 L 85.37 31.23 85.37 28.37 82.58 28.37 z" />
    </g>
    <g class="geometry" fill="#003771">
      <path d="M 85.37 31.23 L 88.16 31.23 88.16 28.37 85.37 28.37 z" />
    </g>
    <g class="geometry" fill="#003771">
      <path d="M 40.75 28.37 L 43.54 28.37 43.54 25.51 40.75 25.51 z" />
    </g>
    <g class="geometry" fill="#003973">
      <path d="M 43.54 28.37 L 46.33 28.37 46.33 25.51 43.54 25.51 z" />
    </g>
    <g class="geometry" fill="#003B75">
      <path d="M 46.33 28.37 L 49.12 28.37 49.12 25.51 46.33 25.51 z" />
    </g>
    <g class="geometry" fill="#003973">
      <path d="M 49.12 28.37 L 51.9 28.37 51.9 25.51 49.12 25.51 z" />
    </g>
    <g class="geometry" fill="#003C77">
      <path d="M 51.9 28.37 L 54.69 28.37 54.69 25.51 51.9 25.51 z" />
    </g>
    <g class="geometry" fill="#004784">
      <path d="M 54.69 28.37 L 57.48 28.37 57.48 25.51 54.69 25.51 z" />
    </g>
    <g class="geometry" fill="#004784">
      <path d="M 57.48 28.37 L 60.27 28.37 60.27 25.51 57.48 25.51 z" />
    </g>
    <g class="geometry" fill="#00427D">
      <path d="M 60.27 28.37 L 63.06 28.37 63.06 25.51 60.27 25.51 z" />
    </g>
    <g class="geometry" fill="#004784">
      <path d="M 63.06 28.37 L 65.85 28.37 65.85 25.51 63.06 25.51 z" />
    </g>
    <g class="geometry" fill="#00407B">
      <path d="M 65.85 28.37 L 68.64 28.37 68.64 25.51 65.85 25.51 z" />
    </g>
    <g class="geometry" fill="#00407B">
      <path d="M 68.64 28.37 L 71.43 28.37 71.43 25.51 68.64 25.51 z" />
    </g>
    <g class="geometry" fill="#00427D">
      <path d="M 71.43 28.37 L 74.22 28.37 74.22 25.51 71.43 25.51 z" />
    </g>
    <g class="geometry" fill="#00427D">
      <path d="M 74.22 28.37 L 77.01 28.37 77.01 25.51 74.22 25.51 z" />
    </g>
    <g class="geometry" fill="#003E79">
      <path d="M 77.01 28.37 L 79.8 28.37 79.8 25.51 77.01 25.51 z" />
    </g>
    <g class="geometry" fill="#003E79">
      <path d="M 79.8 28.37 L 82.58 28.37 82.58 25.51 79.8 25.51 z" />
    </g>
    <g class="geometry" fill="#003771">
      <path d="M 49.12 25.51 L 51.9 25.51 51.9 22.66 49.12 22.66 z" />
    </g>
    <g class="geometry" fill="#003771">
      <path d="M 51.9 25.51 L 54.69 25.51 54.69 22.66 51.9 22.66 z" />
    </g>
    <g class="geometry" fill="#003973">
      <path d="M 54.69 25.51 L 57.48 25.51 57.48 22.66 54.69 22.66 z" />
    </g>
    <g class="geometry" fill="#003973">
      <path d="M 57.48 25.51 L 60.27 25.51 60.27 22.66 57.48 22.66 z" />
    </g>
    <g class="geometry" fill="#003771">
      <path d="M 60.27 25.51 L 63.06 25.51 63.06 22.66 60.27 22.66 z" />
    </g>
    <g class="geometry" fill="#00427D">
      <path d="M 63.06 25.51 L 65.85 25.51 65.85 22.66 63.06 22.66 z" />
    </g>
    <g class="geometry" fill="#00407B">
      <path d="M 65.85 25.51 L 68.64 25.51 68.64 22.66 65.85 22.66 z" />
    </g>
    <g class="geometry" fill="#003973">
      <path d="M 68.64 25.51 L 71.43 25.51 71.43 22.66 68.64 22.66 z" />
    </g>
    <g class="geometry" fill="#004582">
      <path d="M 71.43 25.51 L 74.22 25.51 74.22 22.66 71.43 22.66 z" />
    </g>
    <g class="geometry" fill="#003973">
      <path d="M 74.22 25.51 L 77.01 25.51 77.01 22.66 74.22 22.66 z" />
    </g>
    <g class="geometry" fill="#003771">
      <path d="M 77.01 25.51 L 79.8 25.51 79.8 22.66 77.01 22.66 z" />
    </g>
    <g class="geometry" fill="#003771">
      <path d="M 79.8 25.51 L 82.58 25.51 82.58 22.66 79.8 22.66 z" />
    </g>
    <g class="geometry" fill="#003771">
      <path d="M 85.37 25.51 L 88.16 25.51 88.16 22.66 85.37 22.66 z" />
    </g>
    <g class="geometry" fill="#003771">
      <path d="M 49.12 22.66 L 51.9 22.66 51.9 19.8 49.12 19.8 z" />
    </g>
    <g class="geometry" fill="#003771">
      <path d="M 54.69 22.66 L 57.48 22.66 57.48 19.8 54.69 19.8 z" />
    </g>
    <g class="geometry" fill="#003973">
      <path d="M 60.27 22.66 L 63.06 22.66 63.06 19.8 60.27 19.8 z" />
    </g>
    <g class="geometry" fill="#003B75">
      <path d="M 68.64 22.66 L 71.43 22.66 71.43 19.8 68.64 19.8 z" />
    </g>
    <g class="geometry" fill="#003973">
      <path d="M 71.43 22.66 L 74.22 22.66 74.22 19.8 71.43 19.8 z" />
    </g>
    <g class="geometry" fill="#003E79">
      <path d="M 74.22 22.66 L 77.01 22.66 77.01 19.8 74.22 19.8 z" />
    </g>
    <g class="geometry" fill="#003C77">
      <path d="M 77.01 22.66 L 79.8 22.66 79.8 19.8 77.01 19.8 z" />
    </g>
    <g class="geometry" fill="#003771">
      <path d="M 88.16 22.66 L 90.95 22.66 90.95 19.8 88.16 19.8 z" />
    </g>
    <g class="geometry" fill="#003771">
      <path d="M 57.48 19.8 L 60.27 19.8 60.27 16.94 57.48 16.94 z" />
    </g>
    <g class="geometry" fill="#003B75">
      <path d="M 65.85 19.8 L 68.64 19.8 68.64 16.94 65.85 16.94 z" />
    </g>
    <g class="geometry" fill="#003973">
      <path d="M 68.64 19.8 L 71.43 19.8 71.43 16.94 68.64 16.94 z" />
    </g>
    <g class="geometry" fill="#003771">
      <path d="M 74.22 19.8 L 77.01 19.8 77.01 16.94 74.22 16.94 z" />
    </g>
    <g class="geometry" fill="#003771">
      <path d="M 85.37 19.8 L 88.16 19.8 88.16 16.94 85.37 16.94 z" />
    </g>
    <g class="geometry" fill="#003771">
      <path d="M 60.27 16.94 L 63.06 16.94 63.06 14.08 60.27 14.08 z" />
    </g>
    <g class="geometry" fill="#003771">
      <path d="M 74.22 16.94 L 77.01 16.94 77.01 14.08 74.22 14.08 z" />
    </g>
    <g class="geometry" fill="#003771">
      <path d="M 79.8 16.94 L 82.58 16.94 82.58 14.08 79.8 14.08 z" />
    </g>
    <g class="geometry" fill="#003771">
      <path d="M 82.58 16.94 L 85.37 16.94 85.37 14.08 82.58 14.08 z" />
    </g>
  </g>
</g>
<script type="application/ecmascript"><![CDATA[

// Functions embedded in Gadfly plots to add interactivity.


// Clicking an entry in a color key toggles visibility of the data within that
// group.
function toggle_color_group(name)
{
    geoms = document.getElementsByClassName('color_group_' + name);
    entry = document.getElementById('color_key_' + name);
    state = geoms[0].getAttribute('visibility');
    if (!state || state == 'visible') {
        for (i = 0; i < geoms.length; ++i) {
            geoms[i].setAttribute('visibility', 'hidden');
        }
        entry.setAttribute('opacity', 0.5);
    } else {
        for (i = 0; i < geoms.length; ++i) {
            geoms[i].setAttribute('visibility', 'visible');
        }
        entry.setAttribute('opacity', 1.0);
    }
}


// Turn on a possibily hidden annotation.
function show_annotation(geom_id)
{
    annot_id = geom_id + "-annotation";
    annot = document.getElementById(annot_id);
    annot.setAttribute('visibility', 'visible');
    present_geometry([geom_id]);
}


// Turn off a possibly hidden annotation.
function hide_annotation(geom_id)
{
    annot_id = geom_id + "-annotation"
    annot = document.getElementById(annot_id)
    annot.setAttribute('visibility', 'hidden')
    unpresent_geometry();
}


// Dim all geometry objects with some exceptions.
function present_geometry(ids)
{
    on_anim_dur = 0.1;

    off_anim = document.getElementById('panel-focus-filter-off-anim');
    try {
        t0 = Number(off_anim.getStartTime());
    }
    catch (err) {
        t0 = Infinity;
    }
    off_anim.endElement();

    if (t0 < Infinity) {
        t = Number(off_anim.getCurrentTime());
        d = Number(off_anim.getSimpleDuration());
        from = Number(off_anim.getAttribute('from'));
        to = Number(off_anim.getAttribute('to'));
        p = Math.max(0.0, Math.min(1.0, ((t - t0) / d)));
        v = from + p * (to - from);
    }
    else {
        p=1.0;
        v=0.0;
    }

    geoms = document.getElementsByClassName('geometry');
    for (i = 0; i < geoms.length; ++i) {
        geoms[i].setAttribute('filter', 'url(#panel-focus-filter)');
    }

    for (i = 0; i < ids.length; ++i) {
        geom = document.getElementById(ids[i]);
        geom.setAttribute('filter', 'inherit');
    }

    on_anim = document.getElementById('panel-focus-filter-on-anim');
    on_anim.setAttribute('from', v);
    on_anim.setAttribute('dur',  p * on_anim_dur + 's');
    on_anim.beginElement();
}


// Set all geometries to full opacity.
function unpresent_geometry()
{
    off_anim_dur = 0.3;

    on_anim = document.getElementById('panel-focus-filter-on-anim');
    try {
        t0 = Number(on_anim.getStartTime());
        t = Number(on_anim.getCurrentTime());
        d = Number(on_anim.getSimpleDuration());
        p = Math.max(0.0, Math.min(1.0, ((t - t0) / d)));
    }
    catch (err) {
        p = 1.0;
    }
    on_anim.endElement();

    from = Number(on_anim.getAttribute('from'));
    to = Number(on_anim.getAttribute('to'));
    v = from + p * (to - from);

    off_anim = document.getElementById('panel-focus-filter-off-anim');
    off_anim.setAttribute('from', v);
    dur = p * off_anim_dur
    off_anim.setAttribute('dur',  dur + 's');
    off_anim.addEventListener('endEvent', unpresent_geometry_end);
    off_anim.beginElement();

    // Webkit doesn't support the "onend" attribute, so we work arround.
    setTimeout("unpresent_geometry_end()", 1000 * dur);
}


// Called when the animation in unpresent_geometry finishes.
// Enabling a filter, even if it has no effect, adds an extra layer of
// rasterization, which tends to make things look like shit, so we clear all the
// filters when the animation ends.
function unpresent_geometry_end()
{
    // skip this function in the on_animation has been triggered since the last
    // off_animation.
    on_anim = document.getElementById('panel-focus-filter-on-anim');
    off_anim = document.getElementById('panel-focus-filter-off-anim');
    if (on_anim.getStartTime() > off_anim.getStartTime()) {
        return;
    }

    // Skip this if the off animation isn't actually finished.
    elapsed = off_anim.getCurrentTime() - off_anim.getStartTime()
    if (elapsed < off_anim.getSimpleDuration()) {
        return;
    }

    geoms = document.getElementsByClassName('geometry');
    for (i = 0; i < geoms.length; ++i) {
        geoms[i].setAttribute('filter', 'inherit');
    }
}


]]></script>
<defs>
    <!--A filter used to deemphasize out of focus geometries for mouseover
       -effects.-->
    <!-- TODO: flood-color needs to be set from the current theme -->
    <filter id="panel-focus-filter" x="-20%" y="-20%" width="140%" height="140%">
        <feFlood flood-color="#f5f5f5" flood-opacity="0.5" result="flood">
            <animate id="panel-focus-filter-off-anim"
                      attributeName="flood-opacity" attributeType="XML"
                      fill="freeze" begin="indefinite" dur="0.2s"
                      from="0.8" to="0.0" onend="unpresent_geometry_end"/>
            <animate id="panel-focus-filter-on-anim"
                      attributeName="flood-opacity" attributeType="XML"
                      fill="freeze" begin="indefinite" dur="0.1s"
                      from="0.0" to="0.8" onend="unpresent_geometry_end"/>
        </feFlood>
        <feComposite operator="atop" in="flood" in2="SourceGraphic" />
    </filter>
</defs>

</svg>
