<?xml version="1.0" encoding="UTF-8"?>
<svg xmlns="http://www.w3.org/2000/svg" xmlns:xlink="http://www.w3.org/1999/xlink" version="1.1" width="101.6mm" height="76.2mm" viewBox="0 0 101.6 76.2" style="stroke:black;fill:black" stroke-width="0.5">
<g stroke="#F2F2F2" fill="#F5F5F5">
  <path d="M 11.73 5 L 96.6 5 96.6 56.2 11.73 56.2 z" />
  <g stroke-width="0.3" stroke="#FFFFFF">
    <path d="M94.2,5 L 94.2 56.2" />
    <path d="M74.18,5 L 74.18 56.2" />
    <path d="M54.17,5 L 54.17 56.2" />
    <path d="M34.15,5 L 34.15 56.2" />
    <path d="M14.14,5 L 14.14 56.2" />
  </g>
  <g stroke-width="0.3" stroke="#FFFFFF">
    <path d="M11.73,30.6 L 96.6 30.6" />
    <path d="M11.73,54.75 L 96.6 54.75" />
    <path d="M11.73,6.45 L 96.6 6.45" />
  </g>
</g>
<g stroke="none" fill="#4682B4">
  <path d="M 22.38 54.75 L 24.37 54.75 24.37 53.31 22.38 53.31 z" />
  <path d="M 24.17 54.75 L 26.16 54.75 26.16 52.82 24.17 52.82 z" />
  <path d="M 25.96 54.75 L 27.94 54.75 27.94 47.99 25.96 47.99 z" />
  <path d="M 27.74 54.75 L 29.73 54.75 29.73 36.4 27.74 36.4 z" />
  <path d="M 29.53 54.75 L 31.52 54.75 31.52 22.39 29.53 22.39 z" />
  <path d="M 31.32 54.75 L 33.31 54.75 33.31 18.04 31.32 18.04 z" />
  <path d="M 33.11 54.75 L 35.1 54.75 35.1 8.86 33.11 8.86 z" />
  <path d="M 34.9 54.75 L 36.88 54.75 36.88 18.53 34.9 18.53 z" />
  <path d="M 36.68 54.75 L 38.67 54.75 38.67 22.87 36.68 22.87 z" />
  <path d="M 38.47 54.75 L 40.46 54.75 40.46 37.85 38.47 37.85 z" />
  <path d="M 40.26 54.75 L 42.25 54.75 42.25 47.03 40.26 47.03 z" />
  <path d="M 42.05 54.75 L 44.03 54.75 44.03 50.89 42.05 50.89 z" />
  <path d="M 43.83 54.75 L 45.82 54.75 45.82 53.79 43.83 53.79 z" />
  <path d="M 45.62 54.75 L 47.61 54.75 47.61 54.27 45.62 54.27 z" />
  <path d="M 47.41 54.75 L 49.4 54.75 49.4 54.75 47.41 54.75 z" />
  <path d="M 49.2 54.75 L 51.18 54.75 51.18 54.75 49.2 54.75 z" />
  <path d="M 50.98 54.75 L 52.97 54.75 52.97 54.75 50.98 54.75 z" />
  <path d="M 52.77 54.75 L 54.76 54.75 54.76 54.75 52.77 54.75 z" />
  <path d="M 54.56 54.75 L 56.55 54.75 56.55 54.75 54.56 54.75 z" />
  <path d="M 56.35 54.75 L 58.33 54.75 58.33 54.75 56.35 54.75 z" />
  <path d="M 58.13 54.75 L 60.12 54.75 60.12 54.75 58.13 54.75 z" />
  <path d="M 59.92 54.75 L 61.91 54.75 61.91 54.27 59.92 54.27 z" />
  <path d="M 61.71 54.75 L 63.7 54.75 63.7 54.75 61.71 54.75 z" />
  <path d="M 63.5 54.75 L 65.48 54.75 65.48 52.34 63.5 52.34 z" />
  <path d="M 65.28 54.75 L 67.27 54.75 67.27 48.48 65.28 48.48 z" />
  <path d="M 67.07 54.75 L 69.06 54.75 69.06 45.58 67.07 45.58 z" />
  <path d="M 68.86 54.75 L 70.85 54.75 70.85 34.95 68.86 34.95 z" />
  <path d="M 70.65 54.75 L 72.63 54.75 72.63 18.53 70.65 18.53 z" />
  <path d="M 72.43 54.75 L 74.42 54.75 74.42 17.08 72.43 17.08 z" />
  <path d="M 74.22 54.75 L 76.21 54.75 76.21 7.9 74.22 7.9 z" />
  <path d="M 76.01 54.75 L 78 54.75 78 23.36 76.01 23.36 z" />
  <path d="M 77.8 54.75 L 79.78 54.75 79.78 26.74 77.8 26.74 z" />
  <path d="M 79.58 54.75 L 81.57 54.75 81.57 39.3 79.58 39.3 z" />
  <path d="M 81.37 54.75 L 83.36 54.75 83.36 50.41 81.37 50.41 z" />
  <path d="M 83.16 54.75 L 85.15 54.75 85.15 52.82 83.16 52.82 z" />
  <path d="M 84.95 54.75 L 86.93 54.75 86.93 54.27 84.95 54.27 z" />
  <path d="M 86.73 54.75 L 88.72 54.75 88.72 53.79 86.73 53.79 z" />
</g>
<g font-family="Source Sans Pro" font-size="3.18" stroke="none" fill="#4C404B">
  <text x="94.2" y="61.25" text-anchor="middle">10</text>
  <text x="74.18" y="61.25" text-anchor="middle">5</text>
  <text x="54.17" y="61.25" text-anchor="middle">0</text>
  <text x="34.15" y="61.25" text-anchor="middle">-5</text>
  <text x="14.14" y="61.25" text-anchor="middle">-10</text>
</g>
<g font-family="Source Sans Pro" font-size="3.88" stroke="none" fill="#362A35">
  <text x="54.17" y="69.2" text-anchor="middle">x</text>
</g>
<g font-family="Source Sans Pro" font-size="3.18" stroke="none" fill="#4C404B">
  <text x="10.73" y="30.6" text-anchor="end" style="dominant-baseline:central">50</text>
  <text x="10.73" y="54.75" text-anchor="end" style="dominant-baseline:central">0</text>
  <text x="10.73" y="6.45" text-anchor="end" style="dominant-baseline:central">100</text>
</g>
</svg>
