<?xml version="1.0" encoding="UTF-8"?>
<svg xmlns="http://www.w3.org/2000/svg" xmlns:xlink="http://www.w3.org/1999/xlink" version="1.1" width="152.4mm" height="152.4mm" viewBox="0 0 152.4 152.4" style="stroke:black;fill:black" stroke-width="0.5">
<g stroke="#F2F2F2" fill="#F5F5F5">
  <path d="M 21.24 5 L 147.4 5 147.4 133.19 21.24 133.19 z" />
  <g stroke="#FFFFFF" stroke-width="0.3">
    <path d="M54.57,5 L 54.57 133.19" />
    <path d="M143.83,5 L 143.83 133.19" />
    <path d="M84.32,5 L 84.32 133.19" />
    <path d="M114.08,5 L 114.08 133.19" />
    <path d="M24.81,5 L 24.81 133.19" />
  </g>
  <g stroke="#FFFFFF" stroke-width="0.3">
    <path d="M21.24,32.81 L 147.4 32.81" />
    <path d="M21.24,129.56 L 147.4 129.56" />
    <path d="M21.24,105.37 L 147.4 105.37" />
    <path d="M21.24,8.63 L 147.4 8.63" />
    <path d="M21.24,57 L 147.4 57" />
    <path d="M21.24,81.19 L 147.4 81.19" />
  </g>
</g>
<g stroke="none" stroke-width="0.3">
  <g fill="#4682B4" stroke="#0F5D8C" class="color_group_RGB(0.27450980392156865,0.5098039215686274,0.7058823529411765)">
    <circle cx="92.2" cy="65.5" r="0.5" />
    <circle cx="79.58" cy="76.58" r="0.5" />
    <circle cx="86.26" cy="83.4" r="0.5" />
    <circle cx="124" cy="41.85" r="0.5" />
    <circle cx="107.53" cy="55.13" r="0.5" />
    <circle cx="105.77" cy="55.53" r="0.5" />
    <circle cx="101.74" cy="57.19" r="0.5" />
    <circle cx="84.57" cy="87.47" r="0.5" />
    <circle cx="93.58" cy="62.72" r="0.5" />
    <circle cx="78.79" cy="85.87" r="0.5" />
    <circle cx="69.51" cy="90.81" r="0.5" />
    <circle cx="83.78" cy="87.09" r="0.5" />
    <circle cx="84.32" cy="85.55" r="0.5" />
    <circle cx="50.09" cy="126.02" r="0.5" />
    <circle cx="66.14" cy="105.37" r="0.5" />
    <circle cx="92.41" cy="80.38" r="0.5" />
    <circle cx="88.8" cy="79.01" r="0.5" />
    <circle cx="87.75" cy="86.04" r="0.5" />
    <circle cx="134.99" cy="16.78" r="0.5" />
    <circle cx="59.95" cy="118.02" r="0.5" />
    <circle cx="118.12" cy="41.95" r="0.5" />
    <circle cx="124.74" cy="37.26" r="0.5" />
    <circle cx="82.76" cy="92.21" r="0.5" />
    <circle cx="99.2" cy="55.53" r="0.5" />
    <circle cx="92.03" cy="71.31" r="0.5" />
    <circle cx="73.92" cy="88.47" r="0.5" />
    <circle cx="86.54" cy="75.31" r="0.5" />
    <circle cx="124.84" cy="36.86" r="0.5" />
    <circle cx="118.78" cy="42.28" r="0.5" />
    <circle cx="113.02" cy="44.62" r="0.5" />
    <circle cx="82.46" cy="79.01" r="0.5" />
    <circle cx="110.99" cy="29.9" r="0.5" />
    <circle cx="141.2" cy="14.51" r="0.5" />
    <circle cx="92.41" cy="91.08" r="0.5" />
    <circle cx="96.71" cy="50.88" r="0.5" />
    <circle cx="107.29" cy="63.09" r="0.5" />
    <circle cx="93.36" cy="75.61" r="0.5" />
    <circle cx="70.62" cy="105.37" r="0.5" />
    <circle cx="59.95" cy="115" r="0.5" />
    <circle cx="54.57" cy="119.93" r="0.5" />
    <circle cx="86.49" cy="78.84" r="0.5" />
    <circle cx="120" cy="40.31" r="0.5" />
    <circle cx="90.24" cy="79.18" r="0.5" />
    <circle cx="110.27" cy="51.12" r="0.5" />
    <circle cx="114.08" cy="52.26" r="0.5" />
    <circle cx="109.87" cy="41.44" r="0.5" />
    <circle cx="99.54" cy="50.86" r="0.5" />
    <circle cx="80.46" cy="96.18" r="0.5" />
    <circle cx="110.77" cy="59.21" r="0.5" />
    <circle cx="92.6" cy="73.39" r="0.5" />
    <circle cx="93.73" cy="66.84" r="0.5" />
    <circle cx="76.1" cy="98.63" r="0.5" />
    <circle cx="67.58" cy="103.46" r="0.5" />
    <circle cx="70.73" cy="93.83" r="0.5" />
    <circle cx="64.7" cy="117.02" r="0.5" />
    <circle cx="118.29" cy="50.83" r="0.5" />
    <circle cx="91.42" cy="71.56" r="0.5" />
    <circle cx="117.11" cy="51.49" r="0.5" />
    <circle cx="83.64" cy="95.34" r="0.5" />
    <circle cx="87.44" cy="79.81" r="0.5" />
    <circle cx="69.7" cy="95.75" r="0.5" />
    <circle cx="93.65" cy="64.2" r="0.5" />
  </g>
</g>
<g stroke="none" fill="#4C404B" font-family="Source Sans Pro" font-size="3.18">
  <text x="54.57" y="138.45" text-anchor="middle">10<tspan baseline-shift="1.722548" font-size="83.333333%">-2</tspan></text>
  <text x="143.83" y="138.45" text-anchor="middle">10<tspan baseline-shift="1.722548" font-size="83.333333%">4</tspan></text>
  <text x="84.32" y="138.45" text-anchor="middle">10<tspan baseline-shift="1.722548" font-size="83.333333%">0</tspan></text>
  <text x="114.08" y="138.45" text-anchor="middle">10<tspan baseline-shift="1.722548" font-size="83.333333%">2</tspan></text>
  <text x="24.81" y="138.45" text-anchor="middle">10<tspan baseline-shift="1.722548" font-size="83.333333%">-4</tspan></text>
</g>
<g stroke="none" fill="#362A35" font-family="Source Sans Pro" font-size="3.88">
  <text x="84.32" y="145.4" text-anchor="middle">body</text>
</g>
<g stroke="none" fill="#362A35" font-family="Source Sans Pro" font-size="3.88">
  <text x="9.47" y="69.09" text-anchor="middle" style="dominant-baseline:central" transform="rotate(-90, 9.47, 69.09)">brain</text>
</g>
<g stroke="none" fill="#4C404B" font-family="Source Sans Pro" font-size="3.18">
  <text x="20.24" y="32.81" text-anchor="end" style="dominant-baseline:central">10<tspan baseline-shift="1.722548" font-size="83.333333%">3</tspan></text>
  <text x="20.24" y="129.56" text-anchor="end" style="dominant-baseline:central">10<tspan baseline-shift="1.722548" font-size="83.333333%">-1</tspan></text>
  <text x="20.24" y="105.37" text-anchor="end" style="dominant-baseline:central">10<tspan baseline-shift="1.722548" font-size="83.333333%">0</tspan></text>
  <text x="20.24" y="8.63" text-anchor="end" style="dominant-baseline:central">10<tspan baseline-shift="1.722548" font-size="83.333333%">4</tspan></text>
  <text x="20.24" y="57" text-anchor="end" style="dominant-baseline:central">10<tspan baseline-shift="1.722548" font-size="83.333333%">2</tspan></text>
  <text x="20.24" y="81.19" text-anchor="end" style="dominant-baseline:central">10<tspan baseline-shift="1.722548" font-size="83.333333%">1</tspan></text>
</g>
</svg>
