<?xml version="1.0" encoding="UTF-8"?>
<svg xmlns="http://www.w3.org/2000/svg" xmlns:xlink="http://www.w3.org/1999/xlink" version="1.1" width="101.6mm" height="76.2mm" viewBox="0 0 101.6 76.2" style="stroke:black;fill:black" stroke-width="0.5">
<g fill="#F5F5F5" stroke="#F2F2F2">
  <path d="M 11.73 5 L 96.6 5 96.6 56.2 11.73 56.2 z" />
  <g stroke="#FFFFFF" stroke-width="0.3">
    <path d="M94.2,5 L 94.2 56.2" />
    <path d="M74.18,5 L 74.18 56.2" />
    <path d="M54.17,5 L 54.17 56.2" />
    <path d="M34.15,5 L 34.15 56.2" />
    <path d="M14.14,5 L 14.14 56.2" />
  </g>
  <g stroke="#FFFFFF" stroke-width="0.3">
    <path d="M11.73,22.55 L 96.6 22.55" />
    <path d="M11.73,54.75 L 96.6 54.75" />
    <path d="M11.73,38.65 L 96.6 38.65" />
    <path d="M11.73,6.45 L 96.6 6.45" />
  </g>
</g>
<g fill="#4682B4" stroke="none">
  <path d="M 22.1 54.75 L 24.01 54.75 24.01 53.79 22.1 53.79 z" />
  <path d="M 23.91 54.75 L 25.82 54.75 25.82 54.43 23.91 54.43 z" />
  <path d="M 25.72 54.75 L 27.63 54.75 27.63 49.6 25.72 49.6 z" />
  <path d="M 27.53 54.75 L 29.44 54.75 29.44 41.87 27.53 41.87 z" />
  <path d="M 29.34 54.75 L 31.25 54.75 31.25 32.86 29.34 32.86 z" />
  <path d="M 31.15 54.75 L 33.06 54.75 33.06 29.64 31.15 29.64 z" />
  <path d="M 32.96 54.75 L 34.87 54.75 34.87 32.21 32.96 32.21 z" />
  <path d="M 34.77 54.75 L 36.67 54.75 36.67 25.45 34.77 25.45 z" />
  <path d="M 36.57 54.75 L 38.48 54.75 38.48 33.82 36.57 33.82 z" />
  <path d="M 38.38 54.75 L 40.29 54.75 40.29 43.81 38.38 43.81 z" />
  <path d="M 40.19 54.75 L 42.1 54.75 42.1 47.35 40.19 47.35 z" />
  <path d="M 42 54.75 L 43.91 54.75 43.91 52.82 42 52.82 z" />
  <path d="M 43.81 54.75 L 45.72 54.75 45.72 53.79 43.81 53.79 z" />
  <path d="M 45.62 54.75 L 47.53 54.75 47.53 54.11 45.62 54.11 z" />
  <path d="M 47.43 54.75 L 49.33 54.75 49.33 54.75 47.43 54.75 z" />
  <path d="M 49.23 54.75 L 51.14 54.75 51.14 54.75 49.23 54.75 z" />
  <path d="M 51.04 54.75 L 52.95 54.75 52.95 54.75 51.04 54.75 z" />
  <path d="M 52.85 54.75 L 54.76 54.75 54.76 54.75 52.85 54.75 z" />
  <path d="M 54.66 54.75 L 56.57 54.75 56.57 54.75 54.66 54.75 z" />
  <path d="M 56.47 54.75 L 58.38 54.75 58.38 54.75 56.47 54.75 z" />
  <path d="M 58.28 54.75 L 60.19 54.75 60.19 54.75 58.28 54.75 z" />
  <path d="M 60.09 54.75 L 61.99 54.75 61.99 54.75 60.09 54.75 z" />
  <path d="M 61.89 54.75 L 63.8 54.75 63.8 54.75 61.89 54.75 z" />
  <path d="M 63.7 54.75 L 65.61 54.75 65.61 52.18 63.7 52.18 z" />
  <path d="M 65.51 54.75 L 67.42 54.75 67.42 49.6 65.51 49.6 z" />
  <path d="M 67.32 54.75 L 69.23 54.75 69.23 41.55 67.32 41.55 z" />
  <path d="M 69.13 54.75 L 71.04 54.75 71.04 38.98 69.13 38.98 z" />
  <path d="M 70.94 54.75 L 72.85 54.75 72.85 28.67 70.94 28.67 z" />
  <path d="M 72.75 54.75 L 74.66 54.75 74.66 31.89 72.75 31.89 z" />
  <path d="M 74.56 54.75 L 76.46 54.75 76.46 21.91 74.56 21.91 z" />
  <path d="M 76.36 54.75 L 78.27 54.75 78.27 36.08 76.36 36.08 z" />
  <path d="M 78.17 54.75 L 80.08 54.75 80.08 42.2 78.17 42.2 z" />
  <path d="M 79.98 54.75 L 81.89 54.75 81.89 47.67 79.98 47.67 z" />
  <path d="M 81.79 54.75 L 83.7 54.75 83.7 53.14 81.79 53.14 z" />
  <path d="M 83.6 54.75 L 85.51 54.75 85.51 52.18 83.6 52.18 z" />
</g>
<g fill="#4C404B" stroke="none" font-size="3.18" font-family="Source Sans Pro">
  <text x="94.2" y="61.25" text-anchor="middle">10</text>
  <text x="74.18" y="61.25" text-anchor="middle">5</text>
  <text x="54.17" y="61.25" text-anchor="middle">0</text>
  <text x="34.15" y="61.25" text-anchor="middle">-5</text>
  <text x="14.14" y="61.25" text-anchor="middle">-10</text>
</g>
<g fill="#362A35" stroke="none" font-size="3.88" font-family="Source Sans Pro">
  <text x="54.17" y="69.2" text-anchor="middle">x</text>
</g>
<g fill="#4C404B" stroke="none" font-size="3.18" font-family="Source Sans Pro">
  <text x="10.73" y="22.55" text-anchor="end" style="dominant-baseline:central">100</text>
  <text x="10.73" y="54.75" text-anchor="end" style="dominant-baseline:central">0</text>
  <text x="10.73" y="38.65" text-anchor="end" style="dominant-baseline:central">50</text>
  <text x="10.73" y="6.45" text-anchor="end" style="dominant-baseline:central">150</text>
</g>
</svg>
