<?xml version="1.0" encoding="UTF-8"?>
<svg xmlns="http://www.w3.org/2000/svg" xmlns:xlink="http://www.w3.org/1999/xlink" version="1.1" width="152.4mm" height="152.4mm" viewBox="0 0 152.4 152.4" style="stroke:black;fill:black" stroke-width="0.5">
<g>
  <g stroke="none" font-family="PT Sans,Helvetica Neue,Helvetica,sans" font-size="3.18" fill="#4C404B">
    <text x="21.49" y="110.96" text-anchor="end" style="dominant-baseline:central">1000</text>
    <text x="21.49" y="90.51" text-anchor="end" style="dominant-baseline:central">2000</text>
    <text x="21.49" y="49.59" text-anchor="end" style="dominant-baseline:central">4000</text>
    <text x="21.49" y="131.42" text-anchor="end" style="dominant-baseline:central">0</text>
    <text x="21.49" y="70.05" text-anchor="end" style="dominant-baseline:central">3000</text>
    <text x="21.49" y="29.14" text-anchor="end" style="dominant-baseline:central">5000</text>
    <text x="21.49" y="8.68" text-anchor="end" style="dominant-baseline:central">6000</text>
  </g>
  <g stroke="none" font-family="PT Sans,Helvetica Neue,Helvetica,sans" font-size="3.88" fill="#362A35">
    <text x="9.28" y="70.05" text-anchor="middle" style="dominant-baseline:central" transform="rotate(-90, 9.28, 70.05)">brain</text>
  </g>
  <g stroke="none" font-family="PT Sans,Helvetica Neue,Helvetica,sans" font-size="3.18" fill="#4C404B">
    <text x="143.86" y="138.84" text-anchor="middle">8000</text>
    <text x="84.94" y="138.84" text-anchor="middle">4000</text>
    <text x="26.02" y="138.84" text-anchor="middle">0</text>
    <text x="55.48" y="138.84" text-anchor="middle">2000</text>
    <text x="114.4" y="138.84" text-anchor="middle">6000</text>
  </g>
  <g stroke="none" font-family="PT Sans,Helvetica Neue,Helvetica,sans" font-size="3.88" fill="#362A35">
    <text x="84.94" y="145.4" text-anchor="middle">body</text>
  </g>
  <g stroke="#FFFFFF" fill="#FFFFFF">
    <path d="M 22.49 5 L 147.4 5 147.4 135.1 22.49 135.1 z" />
  </g>
  <g stroke-width="0.3" stroke="#F5F5F5">
    <path d="M22.49,110.96 L 147.4 110.96" />
    <path d="M22.49,90.51 L 147.4 90.51" />
    <path d="M22.49,49.59 L 147.4 49.59" />
    <path d="M22.49,131.42 L 147.4 131.42" />
    <path d="M22.49,70.05 L 147.4 70.05" />
    <path d="M22.49,29.14 L 147.4 29.14" />
    <path d="M22.49,8.68 L 147.4 8.68" />
  </g>
  <g stroke-width="0.3" stroke="#F5F5F5">
    <path d="M143.86,5 L 143.86 135.1" />
    <path d="M84.94,5 L 84.94 135.1" />
    <path d="M26.02,5 L 26.02 135.1" />
    <path d="M55.48,5 L 55.48 135.1" />
    <path d="M114.4,5 L 114.4 135.1" />
  </g>
  <g stroke-width="0.3" stroke="#F5F5F5" visibility="hidden" font-family="PT Sans,Helvetica Neue,Helvetica,sans" font-size="3.18">
    <g id="id360-annotation">
      <path d="M22.49,131.37 L 147.4 131.37" />
      <path d="M26.02,5 L 26.02 135.1" />
    </g>
    <g id="id358-annotation">
      <path d="M22.49,131.37 L 147.4 131.37" />
      <path d="M26.03,5 L 26.03 135.1" />
    </g>
    <g id="id356-annotation">
      <path d="M22.49,130.91 L 147.4 130.91" />
      <path d="M26.06,5 L 26.06 135.1" />
    </g>
    <g id="id354-annotation">
      <path d="M22.49,131.41 L 147.4 131.41" />
      <path d="M26.02,5 L 26.02 135.1" />
    </g>
    <g id="id352-annotation">
      <path d="M22.49,131.4 L 147.4 131.4" />
      <path d="M26.02,5 L 26.02 135.1" />
    </g>
    <g id="id350-annotation">
      <path d="M22.49,130.62 L 147.4 130.62" />
      <path d="M26.08,5 L 26.08 135.1" />
    </g>
    <g id="id348-annotation">
      <path d="M22.49,129.76 L 147.4 129.76" />
      <path d="M26.9,5 L 26.9 135.1" />
    </g>
    <g id="id346-annotation">
      <path d="M22.49,127.75 L 147.4 127.75" />
      <path d="M26.18,5 L 26.18 135.1" />
    </g>
    <g id="id344-annotation">
      <path d="M22.49,128.21 L 147.4 128.21" />
      <path d="M27.49,5 L 27.49 135.1" />
    </g>
    <g id="id342-annotation">
      <path d="M22.49,131.17 L 147.4 131.17" />
      <path d="M26.06,5 L 26.06 135.1" />
    </g>
    <g id="id340-annotation">
      <path d="M22.49,131.16 L 147.4 131.16" />
      <path d="M26.04,5 L 26.04 135.1" />
    </g>
    <g id="id338-annotation">
      <path d="M22.49,131.41 L 147.4 131.41" />
      <path d="M26.02,5 L 26.02 135.1" />
    </g>
    <g id="id336-annotation">
      <path d="M22.49,131.07 L 147.4 131.07" />
      <path d="M26.08,5 L 26.08 135.1" />
    </g>
    <g id="id334-annotation">
      <path d="M22.49,127.76 L 147.4 127.76" />
      <path d="M26.12,5 L 26.12 135.1" />
    </g>
    <g id="id332-annotation">
      <path d="M22.49,14.57 L 147.4 14.57" />
      <path d="M124.04,5 L 124.04 135.1" />
    </g>
    <g id="id330-annotation">
      <path d="M22.49,131.17 L 147.4 131.17" />
      <path d="M26.03,5 L 26.03 135.1" />
    </g>
    <g id="id328-annotation">
      <path d="M22.49,123.12 L 147.4 123.12" />
      <path d="M29.07,5 L 29.07 135.1" />
    </g>
    <g id="id326-annotation">
      <path d="M22.49,131.06 L 147.4 131.06" />
      <path d="M26.04,5 L 26.04 135.1" />
    </g>
    <g id="id324-annotation">
      <path d="M22.49,130.9 L 147.4 130.9" />
      <path d="M26.07,5 L 26.07 135.1" />
    </g>
    <g id="id322-annotation">
      <path d="M22.49,131.35 L 147.4 131.35" />
      <path d="M26.03,5 L 26.03 135.1" />
    </g>
    <g id="id320-annotation">
      <path d="M22.49,122.85 L 147.4 122.85" />
      <path d="M28.78,5 L 28.78 135.1" />
    </g>
    <g id="id318-annotation">
      <path d="M22.49,37.26 L 147.4 37.26" />
      <path d="M63.54,5 L 63.54 135.1" />
    </g>
    <g id="id316-annotation">
      <path d="M22.49,131.17 L 147.4 131.17" />
      <path d="M26.05,5 L 26.05 135.1" />
    </g>
    <g id="id314-annotation">
      <path d="M22.49,131.4 L 147.4 131.4" />
      <path d="M26.02,5 L 26.02 135.1" />
    </g>
    <g id="id312-annotation">
      <path d="M22.49,131.29 L 147.4 131.29" />
      <path d="M26.04,5 L 26.04 135.1" />
    </g>
    <g id="id310-annotation">
      <path d="M22.49,131.34 L 147.4 131.34" />
      <path d="M26.02,5 L 26.02 135.1" />
    </g>
    <g id="id308-annotation">
      <path d="M22.49,130.23 L 147.4 130.23" />
      <path d="M26.08,5 L 26.08 135.1" />
    </g>
    <g id="id306-annotation">
      <path d="M22.49,129.41 L 147.4 129.41" />
      <path d="M26.24,5 L 26.24 135.1" />
    </g>
    <g id="id304-annotation">
      <path d="M22.49,128.98 L 147.4 128.98" />
      <path d="M26.56,5 L 26.56 135.1" />
    </g>
    <g id="id302-annotation">
      <path d="M22.49,131.25 L 147.4 131.25" />
      <path d="M26.04,5 L 26.04 135.1" />
    </g>
    <g id="id300-annotation">
      <path d="M22.49,130.51 L 147.4 130.51" />
      <path d="M26.07,5 L 26.07 135.1" />
    </g>
    <g id="id301-annotation">
      <path d="M22.49,131.1 L 147.4 131.1" />
      <path d="M26.03,5 L 26.03 135.1" />
    </g>
    <g id="id303-annotation">
      <path d="M22.49,122.77 L 147.4 122.77" />
      <path d="M32.87,5 L 32.87 135.1" />
    </g>
    <g id="id305-annotation">
      <path d="M22.49,129.07 L 147.4 129.07" />
      <path d="M26.43,5 L 26.43 135.1" />
    </g>
    <g id="id307-annotation">
      <path d="M22.49,131.31 L 147.4 131.31" />
      <path d="M26.04,5 L 26.04 135.1" />
    </g>
    <g id="id309-annotation">
      <path d="M22.49,131.29 L 147.4 131.29" />
      <path d="M26.03,5 L 26.03 135.1" />
    </g>
    <g id="id311-annotation">
      <path d="M22.49,131.3 L 147.4 131.3" />
      <path d="M26.03,5 L 26.03 135.1" />
    </g>
    <g id="id313-annotation">
      <path d="M22.49,131.42 L 147.4 131.42" />
      <path d="M26.02,5 L 26.02 135.1" />
    </g>
    <g id="id315-annotation">
      <path d="M22.49,131.2 L 147.4 131.2" />
      <path d="M26.07,5 L 26.07 135.1" />
    </g>
    <g id="id317-annotation">
      <path d="M22.49,131.29 L 147.4 131.29" />
      <path d="M26.05,5 L 26.05 135.1" />
    </g>
    <g id="id319-annotation">
      <path d="M22.49,131.41 L 147.4 131.41" />
      <path d="M26.02,5 L 26.02 135.1" />
    </g>
    <g id="id321-annotation">
      <path d="M22.49,118.02 L 147.4 118.02" />
      <path d="M33.7,5 L 33.7 135.1" />
    </g>
    <g id="id323-annotation">
      <path d="M22.49,129.07 L 147.4 129.07" />
      <path d="M26.17,5 L 26.17 135.1" />
    </g>
    <g id="id325-annotation">
      <path d="M22.49,131.32 L 147.4 131.32" />
      <path d="M26.02,5 L 26.02 135.1" />
    </g>
    <g id="id327-annotation">
      <path d="M22.49,117.51 L 147.4 117.51" />
      <path d="M33.81,5 L 33.81 135.1" />
    </g>
    <g id="id329-annotation">
      <path d="M22.49,124.77 L 147.4 124.77" />
      <path d="M27.27,5 L 27.27 135.1" />
    </g>
    <g id="id331-annotation">
      <path d="M22.49,104.42 L 147.4 104.42" />
      <path d="M26.93,5 L 26.93 135.1" />
    </g>
    <g id="id333-annotation">
      <path d="M22.49,131.34 L 147.4 131.34" />
      <path d="M26.07,5 L 26.07 135.1" />
    </g>
    <g id="id335-annotation">
      <path d="M22.49,130.28 L 147.4 130.28" />
      <path d="M26.54,5 L 26.54 135.1" />
    </g>
    <g id="id337-annotation">
      <path d="M22.49,131.4 L 147.4 131.4" />
      <path d="M26.02,5 L 26.02 135.1" />
    </g>
    <g id="id339-annotation">
      <path d="M22.49,131.42 L 147.4 131.42" />
      <path d="M26.02,5 L 26.02 135.1" />
    </g>
    <g id="id341-annotation">
      <path d="M22.49,121.4 L 147.4 121.4" />
      <path d="M29.7,5 L 29.7 135.1" />
    </g>
    <g id="id343-annotation">
      <path d="M22.49,127.84 L 147.4 127.84" />
      <path d="M26.84,5 L 26.84 135.1" />
    </g>
    <g id="id345-annotation">
      <path d="M22.49,122.42 L 147.4 122.42" />
      <path d="M26.79,5 L 26.79 135.1" />
    </g>
    <g id="id347-annotation">
      <path d="M22.49,131.37 L 147.4 131.37" />
      <path d="M26.03,5 L 26.03 135.1" />
    </g>
    <g id="id349-annotation">
      <path d="M22.49,130.99 L 147.4 130.99" />
      <path d="M26.07,5 L 26.07 135.1" />
    </g>
    <g id="id351-annotation">
      <path d="M22.49,131.38 L 147.4 131.38" />
      <path d="M26.02,5 L 26.02 135.1" />
    </g>
    <g id="id353-annotation">
      <path d="M22.49,131.36 L 147.4 131.36" />
      <path d="M26.02,5 L 26.02 135.1" />
    </g>
    <g id="id355-annotation">
      <path d="M22.49,127.74 L 147.4 127.74" />
      <path d="M28.85,5 L 28.85 135.1" />
    </g>
    <g id="id357-annotation">
      <path d="M22.49,127.96 L 147.4 127.96" />
      <path d="M28.38,5 L 28.38 135.1" />
    </g>
    <g id="id359-annotation">
      <path d="M22.49,131.19 L 147.4 131.19" />
      <path d="M26.04,5 L 26.04 135.1" />
    </g>
    <g id="id361-annotation">
      <path d="M22.49,130.39 L 147.4 130.39" />
      <path d="M26.08,5 L 26.08 135.1" />
    </g>
  </g>
  <g stroke-width="0.3">
    <g class="color_group_RGB(0.27450980392156865,0.5098039215686274,0.7058823529411765)" stroke="#0F5D8C" fill="#4682B4">
      <g class="geometry" id="id360">
        <circle cx="26.02" cy="131.37" r="0.5" />
      </g>
      <g class="geometry" id="id358">
        <circle cx="26.03" cy="131.37" r="0.5" />
      </g>
      <g class="geometry" id="id356">
        <circle cx="26.06" cy="130.91" r="0.5" />
      </g>
      <g class="geometry" id="id354">
        <circle cx="26.02" cy="131.41" r="0.5" />
      </g>
      <g class="geometry" id="id352">
        <circle cx="26.02" cy="131.4" r="0.5" />
      </g>
      <g class="geometry" id="id350">
        <circle cx="26.08" cy="130.62" r="0.5" />
      </g>
      <g class="geometry" id="id348">
        <circle cx="26.9" cy="129.76" r="0.5" />
      </g>
      <g class="geometry" id="id346">
        <circle cx="26.18" cy="127.75" r="0.5" />
      </g>
      <g class="geometry" id="id344">
        <circle cx="27.49" cy="128.21" r="0.5" />
      </g>
      <g class="geometry" id="id342">
        <circle cx="26.06" cy="131.17" r="0.5" />
      </g>
      <g class="geometry" id="id340">
        <circle cx="26.04" cy="131.16" r="0.5" />
      </g>
      <g class="geometry" id="id338">
        <circle cx="26.02" cy="131.41" r="0.5" />
      </g>
      <g class="geometry" id="id336">
        <circle cx="26.08" cy="131.07" r="0.5" />
      </g>
      <g class="geometry" id="id334">
        <circle cx="26.12" cy="127.76" r="0.5" />
      </g>
      <g class="geometry" id="id332">
        <circle cx="124.04" cy="14.57" r="0.5" />
      </g>
      <g class="geometry" id="id330">
        <circle cx="26.03" cy="131.17" r="0.5" />
      </g>
      <g class="geometry" id="id328">
        <circle cx="29.07" cy="123.12" r="0.5" />
      </g>
      <g class="geometry" id="id326">
        <circle cx="26.04" cy="131.06" r="0.5" />
      </g>
      <g class="geometry" id="id324">
        <circle cx="26.07" cy="130.9" r="0.5" />
      </g>
      <g class="geometry" id="id322">
        <circle cx="26.03" cy="131.35" r="0.5" />
      </g>
      <g class="geometry" id="id320">
        <circle cx="28.78" cy="122.85" r="0.5" />
      </g>
      <g class="geometry" id="id318">
        <circle cx="63.54" cy="37.26" r="0.5" />
      </g>
      <g class="geometry" id="id316">
        <circle cx="26.05" cy="131.17" r="0.5" />
      </g>
      <g class="geometry" id="id314">
        <circle cx="26.02" cy="131.4" r="0.5" />
      </g>
      <g class="geometry" id="id312">
        <circle cx="26.04" cy="131.29" r="0.5" />
      </g>
      <g class="geometry" id="id310">
        <circle cx="26.02" cy="131.34" r="0.5" />
      </g>
      <g class="geometry" id="id308">
        <circle cx="26.08" cy="130.23" r="0.5" />
      </g>
      <g class="geometry" id="id306">
        <circle cx="26.24" cy="129.41" r="0.5" />
      </g>
      <g class="geometry" id="id304">
        <circle cx="26.56" cy="128.98" r="0.5" />
      </g>
      <g class="geometry" id="id302">
        <circle cx="26.04" cy="131.25" r="0.5" />
      </g>
      <g class="geometry" id="id300">
        <circle cx="26.07" cy="130.51" r="0.5" />
      </g>
      <g class="geometry" id="id301">
        <circle cx="26.03" cy="131.1" r="0.5" />
      </g>
      <g class="geometry" id="id303">
        <circle cx="32.87" cy="122.77" r="0.5" />
      </g>
      <g class="geometry" id="id305">
        <circle cx="26.43" cy="129.07" r="0.5" />
      </g>
      <g class="geometry" id="id307">
        <circle cx="26.04" cy="131.31" r="0.5" />
      </g>
      <g class="geometry" id="id309">
        <circle cx="26.03" cy="131.29" r="0.5" />
      </g>
      <g class="geometry" id="id311">
        <circle cx="26.03" cy="131.3" r="0.5" />
      </g>
      <g class="geometry" id="id313">
        <circle cx="26.02" cy="131.42" r="0.5" />
      </g>
      <g class="geometry" id="id315">
        <circle cx="26.07" cy="131.2" r="0.5" />
      </g>
      <g class="geometry" id="id317">
        <circle cx="26.05" cy="131.29" r="0.5" />
      </g>
      <g class="geometry" id="id319">
        <circle cx="26.02" cy="131.41" r="0.5" />
      </g>
      <g class="geometry" id="id321">
        <circle cx="33.7" cy="118.02" r="0.5" />
      </g>
      <g class="geometry" id="id323">
        <circle cx="26.17" cy="129.07" r="0.5" />
      </g>
      <g class="geometry" id="id325">
        <circle cx="26.02" cy="131.32" r="0.5" />
      </g>
      <g class="geometry" id="id327">
        <circle cx="33.81" cy="117.51" r="0.5" />
      </g>
      <g class="geometry" id="id329">
        <circle cx="27.27" cy="124.77" r="0.5" />
      </g>
      <g class="geometry" id="id331">
        <circle cx="26.93" cy="104.42" r="0.5" />
      </g>
      <g class="geometry" id="id333">
        <circle cx="26.07" cy="131.34" r="0.5" />
      </g>
      <g class="geometry" id="id335">
        <circle cx="26.54" cy="130.28" r="0.5" />
      </g>
      <g class="geometry" id="id337">
        <circle cx="26.02" cy="131.4" r="0.5" />
      </g>
      <g class="geometry" id="id339">
        <circle cx="26.02" cy="131.42" r="0.5" />
      </g>
      <g class="geometry" id="id341">
        <circle cx="29.7" cy="121.4" r="0.5" />
      </g>
      <g class="geometry" id="id343">
        <circle cx="26.84" cy="127.84" r="0.5" />
      </g>
      <g class="geometry" id="id345">
        <circle cx="26.79" cy="122.42" r="0.5" />
      </g>
      <g class="geometry" id="id347">
        <circle cx="26.03" cy="131.37" r="0.5" />
      </g>
      <g class="geometry" id="id349">
        <circle cx="26.07" cy="130.99" r="0.5" />
      </g>
      <g class="geometry" id="id351">
        <circle cx="26.02" cy="131.38" r="0.5" />
      </g>
      <g class="geometry" id="id353">
        <circle cx="26.02" cy="131.36" r="0.5" />
      </g>
      <g class="geometry" id="id355">
        <circle cx="28.85" cy="127.74" r="0.5" />
      </g>
      <g class="geometry" id="id357">
        <circle cx="28.38" cy="127.96" r="0.5" />
      </g>
      <g class="geometry" id="id359">
        <circle cx="26.04" cy="131.19" r="0.5" />
      </g>
      <g class="geometry" id="id361">
        <circle cx="26.08" cy="130.39" r="0.5" />
      </g>
    </g>
  </g>
  <g opacity="0" stroke="none">
    <g onmouseover="show_annotation('id360')" onmouseout="hide_annotation('id360')">
      <path d="M 24.52 129.87 L 27.52 129.87 27.52 132.87 24.52 132.87 z" />
    </g>
    <g onmouseover="show_annotation('id358')" onmouseout="hide_annotation('id358')">
      <path d="M 24.53 129.87 L 27.53 129.87 27.53 132.87 24.53 132.87 z" />
    </g>
    <g onmouseover="show_annotation('id356')" onmouseout="hide_annotation('id356')">
      <path d="M 24.56 129.41 L 27.56 129.41 27.56 132.41 24.56 132.41 z" />
    </g>
    <g onmouseover="show_annotation('id354')" onmouseout="hide_annotation('id354')">
      <path d="M 24.52 129.91 L 27.52 129.91 27.52 132.91 24.52 132.91 z" />
    </g>
    <g onmouseover="show_annotation('id352')" onmouseout="hide_annotation('id352')">
      <path d="M 24.52 129.9 L 27.52 129.9 27.52 132.9 24.52 132.9 z" />
    </g>
    <g onmouseover="show_annotation('id350')" onmouseout="hide_annotation('id350')">
      <path d="M 24.58 129.12 L 27.58 129.12 27.58 132.12 24.58 132.12 z" />
    </g>
    <g onmouseover="show_annotation('id348')" onmouseout="hide_annotation('id348')">
      <path d="M 25.4 128.26 L 28.4 128.26 28.4 131.26 25.4 131.26 z" />
    </g>
    <g onmouseover="show_annotation('id346')" onmouseout="hide_annotation('id346')">
      <path d="M 24.68 126.25 L 27.68 126.25 27.68 129.25 24.68 129.25 z" />
    </g>
    <g onmouseover="show_annotation('id344')" onmouseout="hide_annotation('id344')">
      <path d="M 25.99 126.71 L 28.99 126.71 28.99 129.71 25.99 129.71 z" />
    </g>
    <g onmouseover="show_annotation('id342')" onmouseout="hide_annotation('id342')">
      <path d="M 24.56 129.67 L 27.56 129.67 27.56 132.67 24.56 132.67 z" />
    </g>
    <g onmouseover="show_annotation('id340')" onmouseout="hide_annotation('id340')">
      <path d="M 24.54 129.66 L 27.54 129.66 27.54 132.66 24.54 132.66 z" />
    </g>
    <g onmouseover="show_annotation('id338')" onmouseout="hide_annotation('id338')">
      <path d="M 24.52 129.91 L 27.52 129.91 27.52 132.91 24.52 132.91 z" />
    </g>
    <g onmouseover="show_annotation('id336')" onmouseout="hide_annotation('id336')">
      <path d="M 24.58 129.57 L 27.58 129.57 27.58 132.57 24.58 132.57 z" />
    </g>
    <g onmouseover="show_annotation('id334')" onmouseout="hide_annotation('id334')">
      <path d="M 24.62 126.26 L 27.62 126.26 27.62 129.26 24.62 129.26 z" />
    </g>
    <g onmouseover="show_annotation('id332')" onmouseout="hide_annotation('id332')">
      <path d="M 122.54 13.07 L 125.54 13.07 125.54 16.07 122.54 16.07 z" />
    </g>
    <g onmouseover="show_annotation('id330')" onmouseout="hide_annotation('id330')">
      <path d="M 24.53 129.67 L 27.53 129.67 27.53 132.67 24.53 132.67 z" />
    </g>
    <g onmouseover="show_annotation('id328')" onmouseout="hide_annotation('id328')">
      <path d="M 27.57 121.62 L 30.57 121.62 30.57 124.62 27.57 124.62 z" />
    </g>
    <g onmouseover="show_annotation('id326')" onmouseout="hide_annotation('id326')">
      <path d="M 24.54 129.56 L 27.54 129.56 27.54 132.56 24.54 132.56 z" />
    </g>
    <g onmouseover="show_annotation('id324')" onmouseout="hide_annotation('id324')">
      <path d="M 24.57 129.4 L 27.57 129.4 27.57 132.4 24.57 132.4 z" />
    </g>
    <g onmouseover="show_annotation('id322')" onmouseout="hide_annotation('id322')">
      <path d="M 24.53 129.85 L 27.53 129.85 27.53 132.85 24.53 132.85 z" />
    </g>
    <g onmouseover="show_annotation('id320')" onmouseout="hide_annotation('id320')">
      <path d="M 27.28 121.35 L 30.28 121.35 30.28 124.35 27.28 124.35 z" />
    </g>
    <g onmouseover="show_annotation('id318')" onmouseout="hide_annotation('id318')">
      <path d="M 62.04 35.76 L 65.04 35.76 65.04 38.76 62.04 38.76 z" />
    </g>
    <g onmouseover="show_annotation('id316')" onmouseout="hide_annotation('id316')">
      <path d="M 24.55 129.67 L 27.55 129.67 27.55 132.67 24.55 132.67 z" />
    </g>
    <g onmouseover="show_annotation('id314')" onmouseout="hide_annotation('id314')">
      <path d="M 24.52 129.9 L 27.52 129.9 27.52 132.9 24.52 132.9 z" />
    </g>
    <g onmouseover="show_annotation('id312')" onmouseout="hide_annotation('id312')">
      <path d="M 24.54 129.79 L 27.54 129.79 27.54 132.79 24.54 132.79 z" />
    </g>
    <g onmouseover="show_annotation('id310')" onmouseout="hide_annotation('id310')">
      <path d="M 24.52 129.84 L 27.52 129.84 27.52 132.84 24.52 132.84 z" />
    </g>
    <g onmouseover="show_annotation('id308')" onmouseout="hide_annotation('id308')">
      <path d="M 24.58 128.73 L 27.58 128.73 27.58 131.73 24.58 131.73 z" />
    </g>
    <g onmouseover="show_annotation('id306')" onmouseout="hide_annotation('id306')">
      <path d="M 24.74 127.91 L 27.74 127.91 27.74 130.91 24.74 130.91 z" />
    </g>
    <g onmouseover="show_annotation('id304')" onmouseout="hide_annotation('id304')">
      <path d="M 25.06 127.48 L 28.06 127.48 28.06 130.48 25.06 130.48 z" />
    </g>
    <g onmouseover="show_annotation('id302')" onmouseout="hide_annotation('id302')">
      <path d="M 24.54 129.75 L 27.54 129.75 27.54 132.75 24.54 132.75 z" />
    </g>
    <g onmouseover="show_annotation('id300')" onmouseout="hide_annotation('id300')">
      <path d="M 24.57 129.01 L 27.57 129.01 27.57 132.01 24.57 132.01 z" />
    </g>
    <g onmouseover="show_annotation('id301')" onmouseout="hide_annotation('id301')">
      <path d="M 24.53 129.6 L 27.53 129.6 27.53 132.6 24.53 132.6 z" />
    </g>
    <g onmouseover="show_annotation('id303')" onmouseout="hide_annotation('id303')">
      <path d="M 31.37 121.27 L 34.37 121.27 34.37 124.27 31.37 124.27 z" />
    </g>
    <g onmouseover="show_annotation('id305')" onmouseout="hide_annotation('id305')">
      <path d="M 24.93 127.57 L 27.93 127.57 27.93 130.57 24.93 130.57 z" />
    </g>
    <g onmouseover="show_annotation('id307')" onmouseout="hide_annotation('id307')">
      <path d="M 24.54 129.81 L 27.54 129.81 27.54 132.81 24.54 132.81 z" />
    </g>
    <g onmouseover="show_annotation('id309')" onmouseout="hide_annotation('id309')">
      <path d="M 24.53 129.79 L 27.53 129.79 27.53 132.79 24.53 132.79 z" />
    </g>
    <g onmouseover="show_annotation('id311')" onmouseout="hide_annotation('id311')">
      <path d="M 24.53 129.8 L 27.53 129.8 27.53 132.8 24.53 132.8 z" />
    </g>
    <g onmouseover="show_annotation('id313')" onmouseout="hide_annotation('id313')">
      <path d="M 24.52 129.92 L 27.52 129.92 27.52 132.92 24.52 132.92 z" />
    </g>
    <g onmouseover="show_annotation('id315')" onmouseout="hide_annotation('id315')">
      <path d="M 24.57 129.7 L 27.57 129.7 27.57 132.7 24.57 132.7 z" />
    </g>
    <g onmouseover="show_annotation('id317')" onmouseout="hide_annotation('id317')">
      <path d="M 24.55 129.79 L 27.55 129.79 27.55 132.79 24.55 132.79 z" />
    </g>
    <g onmouseover="show_annotation('id319')" onmouseout="hide_annotation('id319')">
      <path d="M 24.52 129.91 L 27.52 129.91 27.52 132.91 24.52 132.91 z" />
    </g>
    <g onmouseover="show_annotation('id321')" onmouseout="hide_annotation('id321')">
      <path d="M 32.2 116.52 L 35.2 116.52 35.2 119.52 32.2 119.52 z" />
    </g>
    <g onmouseover="show_annotation('id323')" onmouseout="hide_annotation('id323')">
      <path d="M 24.67 127.57 L 27.67 127.57 27.67 130.57 24.67 130.57 z" />
    </g>
    <g onmouseover="show_annotation('id325')" onmouseout="hide_annotation('id325')">
      <path d="M 24.52 129.82 L 27.52 129.82 27.52 132.82 24.52 132.82 z" />
    </g>
    <g onmouseover="show_annotation('id327')" onmouseout="hide_annotation('id327')">
      <path d="M 32.31 116.01 L 35.31 116.01 35.31 119.01 32.31 119.01 z" />
    </g>
    <g onmouseover="show_annotation('id329')" onmouseout="hide_annotation('id329')">
      <path d="M 25.77 123.27 L 28.77 123.27 28.77 126.27 25.77 126.27 z" />
    </g>
    <g onmouseover="show_annotation('id331')" onmouseout="hide_annotation('id331')">
      <path d="M 25.43 102.92 L 28.43 102.92 28.43 105.92 25.43 105.92 z" />
    </g>
    <g onmouseover="show_annotation('id333')" onmouseout="hide_annotation('id333')">
      <path d="M 24.57 129.84 L 27.57 129.84 27.57 132.84 24.57 132.84 z" />
    </g>
    <g onmouseover="show_annotation('id335')" onmouseout="hide_annotation('id335')">
      <path d="M 25.04 128.78 L 28.04 128.78 28.04 131.78 25.04 131.78 z" />
    </g>
    <g onmouseover="show_annotation('id337')" onmouseout="hide_annotation('id337')">
      <path d="M 24.52 129.9 L 27.52 129.9 27.52 132.9 24.52 132.9 z" />
    </g>
    <g onmouseover="show_annotation('id339')" onmouseout="hide_annotation('id339')">
      <path d="M 24.52 129.92 L 27.52 129.92 27.52 132.92 24.52 132.92 z" />
    </g>
    <g onmouseover="show_annotation('id341')" onmouseout="hide_annotation('id341')">
      <path d="M 28.2 119.9 L 31.2 119.9 31.2 122.9 28.2 122.9 z" />
    </g>
    <g onmouseover="show_annotation('id343')" onmouseout="hide_annotation('id343')">
      <path d="M 25.34 126.34 L 28.34 126.34 28.34 129.34 25.34 129.34 z" />
    </g>
    <g onmouseover="show_annotation('id345')" onmouseout="hide_annotation('id345')">
      <path d="M 25.29 120.92 L 28.29 120.92 28.29 123.92 25.29 123.92 z" />
    </g>
    <g onmouseover="show_annotation('id347')" onmouseout="hide_annotation('id347')">
      <path d="M 24.53 129.87 L 27.53 129.87 27.53 132.87 24.53 132.87 z" />
    </g>
    <g onmouseover="show_annotation('id349')" onmouseout="hide_annotation('id349')">
      <path d="M 24.57 129.49 L 27.57 129.49 27.57 132.49 24.57 132.49 z" />
    </g>
    <g onmouseover="show_annotation('id351')" onmouseout="hide_annotation('id351')">
      <path d="M 24.52 129.88 L 27.52 129.88 27.52 132.88 24.52 132.88 z" />
    </g>
    <g onmouseover="show_annotation('id353')" onmouseout="hide_annotation('id353')">
      <path d="M 24.52 129.86 L 27.52 129.86 27.52 132.86 24.52 132.86 z" />
    </g>
    <g onmouseover="show_annotation('id355')" onmouseout="hide_annotation('id355')">
      <path d="M 27.35 126.24 L 30.35 126.24 30.35 129.24 27.35 129.24 z" />
    </g>
    <g onmouseover="show_annotation('id357')" onmouseout="hide_annotation('id357')">
      <path d="M 26.88 126.46 L 29.88 126.46 29.88 129.46 26.88 129.46 z" />
    </g>
    <g onmouseover="show_annotation('id359')" onmouseout="hide_annotation('id359')">
      <path d="M 24.54 129.69 L 27.54 129.69 27.54 132.69 24.54 132.69 z" />
    </g>
    <g onmouseover="show_annotation('id361')" onmouseout="hide_annotation('id361')">
      <path d="M 24.58 128.89 L 27.58 128.89 27.58 131.89 24.58 131.89 z" />
    </g>
  </g>
</g>
<script type="application/ecmascript"><![CDATA[

// Functions embedded in Gadfly plots to add interactivity.


// Clicking an entry in a color key toggles visibility of the data within that
// group.
function toggle_color_group(name)
{
    geoms = document.getElementsByClassName('color_group_' + name);
    entry = document.getElementById('color_key_' + name);
    state = geoms[0].getAttribute('visibility');
    if (!state || state == 'visible') {
        for (i = 0; i < geoms.length; ++i) {
            geoms[i].setAttribute('visibility', 'hidden');
        }
        entry.setAttribute('opacity', 0.5);
    } else {
        for (i = 0; i < geoms.length; ++i) {
            geoms[i].setAttribute('visibility', 'visible');
        }
        entry.setAttribute('opacity', 1.0);
    }
}


// Turn on a possibily hidden annotation.
function show_annotation(geom_id)
{
    annot_id = geom_id + "-annotation";
    annot = document.getElementById(annot_id);
    annot.setAttribute('visibility', 'visible');
    present_geometry([geom_id]);
}


// Turn off a possibly hidden annotation.
function hide_annotation(geom_id)
{
    annot_id = geom_id + "-annotation"
    annot = document.getElementById(annot_id)
    annot.setAttribute('visibility', 'hidden')
    unpresent_geometry();
}


// Dim all geometry objects with some exceptions.
function present_geometry(ids)
{
    on_anim_dur = 0.1;

    off_anim = document.getElementById('panel-focus-filter-off-anim');
    try {
        t0 = Number(off_anim.getStartTime());
    }
    catch (err) {
        t0 = Infinity;
    }
    off_anim.endElement();

    if (t0 < Infinity) {
        t = Number(off_anim.getCurrentTime());
        d = Number(off_anim.getSimpleDuration());
        from = Number(off_anim.getAttribute('from'));
        to = Number(off_anim.getAttribute('to'));
        p = Math.max(0.0, Math.min(1.0, ((t - t0) / d)));
        v = from + p * (to - from);
    }
    else {
        p=1.0;
        v=0.0;
    }

    geoms = document.getElementsByClassName('geometry');
    for (i = 0; i < geoms.length; ++i) {
        geoms[i].setAttribute('filter', 'url(#panel-focus-filter)');
    }

    for (i = 0; i < ids.length; ++i) {
        geom = document.getElementById(ids[i]);
        geom.setAttribute('filter', 'inherit');
    }

    on_anim = document.getElementById('panel-focus-filter-on-anim');
    on_anim.setAttribute('from', v);
    on_anim.setAttribute('dur',  p * on_anim_dur + 's');
    on_anim.beginElement();
}


// Set all geometries to full opacity.
function unpresent_geometry()
{
    off_anim_dur = 0.3;

    on_anim = document.getElementById('panel-focus-filter-on-anim');
    try {
        t0 = Number(on_anim.getStartTime());
        t = Number(on_anim.getCurrentTime());
        d = Number(on_anim.getSimpleDuration());
        p = Math.max(0.0, Math.min(1.0, ((t - t0) / d)));
    }
    catch (err) {
        p = 1.0;
    }
    on_anim.endElement();

    from = Number(on_anim.getAttribute('from'));
    to = Number(on_anim.getAttribute('to'));
    v = from + p * (to - from);

    off_anim = document.getElementById('panel-focus-filter-off-anim');
    off_anim.setAttribute('from', v);
    dur = p * off_anim_dur
    off_anim.setAttribute('dur',  dur + 's');
    off_anim.addEventListener('endEvent', unpresent_geometry_end);
    off_anim.beginElement();

    // Webkit doesn't support the "onend" attribute, so we work arround.
    setTimeout("unpresent_geometry_end()", 1000 * dur);
}


// Called when the animation in unpresent_geometry finishes.
// Enabling a filter, even if it has no effect, adds an extra layer of
// rasterization, which tends to make things look like shit, so we clear all the
// filters when the animation ends.
function unpresent_geometry_end()
{
    // skip this function in the on_animation has been triggered since the last
    // off_animation.
    on_anim = document.getElementById('panel-focus-filter-on-anim');
    off_anim = document.getElementById('panel-focus-filter-off-anim');
    if (on_anim.getStartTime() > off_anim.getStartTime()) {
        return;
    }

    // Skip this if the off animation isn't actually finished.
    elapsed = off_anim.getCurrentTime() - off_anim.getStartTime()
    if (elapsed < off_anim.getSimpleDuration()) {
        return;
    }

    geoms = document.getElementsByClassName('geometry');
    for (i = 0; i < geoms.length; ++i) {
        geoms[i].setAttribute('filter', 'inherit');
    }
}


]]></script>
<defs>
    <!--A filter used to deemphasize out of focus geometries for mouseover
       -effects.-->
    <!-- TODO: flood-color needs to be set from the current theme -->
    <filter id="panel-focus-filter" x="-20%" y="-20%" width="140%" height="140%">
        <feFlood flood-color="#f5f5f5" flood-opacity="0.5" result="flood">
            <animate id="panel-focus-filter-off-anim"
                      attributeName="flood-opacity" attributeType="XML"
                      fill="freeze" begin="indefinite" dur="0.2s"
                      from="0.8" to="0.0" onend="unpresent_geometry_end"/>
            <animate id="panel-focus-filter-on-anim"
                      attributeName="flood-opacity" attributeType="XML"
                      fill="freeze" begin="indefinite" dur="0.1s"
                      from="0.0" to="0.8" onend="unpresent_geometry_end"/>
        </feFlood>
        <feComposite operator="atop" in="flood" in2="SourceGraphic" />
    </filter>
</defs>

</svg>
