<?xml version="1.0" encoding="UTF-8"?>
<svg xmlns="http://www.w3.org/2000/svg" xmlns:xlink="http://www.w3.org/1999/xlink" version="1.1" width="101.6mm" height="76.2mm" viewBox="0 0 101.6 76.2" style="stroke:black;fill:black" stroke-width="0.5">
<g fill="#F5F5F5" stroke="#F2F2F2">
  <path d="M 11.73 5 L 96.6 5 96.6 56.2 11.73 56.2 z" />
  <g stroke="#FFFFFF" stroke-width="0.3">
    <path d="M94.2,5 L 94.2 56.2" />
    <path d="M74.18,5 L 74.18 56.2" />
    <path d="M54.17,5 L 54.17 56.2" />
    <path d="M34.15,5 L 34.15 56.2" />
    <path d="M14.14,5 L 14.14 56.2" />
  </g>
  <g stroke="#FFFFFF" stroke-width="0.3">
    <path d="M11.73,30.6 L 96.6 30.6" />
    <path d="M11.73,42.68 L 96.6 42.68" />
    <path d="M11.73,54.75 L 96.6 54.75" />
    <path d="M11.73,6.45 L 96.6 6.45" />
    <path d="M11.73,18.53 L 96.6 18.53" />
  </g>
</g>
<g fill="#4682B4" stroke="none">
  <path d="M 19.87 54.75 L 23.64 54.75 23.64 54.51 19.87 54.51 z" />
  <path d="M 23.54 54.75 L 27.31 54.75 27.31 49.92 23.54 49.92 z" />
  <path d="M 27.21 54.75 L 30.97 54.75 30.97 34.47 27.21 34.47 z" />
  <path d="M 30.87 54.75 L 34.64 54.75 34.64 20.22 30.87 20.22 z" />
  <path d="M 34.54 54.75 L 38.31 54.75 38.31 12.25 34.54 12.25 z" />
  <path d="M 38.21 54.75 L 41.98 54.75 41.98 39.06 38.21 39.06 z" />
  <path d="M 41.88 54.75 L 45.64 54.75 45.64 52.1 41.88 52.1 z" />
  <path d="M 45.54 54.75 L 49.31 54.75 49.31 54.75 45.54 54.75 z" />
  <path d="M 49.21 54.75 L 52.98 54.75 52.98 54.75 49.21 54.75 z" />
  <path d="M 52.88 54.75 L 56.65 54.75 56.65 54.75 52.88 54.75 z" />
  <path d="M 56.55 54.75 L 60.31 54.75 60.31 54.75 56.55 54.75 z" />
  <path d="M 60.21 54.75 L 63.98 54.75 63.98 54.75 60.21 54.75 z" />
  <path d="M 63.88 54.75 L 67.65 54.75 67.65 48.72 63.88 48.72 z" />
  <path d="M 67.55 54.75 L 71.32 54.75 71.32 33.26 67.55 33.26 z" />
  <path d="M 71.22 54.75 L 74.98 54.75 74.98 11.28 71.22 11.28 z" />
  <path d="M 74.88 54.75 L 78.65 54.75 78.65 19.49 74.88 19.49 z" />
  <path d="M 78.55 54.75 L 82.32 54.75 82.32 43.4 78.55 43.4 z" />
  <path d="M 82.22 54.75 L 85.99 54.75 85.99 51.62 82.22 51.62 z" />
</g>
<g fill="#4C404B" stroke="none" font-family="Source Sans Pro" font-size="3.18">
  <text x="94.2" y="61.25" text-anchor="middle">10</text>
  <text x="74.18" y="61.25" text-anchor="middle">5</text>
  <text x="54.17" y="61.25" text-anchor="middle">0</text>
  <text x="34.15" y="61.25" text-anchor="middle">-5</text>
  <text x="14.14" y="61.25" text-anchor="middle">-10</text>
</g>
<g fill="#362A35" stroke="none" font-family="Source Sans Pro" font-size="3.88">
  <text x="54.17" y="69.2" text-anchor="middle">x</text>
</g>
<g fill="#4C404B" stroke="none" font-family="Source Sans Pro" font-size="3.18">
  <text x="10.73" y="30.6" text-anchor="end" style="dominant-baseline:central">100</text>
  <text x="10.73" y="42.68" text-anchor="end" style="dominant-baseline:central">50</text>
  <text x="10.73" y="54.75" text-anchor="end" style="dominant-baseline:central">0</text>
  <text x="10.73" y="6.45" text-anchor="end" style="dominant-baseline:central">200</text>
  <text x="10.73" y="18.53" text-anchor="end" style="dominant-baseline:central">150</text>
</g>
</svg>
